<svg width="470" height="470" viewBox="0 0 470 470" fill="none" xmlns="http://www.w3.org/2000/svg">
<g clip-path="url(#clip0_2692_9631)">
<path d="M148.81 178.865C144.746 179.627 143.518 182.59 143.899 186.739V283.643C143.688 288.046 145.212 290.713 148.81 291.306C156.261 292.237 160.706 296.216 161.341 304.006L161.257 321.194C161.13 325.089 162.611 327.587 166.633 327.756L303.036 327.629C306.634 327.671 308.539 325.893 308.751 322.422L308.709 303.667C309.64 296.259 313.831 292.068 321.324 291.179C325.388 290.967 326.235 288.046 326.277 283.516L326.235 185.977C326.489 181.828 324.796 179.5 321.197 178.949C313.873 178.103 309.259 174.377 308.793 166.334V147.749C308.624 144.912 307.311 143.092 304.517 142.626L167.311 142.584C163.67 142.584 161.595 144.192 161.384 147.749V166.334C160.791 173.7 156.854 178.103 148.81 178.865ZM333.559 151.643V318.485C333.559 329.83 328.521 335.291 318.615 335.037H151.731C141.19 334.995 136.449 329.111 136.406 318.485V151.559C136.406 140.933 141.063 135.133 151.266 135.006L318.911 135.048C329.029 135.133 333.813 140.763 333.559 151.643Z" stroke="black" stroke-miterlimit="10" stroke-linecap="round" stroke-linejoin="round"/>
<path d="M148.763 178.367L148.741 178.369L148.718 178.373C146.569 178.776 145.106 179.78 144.253 181.285C143.417 182.761 143.208 184.649 143.399 186.762V283.631C143.293 285.879 143.624 287.758 144.502 289.168C145.394 290.6 146.811 291.483 148.729 291.799L148.739 291.801L148.748 291.802C152.402 292.258 155.26 293.455 157.281 295.441C159.295 297.419 160.528 300.231 160.841 304.025L160.757 321.178C160.757 321.18 160.757 321.182 160.757 321.185C160.693 323.183 161.036 324.913 161.991 326.174C162.961 327.456 164.496 328.166 166.612 328.255L166.623 328.256L166.634 328.256L303.033 328.129C304.91 328.15 306.425 327.698 307.501 326.712C308.579 325.724 309.139 324.27 309.25 322.452L309.251 322.436L309.251 322.421L309.209 303.698C309.667 300.09 310.911 297.315 312.908 295.333C314.908 293.349 317.709 292.114 321.367 291.677C322.434 291.62 323.324 291.383 324.056 290.963C324.795 290.538 325.346 289.94 325.748 289.207C326.537 287.766 326.756 285.792 326.777 283.521L326.777 283.516L326.735 185.992C326.863 183.858 326.497 182.115 325.567 180.822C324.627 179.516 323.167 178.745 321.273 178.455L321.264 178.454L321.255 178.453C317.659 178.037 314.792 176.922 312.77 174.98C310.757 173.047 309.523 170.24 309.293 166.319V147.749V147.734L309.292 147.719C309.204 146.234 308.813 144.959 308.029 143.985C307.239 143.004 306.093 142.382 304.6 142.133L304.559 142.126L304.518 142.126L167.311 142.084H167.311C165.425 142.084 163.862 142.5 162.738 143.451C161.605 144.411 160.996 145.848 160.885 147.719L160.884 147.734V147.749V166.313C160.591 169.908 159.489 172.72 157.533 174.727C155.574 176.736 152.703 177.994 148.763 178.367ZM333.059 151.632L333.059 151.632V151.643V318.485C333.059 324.095 331.812 328.152 329.432 330.775C327.062 333.385 323.488 334.662 318.628 334.538L318.628 334.537H318.615H151.733C146.555 334.517 142.89 333.064 140.504 330.397C138.11 327.719 136.927 323.732 136.906 318.484V151.559C136.906 146.308 138.058 142.341 140.387 139.674C142.705 137.019 146.263 135.569 151.269 135.506L318.907 135.548C318.908 135.548 318.908 135.548 318.909 135.548C323.877 135.59 327.443 136.99 329.748 139.627C332.062 142.273 333.185 146.256 333.059 151.632Z" fill="white" stroke="black"/>
<path d="M4.40134 332.37L107.994 335.037V135.006L4.40134 137.673C2.19993 137.673 0.421875 139.493 0.421875 141.695V328.391C0.421875 330.55 2.19993 332.37 4.40134 332.37Z" stroke="black" stroke-miterlimit="10" stroke-linecap="round" stroke-linejoin="round"/>
<path d="M465.601 337.069L362.008 339.736V139.662L465.601 142.329C467.802 142.329 469.58 144.15 469.58 146.351V333.047C469.58 335.248 467.802 337.069 465.601 337.069Z" stroke="black" stroke-miterlimit="10" stroke-linecap="round" stroke-linejoin="round"/>
<path d="M332.368 4.40329L335.035 107.996H134.961L137.628 4.40329C137.628 2.20189 139.448 0.423828 141.65 0.423828H328.346C330.547 0.423828 332.368 2.20189 332.368 4.40329Z" stroke="black" stroke-miterlimit="10" stroke-linecap="round" stroke-linejoin="round"/>
<path d="M331.779 465.597L334.446 362.004H134.414L137.081 465.597C137.081 467.798 138.902 469.576 141.103 469.576H327.799C330 469.576 331.779 467.798 331.779 465.597Z" stroke="black" stroke-miterlimit="10" stroke-linecap="round" stroke-linejoin="round"/>
<path d="M170.96 242V229.04H174.336C174.891 229.04 175.413 229.083 175.904 229.168C176.405 229.253 176.848 229.419 177.232 229.664C177.616 229.899 177.915 230.24 178.128 230.688C178.352 231.125 178.464 231.707 178.464 232.432C178.464 232.955 178.384 233.397 178.224 233.76C178.075 234.112 177.856 234.395 177.568 234.608C177.291 234.821 176.955 234.965 176.56 235.04C177.061 235.104 177.483 235.269 177.824 235.536C178.165 235.792 178.421 236.139 178.592 236.576C178.773 237.013 178.864 237.541 178.864 238.16C178.864 238.832 178.773 239.413 178.592 239.904C178.421 240.384 178.171 240.779 177.84 241.088C177.509 241.397 177.099 241.627 176.608 241.776C176.128 241.925 175.573 242 174.944 242H170.96ZM173.824 240H174.432C175.061 240 175.493 239.84 175.728 239.52C175.973 239.2 176.096 238.731 176.096 238.112C176.096 237.621 176.043 237.232 175.936 236.944C175.829 236.656 175.653 236.448 175.408 236.32C175.163 236.181 174.832 236.112 174.416 236.112H173.824V240ZM173.824 234.224H174.384C174.821 234.224 175.152 234.16 175.376 234.032C175.6 233.893 175.749 233.696 175.824 233.44C175.909 233.184 175.952 232.875 175.952 232.512C175.952 232.171 175.888 231.888 175.76 231.664C175.643 231.429 175.461 231.253 175.216 231.136C174.981 231.019 174.683 230.96 174.32 230.96H173.824V234.224ZM180.414 242V229.04H183.278V234.512H183.918C184.74 234.512 185.433 234.645 185.998 234.912C186.574 235.179 187.006 235.589 187.294 236.144C187.593 236.688 187.742 237.392 187.742 238.256C187.742 239.045 187.636 239.685 187.422 240.176C187.22 240.667 186.932 241.045 186.558 241.312C186.185 241.579 185.753 241.76 185.262 241.856C184.772 241.952 184.238 242 183.662 242H180.414ZM183.278 240.128H183.678C184.041 240.128 184.324 240.059 184.526 239.92C184.74 239.781 184.889 239.568 184.974 239.28C185.07 238.992 185.113 238.629 185.102 238.192C185.092 237.712 184.99 237.312 184.798 236.992C184.606 236.661 184.222 236.496 183.646 236.496H183.278V240.128ZM188.83 242V229.04H191.694V242H188.83ZM193.711 242V229.04H200.143V231.216H196.575V234.512H197.183C198.004 234.512 198.698 234.645 199.263 234.912C199.839 235.179 200.276 235.589 200.575 236.144C200.874 236.688 201.023 237.392 201.023 238.256C201.023 239.045 200.916 239.685 200.703 240.176C200.5 240.667 200.212 241.045 199.839 241.312C199.466 241.579 199.028 241.76 198.527 241.856C198.036 241.952 197.503 242 196.927 242H193.711ZM196.575 240.128H196.943C197.306 240.128 197.594 240.059 197.807 239.92C198.02 239.781 198.17 239.568 198.255 239.28C198.34 238.992 198.378 238.629 198.367 238.192C198.356 237.712 198.255 237.312 198.063 236.992C197.871 236.661 197.487 236.496 196.911 236.496H196.575V240.128ZM202.523 242V229.04H208.347V230.992H205.387V234.208H207.643V236.192H205.387V240.064H208.379V242H202.523ZM209.679 242V229.04H214.031C214.809 229.04 215.449 229.189 215.951 229.488C216.452 229.776 216.825 230.203 217.071 230.768C217.316 231.323 217.439 232 217.439 232.8C217.439 233.803 217.273 234.571 216.943 235.104C216.612 235.627 216.164 235.989 215.599 236.192C215.033 236.395 214.399 236.496 213.695 236.496H212.543V242H209.679ZM212.543 234.496H213.503C213.855 234.496 214.121 234.432 214.303 234.304C214.484 234.176 214.601 233.984 214.655 233.728C214.719 233.472 214.751 233.147 214.751 232.752C214.751 232.421 214.724 232.133 214.671 231.888C214.628 231.632 214.516 231.429 214.335 231.28C214.153 231.131 213.871 231.056 213.487 231.056H212.543V234.496ZM218.867 242V229.04H221.123V236.464L224.435 229.04H226.291V242H223.987V234.448L220.611 242H218.867ZM229.425 242V231.168H227.473V229.04H234.241V231.168H232.305V242H229.425ZM235.382 242V229.04H241.206V230.992H238.246V234.208H240.502V236.192H238.246V240.064H241.238V242H235.382ZM246.68 242V229.04H249.544V234.176H249.832L251.736 229.04H254.584L252.216 235.12L254.664 242H251.72L249.832 236.352H249.544V242H246.68ZM259.5 242.192C258.529 242.192 257.761 242.021 257.196 241.68C256.631 241.339 256.225 240.848 255.98 240.208C255.735 239.568 255.612 238.805 255.612 237.92V233.104C255.612 232.208 255.735 231.445 255.98 230.816C256.225 230.187 256.631 229.707 257.196 229.376C257.761 229.035 258.529 228.864 259.5 228.864C260.481 228.864 261.255 229.035 261.82 229.376C262.396 229.707 262.807 230.187 263.052 230.816C263.297 231.445 263.42 232.208 263.42 233.104V237.92C263.42 238.805 263.297 239.568 263.052 240.208C262.807 240.848 262.396 241.339 261.82 241.68C261.255 242.021 260.481 242.192 259.5 242.192ZM259.5 240.16C259.799 240.16 260.017 240.085 260.156 239.936C260.295 239.787 260.385 239.595 260.428 239.36C260.471 239.125 260.492 238.885 260.492 238.64V232.4C260.492 232.144 260.471 231.904 260.428 231.68C260.385 231.445 260.295 231.253 260.156 231.104C260.017 230.955 259.799 230.88 259.5 230.88C259.223 230.88 259.015 230.955 258.876 231.104C258.737 231.253 258.647 231.445 258.604 231.68C258.561 231.904 258.54 232.144 258.54 232.4V238.64C258.54 238.885 258.556 239.125 258.588 239.36C258.631 239.595 258.716 239.787 258.844 239.936C258.983 240.085 259.201 240.16 259.5 240.16ZM265.163 242V229.04H269.515C270.294 229.04 270.934 229.189 271.435 229.488C271.936 229.776 272.31 230.203 272.555 230.768C272.8 231.323 272.923 232 272.923 232.8C272.923 233.803 272.758 234.571 272.427 235.104C272.096 235.627 271.648 235.989 271.083 236.192C270.518 236.395 269.883 236.496 269.179 236.496H268.027V242H265.163ZM268.027 234.496H268.987C269.339 234.496 269.606 234.432 269.787 234.304C269.968 234.176 270.086 233.984 270.139 233.728C270.203 233.472 270.235 233.147 270.235 232.752C270.235 232.421 270.208 232.133 270.155 231.888C270.112 231.632 270 231.429 269.819 231.28C269.638 231.131 269.355 231.056 268.971 231.056H268.027V234.496ZM274.304 242V229.04H282.064V242H279.248V231.088H277.12V242H274.304ZM283.879 244.544V242.656C284.338 242.667 284.738 242.645 285.079 242.592C285.421 242.539 285.698 242.437 285.911 242.288C286.125 242.139 286.263 241.936 286.327 241.68C286.402 241.413 286.391 241.083 286.295 240.688L283.383 229.04H286.039L287.159 234.368L287.687 237.84L288.071 234.352L289.015 229.04H291.703L289.015 241.12C288.887 241.707 288.738 242.203 288.567 242.608C288.397 243.013 288.183 243.344 287.927 243.6C287.682 243.867 287.378 244.069 287.015 244.208C286.653 244.347 286.21 244.437 285.687 244.48C285.175 244.533 284.573 244.555 283.879 244.544ZM296.563 242.192C295.581 242.192 294.803 242.016 294.227 241.664C293.661 241.301 293.261 240.8 293.027 240.16C292.792 239.509 292.675 238.747 292.675 237.872V233.2C292.675 232.304 292.792 231.536 293.027 230.896C293.261 230.245 293.661 229.744 294.227 229.392C294.803 229.04 295.581 228.864 296.563 228.864C297.523 228.864 298.269 229.024 298.803 229.344C299.347 229.653 299.731 230.091 299.955 230.656C300.179 231.221 300.291 231.872 300.291 232.608V233.728H297.491V232.432C297.491 232.176 297.475 231.931 297.443 231.696C297.421 231.461 297.347 231.269 297.219 231.12C297.091 230.96 296.872 230.88 296.563 230.88C296.264 230.88 296.04 230.96 295.891 231.12C295.752 231.28 295.661 231.483 295.619 231.728C295.587 231.963 295.571 232.213 295.571 232.48V238.576C295.571 238.864 295.592 239.131 295.635 239.376C295.688 239.611 295.784 239.803 295.923 239.952C296.072 240.091 296.285 240.16 296.563 240.16C296.861 240.16 297.075 240.085 297.203 239.936C297.331 239.776 297.411 239.573 297.443 239.328C297.475 239.083 297.491 238.832 297.491 238.576V237.216H300.291V238.336C300.291 239.072 300.179 239.733 299.955 240.32C299.741 240.896 299.363 241.355 298.819 241.696C298.285 242.027 297.533 242.192 296.563 242.192Z" fill="#1A232F"/>
<path d="M208.906 128.126C208.103 128.126 207.478 127.958 207.03 127.622C206.591 127.286 206.283 126.833 206.106 126.264C205.938 125.695 205.854 125.06 205.854 124.36V120.356C205.854 119.591 205.938 118.923 206.106 118.354C206.283 117.785 206.591 117.346 207.03 117.038C207.478 116.721 208.103 116.562 208.906 116.562C209.615 116.562 210.175 116.693 210.586 116.954C211.006 117.215 211.304 117.589 211.482 118.074C211.668 118.559 211.762 119.143 211.762 119.824V120.72H210.264V119.922C210.264 119.502 210.24 119.133 210.194 118.816C210.156 118.489 210.044 118.237 209.858 118.06C209.671 117.883 209.358 117.794 208.92 117.794C208.472 117.794 208.145 117.892 207.94 118.088C207.734 118.275 207.599 118.545 207.534 118.9C207.478 119.245 207.45 119.651 207.45 120.118V124.612C207.45 125.181 207.496 125.634 207.59 125.97C207.683 126.297 207.837 126.53 208.052 126.67C208.266 126.81 208.556 126.88 208.92 126.88C209.349 126.88 209.657 126.787 209.844 126.6C210.03 126.404 210.147 126.138 210.194 125.802C210.24 125.466 210.264 125.074 210.264 124.626V123.786H211.762V124.626C211.762 125.317 211.678 125.928 211.51 126.46C211.342 126.983 211.052 127.393 210.642 127.692C210.231 127.981 209.652 128.126 208.906 128.126ZM214.515 128V117.836H212.597V116.66H217.959V117.836H216.097V128H214.515ZM221.95 128.126C221.185 128.126 220.573 127.977 220.116 127.678C219.659 127.379 219.332 126.955 219.136 126.404C218.94 125.844 218.842 125.191 218.842 124.444V120.146C218.842 119.399 218.94 118.76 219.136 118.228C219.341 117.687 219.668 117.276 220.116 116.996C220.573 116.707 221.185 116.562 221.95 116.562C222.715 116.562 223.322 116.707 223.77 116.996C224.218 117.285 224.54 117.696 224.736 118.228C224.941 118.76 225.044 119.399 225.044 120.146V124.458C225.044 125.195 224.941 125.839 224.736 126.39C224.54 126.941 224.218 127.37 223.77 127.678C223.322 127.977 222.715 128.126 221.95 128.126ZM221.95 126.88C222.37 126.88 222.687 126.796 222.902 126.628C223.117 126.451 223.261 126.208 223.336 125.9C223.411 125.583 223.448 125.214 223.448 124.794V119.824C223.448 119.404 223.411 119.045 223.336 118.746C223.261 118.438 223.117 118.205 222.902 118.046C222.687 117.878 222.37 117.794 221.95 117.794C221.53 117.794 221.208 117.878 220.984 118.046C220.769 118.205 220.625 118.438 220.55 118.746C220.475 119.045 220.438 119.404 220.438 119.824V124.794C220.438 125.214 220.475 125.583 220.55 125.9C220.625 126.208 220.769 126.451 220.984 126.628C221.208 126.796 221.53 126.88 221.95 126.88ZM226.599 128V116.66H229.413C230.094 116.66 230.635 116.786 231.037 117.038C231.447 117.281 231.746 117.635 231.933 118.102C232.119 118.569 232.213 119.133 232.213 119.796C232.213 120.393 232.105 120.911 231.891 121.35C231.685 121.789 231.377 122.129 230.967 122.372C230.556 122.605 230.043 122.722 229.427 122.722H228.181V128H226.599ZM228.181 121.588H228.909C229.366 121.588 229.725 121.537 229.987 121.434C230.248 121.331 230.435 121.154 230.547 120.902C230.659 120.641 230.715 120.277 230.715 119.81C230.715 119.269 230.673 118.853 230.589 118.564C230.514 118.275 230.351 118.074 230.099 117.962C229.847 117.85 229.455 117.794 228.923 117.794H228.181V121.588ZM236.223 128.126C235.458 128.126 234.847 127.977 234.389 127.678C233.932 127.379 233.605 126.955 233.409 126.404C233.213 125.844 233.115 125.191 233.115 124.444V120.146C233.115 119.399 233.213 118.76 233.409 118.228C233.615 117.687 233.941 117.276 234.389 116.996C234.847 116.707 235.458 116.562 236.223 116.562C236.989 116.562 237.595 116.707 238.043 116.996C238.491 117.285 238.813 117.696 239.009 118.228C239.215 118.76 239.317 119.399 239.317 120.146V124.458C239.317 125.195 239.215 125.839 239.009 126.39C238.813 126.941 238.491 127.37 238.043 127.678C237.595 127.977 236.989 128.126 236.223 128.126ZM236.223 126.88C236.643 126.88 236.961 126.796 237.175 126.628C237.39 126.451 237.535 126.208 237.609 125.9C237.684 125.583 237.721 125.214 237.721 124.794V119.824C237.721 119.404 237.684 119.045 237.609 118.746C237.535 118.438 237.39 118.205 237.175 118.046C236.961 117.878 236.643 117.794 236.223 117.794C235.803 117.794 235.481 117.878 235.257 118.046C235.043 118.205 234.898 118.438 234.823 118.746C234.749 119.045 234.711 119.404 234.711 119.824V124.794C234.711 125.214 234.749 125.583 234.823 125.9C234.898 126.208 235.043 126.451 235.257 126.628C235.481 126.796 235.803 126.88 236.223 126.88ZM240.872 128V116.66H242.454V121.56H245.366V116.66H246.948V128H245.366V122.694H242.454V128H240.872ZM248.104 128L250.512 116.66H252.038L254.46 128H252.962L252.444 125.144H250.134L249.588 128H248.104ZM250.344 124.01H252.234L251.282 118.9L250.344 124.01ZM258.194 128L260.602 116.66H262.128L264.55 128H263.052L262.534 125.144H260.224L259.678 128H258.194ZM260.434 124.01H262.324L261.372 118.9L260.434 124.01Z" fill="#1A232F"/>
<path d="M209.18 355.126C208.377 355.126 207.752 354.958 207.304 354.622C206.865 354.286 206.557 353.833 206.38 353.264C206.212 352.695 206.128 352.06 206.128 351.36V347.356C206.128 346.591 206.212 345.923 206.38 345.354C206.557 344.785 206.865 344.346 207.304 344.038C207.752 343.721 208.377 343.562 209.18 343.562C209.889 343.562 210.449 343.693 210.86 343.954C211.28 344.215 211.579 344.589 211.756 345.074C211.943 345.559 212.036 346.143 212.036 346.824V347.72H210.538V346.922C210.538 346.502 210.515 346.133 210.468 345.816C210.431 345.489 210.319 345.237 210.132 345.06C209.945 344.883 209.633 344.794 209.194 344.794C208.746 344.794 208.419 344.892 208.214 345.088C208.009 345.275 207.873 345.545 207.808 345.9C207.752 346.245 207.724 346.651 207.724 347.118V351.612C207.724 352.181 207.771 352.634 207.864 352.97C207.957 353.297 208.111 353.53 208.326 353.67C208.541 353.81 208.83 353.88 209.194 353.88C209.623 353.88 209.931 353.787 210.118 353.6C210.305 353.404 210.421 353.138 210.468 352.802C210.515 352.466 210.538 352.074 210.538 351.626V350.786H212.036V351.626C212.036 352.317 211.952 352.928 211.784 353.46C211.616 353.983 211.327 354.393 210.916 354.692C210.505 354.981 209.927 355.126 209.18 355.126ZM214.789 355V344.836H212.871V343.66H218.233V344.836H216.371V355H214.789ZM222.224 355.126C221.459 355.126 220.848 354.977 220.39 354.678C219.933 354.379 219.606 353.955 219.41 353.404C219.214 352.844 219.116 352.191 219.116 351.444V347.146C219.116 346.399 219.214 345.76 219.41 345.228C219.616 344.687 219.942 344.276 220.39 343.996C220.848 343.707 221.459 343.562 222.224 343.562C222.99 343.562 223.596 343.707 224.044 343.996C224.492 344.285 224.814 344.696 225.01 345.228C225.216 345.76 225.318 346.399 225.318 347.146V351.458C225.318 352.195 225.216 352.839 225.01 353.39C224.814 353.941 224.492 354.37 224.044 354.678C223.596 354.977 222.99 355.126 222.224 355.126ZM222.224 353.88C222.644 353.88 222.962 353.796 223.176 353.628C223.391 353.451 223.536 353.208 223.61 352.9C223.685 352.583 223.722 352.214 223.722 351.794V346.824C223.722 346.404 223.685 346.045 223.61 345.746C223.536 345.438 223.391 345.205 223.176 345.046C222.962 344.878 222.644 344.794 222.224 344.794C221.804 344.794 221.482 344.878 221.258 345.046C221.044 345.205 220.899 345.438 220.824 345.746C220.75 346.045 220.712 346.404 220.712 346.824V351.794C220.712 352.214 220.75 352.583 220.824 352.9C220.899 353.208 221.044 353.451 221.258 353.628C221.482 353.796 221.804 353.88 222.224 353.88ZM226.873 355V343.66H229.687C230.369 343.66 230.91 343.786 231.311 344.038C231.722 344.281 232.021 344.635 232.207 345.102C232.394 345.569 232.487 346.133 232.487 346.796C232.487 347.393 232.38 347.911 232.165 348.35C231.96 348.789 231.652 349.129 231.241 349.372C230.831 349.605 230.317 349.722 229.701 349.722H228.455V355H226.873ZM228.455 348.588H229.183C229.641 348.588 230 348.537 230.261 348.434C230.523 348.331 230.709 348.154 230.821 347.902C230.933 347.641 230.989 347.277 230.989 346.81C230.989 346.269 230.947 345.853 230.863 345.564C230.789 345.275 230.625 345.074 230.373 344.962C230.121 344.85 229.729 344.794 229.197 344.794H228.455V348.588ZM236.498 355.126C235.732 355.126 235.121 354.977 234.664 354.678C234.206 354.379 233.88 353.955 233.684 353.404C233.488 352.844 233.39 352.191 233.39 351.444V347.146C233.39 346.399 233.488 345.76 233.684 345.228C233.889 344.687 234.216 344.276 234.664 343.996C235.121 343.707 235.732 343.562 236.498 343.562C237.263 343.562 237.87 343.707 238.318 343.996C238.766 344.285 239.088 344.696 239.284 345.228C239.489 345.76 239.592 346.399 239.592 347.146V351.458C239.592 352.195 239.489 352.839 239.284 353.39C239.088 353.941 238.766 354.37 238.318 354.678C237.87 354.977 237.263 355.126 236.498 355.126ZM236.498 353.88C236.918 353.88 237.235 353.796 237.45 353.628C237.664 353.451 237.809 353.208 237.884 352.9C237.958 352.583 237.996 352.214 237.996 351.794V346.824C237.996 346.404 237.958 346.045 237.884 345.746C237.809 345.438 237.664 345.205 237.45 345.046C237.235 344.878 236.918 344.794 236.498 344.794C236.078 344.794 235.756 344.878 235.532 345.046C235.317 345.205 235.172 345.438 235.098 345.746C235.023 346.045 234.986 346.404 234.986 346.824V351.794C234.986 352.214 235.023 352.583 235.098 352.9C235.172 353.208 235.317 353.451 235.532 353.628C235.756 353.796 236.078 353.88 236.498 353.88ZM241.147 355V343.66H242.729V348.56H245.641V343.66H247.223V355H245.641V349.694H242.729V355H241.147ZM248.378 355L250.786 343.66H252.312L254.734 355H253.236L252.718 352.144H250.408L249.862 355H248.378ZM250.618 351.01H252.508L251.556 345.9L250.618 351.01ZM259.084 355V343.66H261.688C262.201 343.66 262.645 343.716 263.018 343.828C263.401 343.94 263.718 344.113 263.97 344.346C264.222 344.579 264.409 344.878 264.53 345.242C264.651 345.597 264.712 346.017 264.712 346.502C264.712 346.969 264.651 347.375 264.53 347.72C264.418 348.056 264.241 348.322 263.998 348.518C263.765 348.714 263.461 348.84 263.088 348.896C263.545 348.999 263.914 349.176 264.194 349.428C264.474 349.671 264.679 349.988 264.81 350.38C264.95 350.763 265.02 351.225 265.02 351.766C265.02 352.251 264.964 352.695 264.852 353.096C264.74 353.497 264.563 353.838 264.32 354.118C264.087 354.398 263.783 354.617 263.41 354.776C263.046 354.925 262.612 355 262.108 355H259.084ZM260.666 353.866H261.73C262.439 353.866 262.911 353.703 263.144 353.376C263.387 353.04 263.508 352.503 263.508 351.766C263.508 351.29 263.443 350.893 263.312 350.576C263.191 350.249 262.99 350.007 262.71 349.848C262.439 349.68 262.071 349.596 261.604 349.596H260.666V353.866ZM260.666 348.392H261.604C262.052 348.392 262.402 348.331 262.654 348.21C262.906 348.079 263.083 347.874 263.186 347.594C263.289 347.314 263.34 346.95 263.34 346.502C263.34 345.979 263.261 345.601 263.102 345.368C262.943 345.135 262.696 344.99 262.36 344.934C262.024 344.869 261.585 344.836 261.044 344.836H260.666V348.392Z" fill="#1A232F"/>
<path d="M128.126 261.252C128.126 262.054 127.958 262.68 127.622 263.128C127.286 263.566 126.833 263.874 126.264 264.052C125.695 264.22 125.06 264.304 124.36 264.304L120.356 264.304C119.591 264.304 118.923 264.22 118.354 264.052C117.785 263.874 117.346 263.566 117.038 263.128C116.721 262.68 116.562 262.054 116.562 261.252C116.562 260.542 116.693 259.982 116.954 259.572C117.215 259.152 117.589 258.853 118.074 258.676C118.559 258.489 119.143 258.396 119.824 258.396L120.72 258.396L120.72 259.894L119.922 259.894C119.502 259.894 119.133 259.917 118.816 259.964C118.489 260.001 118.237 260.113 118.06 260.3C117.883 260.486 117.794 260.799 117.794 261.238C117.794 261.686 117.892 262.012 118.088 262.218C118.275 262.423 118.545 262.558 118.9 262.624C119.245 262.68 119.651 262.708 120.118 262.708L124.612 262.708C125.181 262.708 125.634 262.661 125.97 262.568C126.297 262.474 126.53 262.32 126.67 262.106C126.81 261.891 126.88 261.602 126.88 261.238C126.88 260.808 126.787 260.5 126.6 260.314C126.404 260.127 126.138 260.01 125.802 259.964C125.466 259.917 125.074 259.894 124.626 259.894L123.786 259.894L123.786 258.396L124.626 258.396C125.317 258.396 125.928 258.48 126.46 258.648C126.983 258.816 127.393 259.105 127.692 259.516C127.981 259.926 128.126 260.505 128.126 261.252ZM128 255.643L117.836 255.643L117.836 257.561L116.66 257.561L116.66 252.199L117.836 252.199L117.836 254.061L128 254.061L128 255.643ZM128.126 248.207C128.126 248.973 127.977 249.584 127.678 250.041C127.379 250.499 126.955 250.825 126.404 251.021C125.844 251.217 125.191 251.315 124.444 251.315L120.146 251.315C119.399 251.315 118.76 251.217 118.228 251.021C117.687 250.816 117.276 250.489 116.996 250.041C116.707 249.584 116.562 248.973 116.562 248.207C116.562 247.442 116.707 246.835 116.996 246.387C117.285 245.939 117.696 245.617 118.228 245.421C118.76 245.216 119.399 245.113 120.146 245.113L124.458 245.113C125.195 245.113 125.839 245.216 126.39 245.421C126.941 245.617 127.37 245.939 127.678 246.387C127.977 246.835 128.126 247.442 128.126 248.207ZM126.88 248.207C126.88 247.787 126.796 247.47 126.628 247.255C126.451 247.041 126.208 246.896 125.9 246.821C125.583 246.747 125.214 246.709 124.794 246.709L119.824 246.709C119.404 246.709 119.045 246.747 118.746 246.821C118.438 246.896 118.205 247.041 118.046 247.255C117.878 247.47 117.794 247.787 117.794 248.207C117.794 248.627 117.878 248.949 118.046 249.173C118.205 249.388 118.438 249.533 118.746 249.607C119.045 249.682 119.404 249.719 119.824 249.719L124.794 249.719C125.214 249.719 125.583 249.682 125.9 249.607C126.208 249.533 126.451 249.388 126.628 249.173C126.796 248.949 126.88 248.627 126.88 248.207ZM128 243.558L116.66 243.558L116.66 240.744C116.66 240.063 116.786 239.522 117.038 239.12C117.281 238.71 117.635 238.411 118.102 238.224C118.569 238.038 119.133 237.944 119.796 237.944C120.393 237.944 120.911 238.052 121.35 238.266C121.789 238.472 122.129 238.78 122.372 239.19C122.605 239.601 122.722 240.114 122.722 240.73L122.722 241.976L128 241.976L128 243.558ZM121.588 241.976L121.588 241.248C121.588 240.791 121.537 240.432 121.434 240.17C121.331 239.909 121.154 239.722 120.902 239.61C120.641 239.498 120.277 239.442 119.81 239.442C119.269 239.442 118.853 239.484 118.564 239.568C118.275 239.643 118.074 239.806 117.962 240.058C117.85 240.31 117.794 240.702 117.794 241.234L117.794 241.976L121.588 241.976ZM128.126 233.934C128.126 234.699 127.977 235.311 127.678 235.768C127.379 236.225 126.955 236.552 126.404 236.748C125.844 236.944 125.191 237.042 124.444 237.042L120.146 237.042C119.399 237.042 118.76 236.944 118.228 236.748C117.687 236.543 117.276 236.216 116.996 235.768C116.707 235.311 116.562 234.699 116.562 233.934C116.562 233.169 116.707 232.562 116.996 232.114C117.285 231.666 117.696 231.344 118.228 231.148C118.76 230.943 119.399 230.84 120.146 230.84L124.458 230.84C125.195 230.84 125.839 230.943 126.39 231.148C126.941 231.344 127.37 231.666 127.678 232.114C127.977 232.562 128.126 233.169 128.126 233.934ZM126.88 233.934C126.88 233.514 126.796 233.197 126.628 232.982C126.451 232.767 126.208 232.623 125.9 232.548C125.583 232.473 125.214 232.436 124.794 232.436L119.824 232.436C119.404 232.436 119.045 232.473 118.746 232.548C118.438 232.623 118.205 232.767 118.046 232.982C117.878 233.197 117.794 233.514 117.794 233.934C117.794 234.354 117.878 234.676 118.046 234.9C118.205 235.115 118.438 235.259 118.746 235.334C119.045 235.409 119.404 235.446 119.824 235.446L124.794 235.446C125.214 235.446 125.583 235.409 125.9 235.334C126.208 235.259 126.451 235.115 126.628 234.9C126.796 234.676 126.88 234.354 126.88 233.934ZM128 229.285L116.66 229.285L116.66 227.703L121.56 227.703L121.56 224.791L116.66 224.791L116.66 223.209L128 223.209L128 224.791L122.694 224.791L122.694 227.703L128 227.703L128 229.285ZM128 222.053L116.66 219.645L116.66 218.119L128 215.697L128 217.195L125.144 217.713L125.144 220.023L128 220.569L128 222.053ZM124.01 219.813L124.01 217.923L118.9 218.875L124.01 219.813ZM128.126 208.505C128.126 209.308 127.958 209.933 127.622 210.381C127.286 210.82 126.833 211.128 126.264 211.305C125.695 211.473 125.06 211.557 124.36 211.557L120.356 211.557C119.591 211.557 118.923 211.473 118.354 211.305C117.785 211.128 117.346 210.82 117.038 210.381C116.721 209.933 116.562 209.308 116.562 208.505C116.562 207.796 116.693 207.236 116.954 206.825C117.215 206.405 117.589 206.107 118.074 205.929C118.559 205.743 119.143 205.649 119.824 205.649L120.72 205.649L120.72 207.147L119.922 207.147C119.502 207.147 119.133 207.171 118.816 207.217C118.489 207.255 118.237 207.367 118.06 207.553C117.883 207.74 117.794 208.053 117.794 208.491C117.794 208.939 117.892 209.266 118.088 209.471C118.275 209.677 118.545 209.812 118.9 209.877C119.245 209.933 119.651 209.961 120.118 209.961L124.612 209.961C125.181 209.961 125.634 209.915 125.97 209.821C126.297 209.728 126.53 209.574 126.67 209.359C126.81 209.145 126.88 208.855 126.88 208.491C126.88 208.062 126.787 207.754 126.6 207.567C126.404 207.381 126.138 207.264 125.802 207.217C125.466 207.171 125.074 207.147 124.626 207.147L123.786 207.147L123.786 205.649L124.626 205.649C125.317 205.649 125.928 205.733 126.46 205.901C126.983 206.069 127.393 206.359 127.692 206.769C127.981 207.18 128.126 207.759 128.126 208.505Z" fill="#1A232F"/>
<path d="M354.126 260.84C354.126 261.643 353.958 262.268 353.622 262.716C353.286 263.155 352.833 263.463 352.264 263.64C351.695 263.808 351.06 263.892 350.36 263.892L346.356 263.892C345.591 263.892 344.923 263.808 344.354 263.64C343.785 263.463 343.346 263.155 343.038 262.716C342.721 262.268 342.562 261.643 342.562 260.84C342.562 260.131 342.693 259.571 342.954 259.16C343.215 258.74 343.589 258.442 344.074 258.264C344.559 258.078 345.143 257.984 345.824 257.984L346.72 257.984L346.72 259.482L345.922 259.482C345.502 259.482 345.133 259.506 344.816 259.552C344.489 259.59 344.237 259.702 344.06 259.888C343.883 260.075 343.794 260.388 343.794 260.826C343.794 261.274 343.892 261.601 344.088 261.806C344.275 262.012 344.545 262.147 344.9 262.212C345.245 262.268 345.651 262.296 346.118 262.296L350.612 262.296C351.181 262.296 351.634 262.25 351.97 262.156C352.297 262.063 352.53 261.909 352.67 261.694C352.81 261.48 352.88 261.19 352.88 260.826C352.88 260.397 352.787 260.089 352.6 259.902C352.404 259.716 352.138 259.599 351.802 259.552C351.466 259.506 351.074 259.482 350.626 259.482L349.786 259.482L349.786 257.984L350.626 257.984C351.317 257.984 351.928 258.068 352.46 258.236C352.983 258.404 353.393 258.694 353.692 259.104C353.981 259.515 354.126 260.094 354.126 260.84ZM354 255.231L343.836 255.231L343.836 257.149L342.66 257.149L342.66 251.787L343.836 251.787L343.836 253.649L354 253.649L354 255.231ZM354.126 247.796C354.126 248.562 353.977 249.173 353.678 249.63C353.379 250.088 352.955 250.414 352.404 250.61C351.844 250.806 351.191 250.904 350.444 250.904L346.146 250.904C345.399 250.904 344.76 250.806 344.228 250.61C343.687 250.405 343.276 250.078 342.996 249.63C342.707 249.173 342.562 248.562 342.562 247.796C342.562 247.031 342.707 246.424 342.996 245.976C343.285 245.528 343.696 245.206 344.228 245.01C344.76 244.805 345.399 244.702 346.146 244.702L350.458 244.702C351.195 244.702 351.839 244.805 352.39 245.01C352.941 245.206 353.37 245.528 353.678 245.976C353.977 246.424 354.126 247.031 354.126 247.796ZM352.88 247.796C352.88 247.376 352.796 247.059 352.628 246.844C352.451 246.63 352.208 246.485 351.9 246.41C351.583 246.336 351.214 246.298 350.794 246.298L345.824 246.298C345.404 246.298 345.045 246.336 344.746 246.41C344.438 246.485 344.205 246.63 344.046 246.844C343.878 247.059 343.794 247.376 343.794 247.796C343.794 248.216 343.878 248.538 344.046 248.762C344.205 248.977 344.438 249.122 344.746 249.196C345.045 249.271 345.404 249.308 345.824 249.308L350.794 249.308C351.214 249.308 351.583 249.271 351.9 249.196C352.208 249.122 352.451 248.977 352.628 248.762C352.796 248.538 352.88 248.216 352.88 247.796ZM354 243.147L342.66 243.147L342.66 240.333C342.66 239.652 342.786 239.111 343.038 238.709C343.281 238.299 343.635 238 344.102 237.813C344.569 237.627 345.133 237.533 345.796 237.533C346.393 237.533 346.911 237.641 347.35 237.855C347.789 238.061 348.129 238.369 348.372 238.779C348.605 239.19 348.722 239.703 348.722 240.319L348.722 241.565L354 241.565L354 243.147ZM347.588 241.565L347.588 240.837C347.588 240.38 347.537 240.021 347.434 239.759C347.331 239.498 347.154 239.311 346.902 239.199C346.641 239.087 346.277 239.031 345.81 239.031C345.269 239.031 344.853 239.073 344.564 239.157C344.275 239.232 344.074 239.395 343.962 239.647C343.85 239.899 343.794 240.291 343.794 240.823L343.794 241.565L347.588 241.565ZM354.126 233.523C354.126 234.288 353.977 234.899 353.678 235.357C353.379 235.814 352.955 236.141 352.404 236.337C351.844 236.533 351.191 236.631 350.444 236.631L346.146 236.631C345.399 236.631 344.76 236.533 344.228 236.337C343.687 236.131 343.276 235.805 342.996 235.357C342.707 234.899 342.562 234.288 342.562 233.523C342.562 232.757 342.707 232.151 342.996 231.703C343.285 231.255 343.696 230.933 344.228 230.737C344.76 230.531 345.399 230.429 346.146 230.429L350.458 230.429C351.195 230.429 351.839 230.531 352.39 230.737C352.941 230.933 353.37 231.255 353.678 231.703C353.977 232.151 354.126 232.757 354.126 233.523ZM352.88 233.523C352.88 233.103 352.796 232.785 352.628 232.571C352.451 232.356 352.208 232.211 351.9 232.137C351.583 232.062 351.214 232.025 350.794 232.025L345.824 232.025C345.404 232.025 345.045 232.062 344.746 232.137C344.438 232.211 344.205 232.356 344.046 232.571C343.878 232.785 343.794 233.103 343.794 233.523C343.794 233.943 343.878 234.265 344.046 234.489C344.205 234.703 344.438 234.848 344.746 234.923C345.045 234.997 345.404 235.035 345.824 235.035L350.794 235.035C351.214 235.035 351.583 234.997 351.9 234.923C352.208 234.848 352.451 234.703 352.628 234.489C352.796 234.265 352.88 233.943 352.88 233.523ZM354 228.874L342.66 228.874L342.66 227.292L347.56 227.292L347.56 224.38L342.66 224.38L342.66 222.798L354 222.798L354 224.38L348.694 224.38L348.694 227.292L354 227.292L354 228.874ZM354 221.642L342.66 219.234L342.66 217.708L354 215.286L354 216.784L351.144 217.302L351.144 219.612L354 220.158L354 221.642ZM350.01 219.402L350.01 217.512L344.9 218.464L350.01 219.402ZM354 210.936L342.66 210.936L342.66 208.472C342.66 207.632 342.791 206.97 343.052 206.484C343.304 205.99 343.687 205.64 344.2 205.434C344.713 205.22 345.353 205.112 346.118 205.112L350.29 205.112C351.093 205.112 351.769 205.22 352.32 205.434C352.871 205.64 353.291 205.98 353.58 206.456C353.86 206.923 354 207.553 354 208.346L354 210.936ZM352.866 209.354L352.866 208.458C352.866 207.88 352.754 207.469 352.53 207.226C352.306 206.984 351.979 206.839 351.55 206.792C351.121 206.736 350.603 206.708 349.996 206.708L346.314 206.708C345.726 206.708 345.25 206.746 344.886 206.82C344.522 206.895 344.256 207.058 344.088 207.31C343.92 207.562 343.836 207.959 343.836 208.5L343.836 209.354L352.866 209.354Z" fill="#1A232F"/>
</g>
<defs>
<clipPath id="clip0_2692_9631">
<rect width="470" height="470" fill="white"/>
</clipPath>
</defs>
</svg>
