<svg width="190" height="101" viewBox="0 0 190 101" fill="none" xmlns="http://www.w3.org/2000/svg">
<g clip-path="url(#clip0_2692_19439)">
<path d="M95.0689 100.513C67.0231 100.513 38.9506 100.513 10.9048 100.513C9.81284 100.513 8.6942 100.434 7.6022 100.222C6.37703 99.9844 5.33829 99.5082 5.52473 97.7096C5.63127 96.6251 5.52473 95.5142 5.55137 94.4032C5.578 93.7155 5.39156 93.2394 4.69907 92.9484C3.79351 92.5781 2.96785 92.0756 2.06229 91.6788C1.23663 91.3085 0.81048 90.7001 0.837114 89.8008C0.890382 87.0763 0.970285 84.3254 0.996919 81.601C0.996919 80.7281 1.55624 80.2785 2.22209 80.0404C3.90005 79.4849 4.05985 78.2946 4.05985 76.7605C4.03322 54.0656 4.05985 31.3443 4.08648 8.64944C4.08648 6.32176 4.13975 3.96763 4.16639 1.63996C4.19302 0.0264509 4.21966 0 5.95088 0C12.3964 0 18.8152 0.0264509 25.2607 0.0264509C26.326 0.0264509 27.3914 0.0264509 28.4568 0.0264509C29.2025 0.0264509 29.9216 -0.0529018 30.481 0.687723C30.6674 0.952232 31.28 0.952232 31.7061 0.952232C51.0692 0.978683 70.4056 0.978683 89.7687 1.00513C112.541 1.00513 135.313 1.03158 158.085 1.03158C158.804 1.03158 159.604 1.21674 160.003 0.264509C160.083 0.0793527 160.642 0 160.962 0C168.739 0 176.49 0 184.267 0.0264509C185.945 0.0264509 185.945 0.132254 185.945 1.71931C185.945 11.2945 185.971 20.8433 185.971 30.4185C185.998 41.6602 185.998 52.9018 186.025 64.1434C186.025 68.7723 186.051 73.4012 186.025 78.0301C186.025 78.8237 186.211 79.432 187.063 79.6436C188.848 80.1198 189.247 81.3365 189.141 83.0558C188.981 85.1983 189.088 87.3673 189.141 89.5363C189.167 90.5943 188.768 91.282 187.782 91.7317C186.983 92.102 186.211 92.5781 185.439 92.9484C184.799 93.2658 184.533 93.7155 184.533 94.4297C184.56 95.5671 184.56 96.7309 184.56 97.8683C184.533 99.1908 183.867 100.011 182.536 100.222C181.523 100.381 180.511 100.46 179.499 100.46C151.347 100.46 123.221 100.46 95.0689 100.46C95.0689 100.487 95.0689 100.487 95.0689 100.513ZM3.71361 91.2291C3.58044 91.2027 3.4739 91.1762 3.34073 91.1498C3.50053 91.1762 3.60707 91.2027 3.71361 91.2291C3.82014 91.3878 3.87341 91.6788 4.03322 91.7581C5.12522 92.4459 6.16395 93.1336 7.57556 93.0542C9.38669 92.9749 11.2244 93.0542 13.0356 93.0542C64.3064 93.0542 115.577 93.0542 166.848 93.0542C172.122 93.0542 177.422 93.0278 182.695 93.0278C184.293 93.0278 185.545 92.3136 186.77 91.0704C185.918 91.1233 185.305 91.1762 184.693 91.1762C173.586 91.1762 162.507 91.1762 151.4 91.1762C110.064 91.1762 68.7543 91.1762 27.418 91.1762C19.5343 91.2027 11.624 91.2291 3.71361 91.2291ZM3.82014 79.6701C3.79351 79.8817 3.79351 80.0933 3.76687 80.2785C4.32619 80.3314 4.91215 80.4372 5.47146 80.4372C13.222 80.3578 20.9992 80.1462 28.7497 80.1462C59.965 80.1197 91.1536 80.1462 122.369 80.1991C137.577 80.2256 152.812 80.3578 168.02 80.4107C173.533 80.4372 179.02 80.4372 184.533 80.4372C185.119 80.4372 185.705 80.3314 186.264 80.2785C186.264 80.1462 186.264 79.9875 186.291 79.8552C185.785 79.7494 185.252 79.5643 184.746 79.5643C181.337 79.5378 177.901 79.5643 174.492 79.5643C172.228 79.5643 169.964 79.5114 167.7 79.5643C166.741 79.5907 166.422 79.194 166.475 78.3211C166.502 77.5276 166.475 76.734 166.475 75.9405C166.475 53.2721 166.502 30.6301 166.528 7.96172C166.528 6.74498 166.528 5.52824 166.528 4.17924C165.57 4.12634 164.771 4.07344 163.998 4.07344C156.94 4.09989 149.882 4.15279 142.824 4.15279C103.991 4.17924 65.1587 4.17924 26.2994 4.17924C23.8224 4.17924 23.9822 4.02054 23.9822 6.48047C23.9822 30.3392 23.9822 54.1714 23.9822 78.0301C23.9822 78.4798 23.9822 78.9559 23.9822 79.6436C17.1372 79.6701 10.4787 79.6701 3.82014 79.6701ZM167.008 3.41216C167.008 4.02053 167.008 4.44375 167.008 4.86696C167.008 28.9902 166.981 53.0869 166.981 77.2101C166.981 78.7178 166.981 78.7443 168.526 78.7443C173.666 78.7443 178.833 78.7443 183.974 78.7443C184.4 78.7443 184.826 78.6649 185.199 78.6385C185.199 75.8083 185.199 73.1103 185.199 70.4387C185.199 53.563 185.199 36.6609 185.172 19.7853C185.172 14.5744 185.172 9.39007 185.146 4.17924C185.146 1.93091 185.013 1.85156 182.829 1.82511C178.114 1.79866 173.427 1.74576 168.712 1.74576C160.669 1.77221 152.652 1.85156 144.608 1.85156C98.7444 1.85156 52.907 1.82511 7.04288 1.79866C5.23176 1.79866 4.93878 2.06317 4.93878 3.86183C4.91214 8.41138 4.88551 12.9345 4.88551 17.484C4.88551 37.6396 4.91214 57.7687 4.93878 77.9243C4.93878 78.1624 4.99205 78.4269 5.01868 78.6914C11.1179 78.6914 17.1106 78.6914 23.3164 78.6914C23.3164 53.5366 23.3164 28.4876 23.3164 3.43862C71.2845 3.41216 119.066 3.41216 167.008 3.41216ZM188.448 84.299C126.018 84.299 63.9069 84.299 1.71604 84.299C1.71604 86.3622 1.71604 88.2666 1.71604 90.2504C2.14219 90.2769 2.48843 90.3298 2.83468 90.3298C6.96298 90.3562 11.0913 90.3562 15.2196 90.3562C66.7567 90.3562 118.294 90.3827 169.831 90.3827C175.557 90.3827 181.284 90.3827 187.01 90.3562C188.475 90.3562 188.475 90.3298 188.475 88.8485C188.448 87.3937 188.448 85.886 188.448 84.299ZM183.734 93.7155C182.136 93.7155 180.724 93.7155 179.313 93.7155C129.081 93.7155 78.8487 93.7155 28.6166 93.7155C21.6384 93.7155 14.6869 93.7155 7.70873 93.7155C6.40366 93.7155 6.37703 93.742 6.37703 95.0645C6.37703 95.9374 6.37703 96.8367 6.37703 97.7096C6.40366 99.1908 6.53683 99.4025 8.02835 99.5083C10.3189 99.6405 12.6361 99.7199 14.9532 99.7199C65.8512 99.7463 116.749 99.7463 167.647 99.7463C171.829 99.7463 175.984 99.7463 180.165 99.7199C180.911 99.7199 181.683 99.667 182.402 99.5611C183.228 99.4289 183.761 98.9792 183.734 98.0535C183.707 96.6516 183.734 95.2761 183.734 93.7155ZM1.68941 83.5055C2.27536 83.5055 2.80804 83.5055 3.34073 83.5055C11.4642 83.5055 19.5876 83.5319 27.711 83.5319C73.948 83.5319 120.185 83.5319 166.449 83.5055C173.32 83.5055 180.218 83.5055 187.09 83.5055C188.342 83.5055 188.342 83.4261 188.448 82.2887C188.555 81.1778 187.836 81.2042 187.117 81.1778C186.93 81.1778 186.77 81.1778 186.584 81.1778C176.01 81.1778 165.463 81.2042 154.889 81.2042C104.737 81.2042 54.5849 81.2042 4.43273 81.2042C3.84678 81.2042 3.28746 81.2307 2.70151 81.2307C2.06229 81.2307 1.71604 81.5216 1.71604 82.2094C1.68941 82.5797 1.68941 82.95 1.68941 83.5055ZM185.279 1.32254C185.252 1.24319 185.252 1.16384 185.226 1.05804C184.879 1.13739 184.533 1.19029 184.187 1.26964C184.187 1.32254 184.214 1.4019 184.214 1.4548C184.586 1.4019 184.933 1.37545 185.279 1.32254ZM24.7013 1.4548C24.7013 1.42835 24.6747 1.4019 24.6747 1.4019C24.3551 1.4019 24.0355 1.4019 23.6892 1.4019C23.6892 1.42835 23.6892 1.4548 23.6892 1.4548C24.0355 1.4548 24.3551 1.4548 24.7013 1.4548ZM5.15185 1.19029C5.07195 1.19029 5.01868 1.19029 4.93878 1.16384C4.96541 1.19029 5.01868 1.21674 5.04532 1.21674C5.07195 1.24319 5.09858 1.21674 5.15185 1.19029Z" fill="black"/>
</g>
<defs>
<clipPath id="clip0_2692_19439">
<rect width="188.33" height="100.513" fill="white" transform="translate(0.835938)"/>
</clipPath>
</defs>
</svg>
