<svg width="51" height="57" viewBox="0 0 51 57" fill="none" xmlns="http://www.w3.org/2000/svg">
<g clip-path="url(#clip0_2848_6239)">
<path d="M23.2486 56.8883L23.2033 56.8034C23.1807 56.7572 23.1203 56.6646 22.9919 56.6646H22.9768L22.773 56.6723L22.7957 56.5643C22.773 56.5412 22.7428 56.5258 22.7202 56.5103C21.3915 55.6773 20.0628 54.852 18.7266 54.0189C18.4246 53.8338 18.1226 53.6487 17.8206 53.4559C17.4809 53.2476 17.1336 53.0316 16.7939 52.8234L16.7562 52.8002C14.5895 51.4427 12.3398 50.0466 10.1354 48.6659C8.91238 47.9023 7.68938 47.1309 6.46638 46.3596C5.59066 45.8119 4.71493 45.2566 3.8392 44.7089C3.36359 44.4081 2.94083 44.1536 2.54826 43.9222C2.35953 43.8065 2.20099 43.6599 2.07265 43.4517C1.61214 42.7498 1.27997 41.9707 0.955346 41.2225C0.902501 41.0991 0.849655 40.9757 0.78926 40.8523C0.751513 40.7597 0.743964 40.6594 0.743964 40.5669C0.743964 39.5642 0.743964 38.5614 0.743964 37.5587C0.743964 35.7615 0.743964 33.9103 0.743964 32.0822C0.736415 30.3082 0.728865 28.511 0.721316 26.7677C0.713767 25.3639 0.706217 23.9601 0.698668 22.5563C0.691118 20.7976 0.698668 19.0467 0.698668 17.3498V17.0027L0.728865 16.9564C0.736415 16.941 0.751513 16.9333 0.751513 16.9178C0.827007 16.779 0.887402 16.6401 0.940247 16.4859L0.970445 16.4936C1.03084 16.3702 1.09123 16.2468 1.15163 16.1234C1.30262 15.8148 1.43851 15.5294 1.59704 15.2363C1.84617 14.7812 2.0651 14.411 2.29158 14.0716C2.41992 13.8865 2.60111 13.7168 2.79739 13.5857C3.64292 13.0535 4.5111 12.5212 5.34908 12.0044C6.51168 11.2871 7.71203 10.5466 8.88218 9.80614C9.51633 9.40505 10.158 8.98081 10.7695 8.57201C11.2678 8.24033 11.7887 7.89323 12.302 7.56156C12.6418 7.34559 12.9966 7.14504 13.3363 6.95221C13.5552 6.8288 13.7893 6.69767 14.0082 6.56654L14.3404 6.366C15.4652 5.69494 16.6354 4.99302 17.7753 4.29111C18.953 3.56606 20.1534 2.82558 21.3084 2.10053C21.7614 1.81513 22.2219 1.53745 22.6749 1.25206C22.7202 1.22121 22.7655 1.19035 22.8183 1.15179L22.9014 1.09008L22.9315 1.08237C23.1958 1.0438 23.377 0.966667 23.5355 0.843254L23.5732 0.812401H23.6261C23.8677 0.804688 24.1243 0.804688 24.3886 0.804688C24.6 0.804688 24.7811 0.804688 24.9623 0.812401C25.7399 0.843254 26.5326 0.904961 27.2951 0.966667C27.5065 0.982094 27.7254 1.00523 27.9368 1.02066C28.0727 1.02837 28.2237 1.08237 28.352 1.1595C29.3485 1.76114 30.3375 2.37049 31.3264 2.97213C31.9606 3.3578 32.6023 3.75118 33.2364 4.13684C34.0669 4.64592 34.9048 5.14729 35.7353 5.65637C37.0111 6.4277 38.3247 7.22989 39.6156 8.01665C40.0007 8.24805 40.3857 8.49487 40.7556 8.73399C41.118 8.96539 41.4879 9.2045 41.8654 9.42819C42.575 9.86013 43.2997 10.2998 44.0018 10.724C44.5831 11.0788 45.172 11.4259 45.7533 11.7808C46.1987 12.0507 46.6517 12.3361 47.0895 12.6061C47.399 12.7989 47.701 12.984 48.0105 13.1769C48.3503 13.3851 48.5541 13.7091 48.7504 14.0176C48.7806 14.0639 48.8032 14.1102 48.8334 14.1487C49.0826 14.5344 49.3166 14.9432 49.5431 15.3289C49.6186 15.4677 49.7016 15.5988 49.7846 15.7377L49.7997 15.7608L49.8073 15.7917C49.8526 16.1002 49.9356 16.347 50.0715 16.5399L50.1017 16.5784V16.6247C50.1093 17.6892 50.1244 18.5531 50.1395 19.3552C50.1697 21.353 50.1848 23.3739 50.1999 25.3408C50.2074 26.3127 50.215 27.2845 50.2225 28.2564C50.2225 28.3644 50.2301 28.4647 50.2376 28.5804L50.2452 28.7038L50.2301 28.7346C50.1999 28.8041 50.2074 28.8889 50.2376 28.9583L50.3508 29.182H50.2376V29.1897C50.2376 29.2977 50.2376 29.398 50.2376 29.4983C50.2829 32.6453 50.3282 35.7923 50.3735 38.9394C50.3735 39.1014 50.381 39.271 50.381 39.433C50.3886 39.6721 50.3886 39.9267 50.3961 40.1658C50.3961 40.2892 50.3735 40.4126 50.3357 40.5206C49.9356 41.5619 49.5053 42.4644 49.0222 43.2743C48.8032 43.6368 48.5088 43.8605 48.2144 44.0456C47.1877 44.6935 46.1458 45.3569 45.1342 46.0048C44.6888 46.2902 44.2434 46.5756 43.798 46.8532L42.9902 47.37C41.4124 48.3728 39.8421 49.3755 38.2643 50.3782C37.6528 50.7716 37.0338 51.1573 36.4223 51.5429C35.7051 51.998 34.9803 52.4531 34.2631 52.9082C32.7306 53.8878 31.0396 54.9677 28.9635 56.3021C28.6842 56.4795 28.3369 56.6646 27.9141 56.68C27.5744 56.6877 27.2271 56.734 26.895 56.7649C26.7893 56.7803 26.6836 56.788 26.5703 56.8034C26.5099 56.8112 26.442 56.8266 26.3665 56.842C26.3288 56.8497 26.2986 56.8574 26.2608 56.8651H26.2457H23.2486V56.8883ZM25.3775 56.3175C25.4002 56.3252 25.4304 56.3329 25.4606 56.3329C25.5059 56.3329 25.5512 56.3252 25.5814 56.3021L25.6644 56.2404L25.7475 56.3021C25.7777 56.3252 25.8003 56.3329 25.8683 56.3329C25.8984 56.3329 25.9362 56.3329 25.9815 56.3329C26.1476 56.3252 26.3212 56.3098 26.4873 56.3021C26.7289 56.2866 26.978 56.2712 27.2271 56.2635C27.8084 56.2481 28.3444 56.063 28.9106 55.6927C30.0129 54.9754 31.1528 54.258 32.2475 53.5716C32.7684 53.2399 33.2893 52.9159 33.8102 52.5842C33.9914 52.4685 34.1801 52.3528 34.3613 52.2294C31.7039 53.2939 28.8201 53.8647 25.755 53.9264L25.7475 53.9881L25.5663 53.9341C25.5436 53.9264 25.5134 53.9264 25.4908 53.9264C25.4606 53.9264 25.4304 53.9341 25.4002 53.9418L25.37 53.9495C25.37 53.9495 24.8113 53.9187 24.683 53.9109C24.4943 53.9032 24.3055 53.8955 24.1243 53.8801C23.7167 53.8647 23.2864 53.8415 22.8712 53.7952C20.9385 53.587 19.1795 53.2013 17.5187 52.5997C17.5866 52.6382 17.647 52.6768 17.7149 52.7154C17.8659 52.8079 18.0094 52.9005 18.1604 52.9931C19.9269 54.0961 21.5425 55.1142 23.1052 56.1015C23.2939 56.2172 23.4525 56.2712 23.6261 56.2789C24.0187 56.2866 24.4112 56.2944 24.8189 56.3098L25.2417 56.3252L25.2643 56.2866L25.3775 56.3175ZM24.3961 4.30654C24.3357 4.30654 24.2753 4.30654 24.2149 4.31425C22.5918 4.3991 20.9838 4.64592 19.4437 5.05473C18.4246 5.3247 17.0959 5.71036 15.8502 6.32743C14.0988 7.19132 12.37 8.24805 10.7016 9.47447C9.17661 10.5929 7.78752 12.0507 6.17951 14.1873C5.53781 15.0435 4.94896 15.9922 4.32236 17.1955C3.51458 18.7382 2.91818 20.1806 2.50297 21.5921C1.86882 23.7441 1.5291 25.8961 1.4838 28.0019C1.44605 29.7837 1.53665 31.3572 1.77068 32.815C2.03491 34.4811 2.47277 36.1086 3.06162 37.6435C3.54478 38.9085 4.07323 40.0347 4.66963 41.0991C5.6133 42.7806 6.79855 44.3773 8.28578 45.9662C9.34269 47.0924 10.2939 47.9331 11.2829 48.5965C12.0605 49.121 12.8682 49.63 13.6534 50.116L13.9025 50.2703C15.4048 51.2113 17.0657 51.9363 18.9832 52.4685C20.395 52.8619 21.7991 53.1242 23.1429 53.2476C23.9281 53.317 24.7132 53.3556 25.4832 53.3556C27.2875 53.3556 29.0541 53.155 30.7451 52.7539C33.0326 52.214 35.0483 51.4272 36.913 50.3474C38.4455 49.4604 39.6534 48.6273 40.7179 47.7094C41.8578 46.7298 42.6807 45.9199 43.3903 45.0869C44.2963 44.0225 45.0587 42.9734 45.7231 41.9013C46.6064 40.4666 47.3236 38.9857 47.8747 37.4893C48.7579 35.0673 49.2788 32.5682 49.4147 30.0613L49.4223 29.9688C49.4374 29.6757 49.4525 29.3749 49.4223 29.0895L49.4147 29.0509L49.4298 29.0123C49.4525 28.966 49.4449 28.8966 49.4147 28.8272L49.3241 28.6112H49.4223C49.4223 28.5341 49.4223 28.457 49.4223 28.3798C49.4298 28.1022 49.4298 27.8476 49.4147 27.5854C49.3166 25.8499 49.0524 24.1606 48.6371 22.564C48.0483 20.3117 47.2028 18.2291 46.1081 16.3702C44.8172 14.1719 43.2393 12.2127 41.4199 10.5235C40.1743 9.37419 38.7475 8.33289 37.1923 7.43044C35.5541 6.4817 33.8102 5.7335 31.9908 5.19357C31.1226 4.93903 30.1714 4.73077 29.0994 4.56879C27.8537 4.37596 26.8874 4.29111 25.9664 4.29111C25.8834 4.29111 25.8003 4.30654 25.7173 4.31425C25.6191 4.32968 25.521 4.3451 25.4228 4.3451C25.2492 4.3451 25.0831 4.33739 24.917 4.32196C24.7434 4.32196 24.5698 4.30654 24.3961 4.30654ZM49.7544 32.2519C49.6337 33.085 49.4676 33.8949 49.2939 34.6739C48.9089 36.3786 48.3503 38.0292 47.6255 39.5719C46.6668 41.6005 45.5872 43.3283 44.3265 44.8478C43.6395 45.6731 42.8996 46.5293 42.0692 47.3083C42.8317 46.8224 43.5942 46.3365 44.3566 45.8505L44.9002 45.5034C45.9118 44.8555 46.9234 44.2076 47.935 43.5597C48.1917 43.3977 48.4107 43.2434 48.5616 43.0043C48.9618 42.3564 49.3166 41.6622 49.6412 40.8754C49.7997 40.4898 49.8677 40.1041 49.845 39.7107C49.8299 39.4176 49.8299 39.1245 49.8299 38.8391C49.8299 38.7157 49.8299 38.5923 49.8299 38.4689L49.8073 36.502C49.7846 35.0904 49.7695 33.6712 49.7544 32.2519ZM1.29507 33.8254C1.30262 34.751 1.31772 35.7075 1.32527 36.6485C1.32527 37.1807 1.32527 37.713 1.32527 38.2375C1.32527 38.9085 1.32527 39.595 1.33281 40.2738C1.33281 40.5437 1.37811 40.7829 1.46115 40.9603C1.76313 41.6313 2.08775 42.2947 2.43502 42.9426C2.52561 43.1123 2.68415 43.282 2.87288 43.4054C3.69577 43.9453 4.5413 44.4853 5.35663 44.9943L5.55291 45.1177C6.50413 45.7194 7.4478 46.3133 8.40657 46.9072C7.01749 45.5266 5.77184 43.9608 4.70738 42.2484C3.83165 40.8446 3.06917 39.271 2.43502 37.5741C1.93676 36.232 1.55175 34.805 1.29507 33.3241C1.28752 33.4861 1.28752 33.6557 1.29507 33.8254ZM41.4803 9.82157C41.654 9.96812 41.8201 10.1224 41.9861 10.2767C44.183 12.3284 45.9949 14.7812 47.3688 17.5657C48.0105 18.8616 48.5314 20.2346 48.9316 21.6307C49.2486 22.7645 49.4751 23.7364 49.6261 24.6543C49.611 22.1475 49.5884 19.5558 49.5582 17.0104C49.5582 16.7867 49.4902 16.5244 49.3694 16.2159C49.0901 15.5371 48.6975 14.9201 48.2521 14.249C48.0407 13.9251 47.8067 13.6937 47.5274 13.524C46.9914 13.2 46.4554 12.8683 45.9194 12.5367L44.3868 11.5956C43.4356 11.0171 42.4618 10.4232 41.4803 9.82157ZM8.28578 10.8629C8.11214 10.9709 7.93851 11.0711 7.76487 11.1791C7.07788 11.6033 6.39089 12.0276 5.7039 12.4595C4.94141 12.93 4.17893 13.4083 3.41644 13.8788C3.06917 14.0947 2.72945 14.3416 2.51806 14.7272C2.43502 14.8815 2.35198 15.0358 2.26894 15.1978C2.03491 15.6297 1.79333 16.0771 1.58194 16.5244C1.42341 16.8561 1.25732 17.2572 1.26487 17.7046C1.27242 19.6329 1.26487 21.5921 1.26487 23.4819V24.5232C1.30262 24.2841 1.34791 24.0449 1.39321 23.8135C1.88392 21.1756 2.85024 18.6225 4.34501 16.0077C5.41702 14.1179 6.74571 12.3901 8.28578 10.8629ZM26.0494 3.74346C26.1249 3.74346 26.2004 3.74346 26.2759 3.74346C27.2498 3.75889 28.2614 3.85145 29.3712 4.02886C29.7033 4.08285 30.0355 4.15998 30.3601 4.2294C30.5715 4.27568 30.7904 4.32968 31.0018 4.36824C32.1418 4.59193 33.1987 4.96988 34.0971 5.31698C34.0216 5.2707 33.9536 5.23214 33.8781 5.18586C33.4856 4.95446 33.0854 4.71534 32.6853 4.47623C31.3189 3.64319 29.9751 2.82558 28.6464 1.99254C28.1784 1.69943 27.7329 1.55288 27.2422 1.52203C26.3892 1.46803 25.7324 1.44489 25.1284 1.44489C24.6 1.44489 24.1092 1.46032 23.6487 1.49889C23.4902 1.51431 23.3166 1.56059 23.158 1.63001C23.0297 1.69172 22.9014 1.77657 22.773 1.86141C22.7126 1.89998 22.6522 1.93855 22.5918 1.97711L21.3537 2.74073C20.3119 3.38094 19.2777 4.02886 18.2358 4.67678C18.0924 4.76934 17.949 4.85418 17.8055 4.94674C18.8926 4.55336 20.1232 4.25254 21.6331 4.00572C22.7126 3.82831 23.7922 3.73575 24.8491 3.72804C24.9472 3.72804 25.0378 3.71261 25.1511 3.69719C25.1662 3.69719 25.1813 3.68947 25.1964 3.68947V3.59691L25.4077 3.68176C25.4379 3.69719 25.4757 3.7049 25.5134 3.7049C25.5436 3.7049 25.5738 3.69718 25.5965 3.68947L25.7701 3.63548L25.7852 3.74346C25.8079 3.74346 25.989 3.74346 26.0494 3.74346Z" fill="black"/>
<path d="M16.4435 5.69525H16.4208L16.3906 5.42529L16.5265 5.38672L16.5643 5.53327L16.6549 5.65669C16.6398 5.6644 16.6096 5.69525 16.5567 5.69525H16.4435Z" fill="black"/>
<path d="M40.4289 48.5732L40.4062 48.2878L40.5572 48.2646L40.595 48.5732H40.5874H40.5723H40.4289Z" fill="black"/>
<path d="M40.5636 48.5812L40.4579 48.5735L40.4277 48.4655C40.4202 48.4346 40.4051 48.3575 40.4957 48.2881L40.6693 48.5426C40.6542 48.5581 40.624 48.5812 40.5712 48.5812C40.5636 48.5812 40.5636 48.5812 40.5636 48.5812Z" fill="black"/>
<path d="M35.6953 51.3661L35.7406 51.2812L36.1558 51.127L35.9746 51.5126L35.9293 51.5512L35.6953 51.3661Z" fill="black"/>
<path d="M9.43671 47.8713L9.41406 47.8328L9.66319 47.6631L9.69339 47.7017L9.71604 47.7402L9.45936 47.9022L9.43671 47.8713Z" fill="black"/>
<path d="M25.3731 49.5527C24.1351 49.5527 22.8743 49.4293 21.6136 49.1747C18.9637 48.6502 16.4875 47.6089 14.2454 46.0817C12.2675 44.7319 10.5386 43.0272 9.10427 41.0063C8.09265 39.5793 7.26222 38.0367 6.65072 36.4246C6.00903 34.7508 5.60891 33.1542 5.42018 31.5498C5.37488 31.1333 5.34468 30.7013 5.31449 30.2925C5.29939 30.0611 5.27674 29.822 5.26164 29.5906C5.25409 29.4903 5.23899 29.39 5.22389 29.2821C5.21635 29.2126 5.20125 29.1355 5.1937 29.0661C5.18615 28.9812 5.17105 28.8964 5.18615 28.8038C5.1937 28.6958 5.2088 28.5879 5.22389 28.4799C5.24654 28.3025 5.26164 28.1405 5.26919 27.9708C5.37488 25.5102 5.92599 23.042 6.9225 20.6354C7.70009 18.7457 8.77965 16.9947 10.2216 15.2592C11.3691 13.8863 12.7431 12.6598 14.419 11.5183C15.9515 10.477 17.6728 9.64393 19.5224 9.05772C21.2436 8.51007 23.0479 8.20925 24.9051 8.14755C24.9957 8.14755 25.0787 8.13983 25.1693 8.13212H25.1995L25.2297 8.13983C25.2524 8.14755 25.2826 8.15526 25.3128 8.15526C25.3505 8.15526 25.3807 8.14755 25.4109 8.13212L25.5241 8.07812L25.5996 8.1784C25.6223 8.20154 25.6449 8.22468 25.6751 8.24011L25.7657 8.27867V8.7029C25.7657 8.91888 25.7657 9.13485 25.7733 9.35854C25.7733 9.46652 25.7808 9.57451 25.7884 9.69792C25.7884 9.71335 25.7884 9.73649 25.7959 9.75192C30.8842 9.9139 35.2251 11.8037 38.6978 15.3595C42.1478 18.8999 43.9974 23.3814 44.1862 28.6958V28.7267L44.1786 28.7576L44.1711 28.7807C44.156 28.8347 44.1711 28.9041 44.2013 28.9658L44.3221 29.1895H44.1862C43.9748 34.4191 42.1252 38.8466 38.6902 42.3484C35.1571 45.9506 30.7634 47.8326 25.6223 47.9329H25.5921L25.5619 47.9252C25.5392 47.9175 25.5166 47.9097 25.5015 47.9097C25.4637 47.9097 25.426 47.9175 25.3958 47.9329L25.3581 47.9483L25.1995 47.9329C25.1165 47.9252 25.0485 47.9175 24.973 47.9097C24.7541 47.8943 24.5352 47.8789 24.3238 47.8635C23.8708 47.8326 23.3952 47.8018 22.9347 47.7401C20.4434 47.3775 18.1333 46.5522 16.0572 45.3026C13.2262 43.5903 10.9614 41.2454 9.33075 38.3298C8.50032 36.8488 7.86617 35.283 7.45096 33.6787C7.05084 32.1283 6.84701 30.4622 6.86211 28.719C6.87721 26.513 7.20938 24.4998 7.87372 22.5792C8.67395 20.2729 9.84411 18.2057 11.3389 16.4162C12.66 14.8427 14.2076 13.5083 15.9364 12.4439C17.5973 11.4257 19.3563 10.6929 21.1606 10.2687C22.3006 9.99874 23.3877 9.84448 24.4748 9.7982C24.5201 9.7982 24.5578 9.7982 24.6031 9.79048C24.8069 9.78277 25.0108 9.77506 25.2071 9.72106C25.2222 9.36625 25.2373 9.00372 25.1844 8.61806C19.5979 8.84174 14.8493 11.0246 11.0596 15.1127C7.20938 19.2702 5.66931 24.9703 5.85049 28.5879H5.91844L5.87314 28.7807C5.86559 28.8038 5.86559 28.8193 5.86559 28.827C5.86559 28.8733 5.88069 28.9118 5.90334 28.9504L6.03168 29.1664L5.81275 29.1818C5.85049 36.4246 9.82146 43.0966 16.2007 46.6139C19.0694 48.1951 22.2855 49.0359 25.509 49.0359C29.8726 49.0359 34.1908 47.5009 37.6786 44.7087C40.789 42.225 43.0009 38.9931 44.2692 35.1056C44.8883 33.2081 45.2053 31.2104 45.228 29.1741H44.9789L45.2431 28.9118C45.2808 28.8733 45.311 28.8193 45.311 28.7653L45.3261 28.5879L45.4922 28.6264C45.5451 28.6419 45.5828 28.6496 45.6205 28.665L45.7111 28.6958L45.7262 28.7884C45.7262 28.8038 45.7338 28.8193 45.7338 28.8347C45.7413 28.8733 45.7489 28.9195 45.7489 28.9658C45.7036 30.5856 45.5753 31.8815 45.3337 33.0539C45.0242 34.5425 44.5787 35.9464 44.0125 37.2191C43.3331 38.7386 42.5706 40.0576 41.6873 41.2609C40.4115 42.9886 38.8865 44.5082 37.1577 45.7577C35.9574 46.6216 34.6211 47.3621 33.0584 48.0177C31.843 48.5268 30.703 48.8739 29.5706 49.0976C28.8459 49.2364 28.0607 49.3521 27.2454 49.437C26.6037 49.5218 25.9846 49.5527 25.3731 49.5527ZM25.3581 10.3381C25.2146 10.3381 25.0712 10.3381 24.9277 10.3458C22.9725 10.3998 21.0549 10.7701 19.2204 11.4643C16.6989 12.413 14.4568 13.9017 12.5619 15.884C10.7651 17.7583 9.40624 19.9566 8.51542 22.4249C8.01716 23.7979 7.68499 25.2403 7.5038 26.8447C7.33017 28.3179 7.36036 29.8374 7.5793 31.4881C7.77558 32.9767 8.1606 34.4346 8.71925 35.8307C9.36095 37.435 10.2216 38.9391 11.2709 40.3044C12.6676 42.117 14.3511 43.6211 16.2762 44.7858C17.3331 45.4261 18.4428 45.9583 19.5903 46.3671C20.5038 46.6987 21.4324 46.907 22.2326 47.0613C23.2744 47.2695 24.354 47.3698 25.5392 47.3698C25.7884 47.3698 26.0375 47.3621 26.2942 47.3544C27.3662 47.3158 28.3929 47.1307 29.2535 46.9533C30.854 46.6293 32.4469 46.0354 33.9719 45.1947C35.9272 44.1225 37.6409 42.7341 39.0752 41.0603C39.8528 40.1578 40.4266 39.3711 40.8871 38.592C41.8912 36.9028 42.6235 35.0902 43.0689 33.2081C43.3784 31.9123 43.552 30.5625 43.5973 29.1972C43.5973 29.1895 43.5898 29.1586 43.5822 29.1355L43.5747 29.0969L43.5596 29.0429L43.5822 28.9967C43.6124 28.9272 43.62 28.8424 43.5898 28.7653L43.5747 28.7344V28.6958C43.5747 28.6496 43.5822 28.6033 43.5822 28.557C43.5898 28.4336 43.6049 28.3102 43.5898 28.2022L43.552 27.8165C43.4841 27.1532 43.4161 26.4667 43.318 25.7956C43.0387 23.9059 42.4196 22.0161 41.4759 20.1726C40.789 18.8382 39.9057 17.5732 38.7657 16.2928C36.818 14.1099 34.4173 12.467 31.624 11.4103C30.9672 11.1635 30.25 10.9552 29.4347 10.7701C28.7326 10.6158 27.9701 10.4924 27.185 10.4153C26.5584 10.369 25.9469 10.3381 25.3581 10.3381Z" fill="black"/>
</g>
<defs>
<clipPath id="clip0_2848_6239">
<rect width="49.7277" height="56.0759" fill="white" transform="translate(0.695312 0.8125)"/>
</clipPath>
</defs>
</svg>
