<svg width="70" height="26" viewBox="0 0 70 26" fill="none" xmlns="http://www.w3.org/2000/svg">
<circle cx="5" cy="5" r="4.25" transform="matrix(-1 0 0 1 42 0)" fill="white" stroke="#007CBE" stroke-width="1.5"/>
<circle cx="5" cy="5" r="4.25" transform="matrix(-1 0 0 1 42 16)" fill="white" stroke="#007CBE" stroke-width="1.5"/>
<circle cx="10" cy="10" r="9.25" transform="matrix(-1 0 0 1 70 3)" fill="white" stroke="#007CBE" stroke-width="1.5"/>
<circle cx="5" cy="5" r="4.25" transform="matrix(-1 0 0 1 26 0)" fill="white" stroke="#007CBE" stroke-width="1.5"/>
<circle cx="5" cy="5" r="4.25" transform="matrix(-1 0 0 1 26 16)" fill="white" stroke="#007CBE" stroke-width="1.5"/>
<circle cx="5" cy="5" r="4.25" transform="matrix(-1 0 0 1 10 0)" fill="white" stroke="#007CBE" stroke-width="1.5"/>
<circle cx="5" cy="5" r="4.25" transform="matrix(-1 0 0 1 10 16)" fill="white" stroke="#007CBE" stroke-width="1.5"/>
</svg>
