<svg width="83" height="153" viewBox="0 0 83 153" fill="none" xmlns="http://www.w3.org/2000/svg">
<g clip-path="url(#clip0_2864_11784)">
<path fill-rule="evenodd" clip-rule="evenodd" d="M27.0545 29.6601H44.3091L44.3091 10.4881H51.3385L51.3331 12.4054L62.8358 12.4054L62.8358 1.54143H78.1731L82.0078 3.45876L81.6878 150.035L78.4651 151.719H62.8358L62.8358 140.855L51.3385 140.855V142.772H44.3091L44.3091 124.339H27.0545L27.0545 144.051H15.5518L15.5518 124.339H4.68781L0.853149 121.783L0.853149 32.2161L4.68781 29.6601H15.5518L15.5518 9.84943H27.0545L27.0545 29.6601Z" fill="white" fill-opacity="0.358387"/>
<path d="M27.0545 29.6601H44.3091L44.3091 10.4881H51.3385L51.3331 12.4054L62.8358 12.4054L62.8358 1.54143H78.1731L82.0078 3.45876L81.6878 150.035L78.4651 151.719H62.8358L62.8358 140.855L51.3385 140.855V142.772H44.3091L44.3091 124.339H27.0545L27.0545 144.051H15.5518L15.5518 124.339H4.68781L0.853147 121.783L0.853147 32.2161L4.68781 29.6601H15.5518L15.5518 9.84942H27.0545L27.0545 29.6601Z" stroke="black" stroke-miterlimit="10" stroke-linejoin="round"/>
<mask id="mask0_2864_11784" style="mask-type:luminance" maskUnits="userSpaceOnUse" x="0" y="1" width="83" height="151">
<path fill-rule="evenodd" clip-rule="evenodd" d="M27.0545 29.6601H44.3091L44.3091 10.4881H51.3385L51.3332 12.4054L62.8358 12.4054L62.8358 1.54143H78.1732L82.0078 3.45876L81.6878 150.035L78.4651 151.719H62.8358L62.8358 140.855L51.3385 140.855V142.772H44.3091L44.3091 124.339H27.0545L27.0545 144.051H15.5518L15.5518 124.339H4.68781L0.853134 121.783L0.853134 32.2161L4.68781 29.6601H15.5518L15.5518 9.84941H27.0545L27.0545 29.6601Z" fill="white"/>
</mask>
<g mask="url(#mask0_2864_11784)">
<path fill-rule="evenodd" clip-rule="evenodd" d="M44.3047 121.328L44.3047 32.3201L0.848675 32.3201L0.848675 121.328L44.3047 121.328Z" fill="white" stroke="black" stroke-miterlimit="10" stroke-linejoin="round"/>
<path fill-rule="evenodd" clip-rule="evenodd" d="M44.3047 124.336L44.3047 29.5999L4.68335 29.5999L4.68335 124.336L44.3047 124.336Z" stroke="black" stroke-miterlimit="10" stroke-linejoin="round"/>
<path fill-rule="evenodd" clip-rule="evenodd" d="M78.1642 151.719H62.8083L62.8083 1.68675L78.1642 1.6001L81.6563 3.20808L81.6562 150.044L78.1642 151.719Z" fill="white" stroke="black" stroke-miterlimit="10" stroke-linejoin="round"/>
<path fill-rule="evenodd" clip-rule="evenodd" d="M62.8087 44.3288L78.1647 44.3288C82.5861 65.8328 82.5541 87.4528 78.1647 109.188L62.8087 109.187L62.8087 44.3288Z" fill="white" stroke="black" stroke-miterlimit="10" stroke-linejoin="round"/>
<path fill-rule="evenodd" clip-rule="evenodd" d="M78.1642 151.719H62.8083L62.8083 119.225L78.1642 119.225C80.5136 126.663 81.4803 142.423 81.6562 149.896L78.1642 151.719Z" fill="white" stroke="black" stroke-miterlimit="10" stroke-linejoin="round"/>
<path fill-rule="evenodd" clip-rule="evenodd" d="M62.8083 34.2891L78.1643 34.2891C80.5136 26.8531 81.4803 10.7384 81.6563 3.26506L78.1643 1.5984L62.8083 1.5984L62.8083 34.2891Z" fill="white" stroke="black" stroke-miterlimit="10" stroke-linejoin="round"/>
<path fill-rule="evenodd" clip-rule="evenodd" d="M78.1641 44.3281V34.2908L62.8094 34.2908L62.8094 44.3281L78.1641 44.3281Z" fill="white" stroke="black" stroke-miterlimit="10" stroke-linejoin="round"/>
<path fill-rule="evenodd" clip-rule="evenodd" d="M78.1641 119.227V109.189L62.8094 109.189L62.8094 119.227L78.1641 119.227Z" fill="white" stroke="black" stroke-miterlimit="10" stroke-linejoin="round"/>
<path fill-rule="evenodd" clip-rule="evenodd" d="M51.3359 142.773L51.3359 10.5841H44.3066L44.3066 142.773H51.3359Z" fill="white" stroke="black" stroke-miterlimit="10" stroke-linejoin="round"/>
<path fill-rule="evenodd" clip-rule="evenodd" d="M27.0547 37.5938L27.0547 9.84709L15.552 9.84709L15.552 37.5937L27.0547 37.5938Z" fill="white" stroke="black" stroke-miterlimit="10" stroke-linejoin="round"/>
<path fill-rule="evenodd" clip-rule="evenodd" d="M27.0547 143.93L27.0547 116.57H15.552L15.552 143.93H27.0547Z" fill="white" stroke="black" stroke-miterlimit="10" stroke-linejoin="round"/>
<path fill-rule="evenodd" clip-rule="evenodd" d="M27.0547 121.414L27.0547 32.4061H15.552L15.552 121.414H27.0547Z" stroke="black" stroke-miterlimit="10" stroke-linejoin="round"/>
</g>
</g>
<defs>
<clipPath id="clip0_2864_11784">
<rect width="153" height="83" fill="white" transform="matrix(0 -1 1 0 0 153)"/>
</clipPath>
</defs>
</svg>
