<svg width="20" height="20" viewBox="0 0 20 20" fill="none" xmlns="http://www.w3.org/2000/svg">
<g clip-path="url(#clip0_2873_12073)">
<path d="M10.0079 1.0166e-05C15.504 0.00782266 20.0196 4.53516 20 10.0195C19.9805 15.5117 15.4727 20.0078 9.99224 20C4.49615 19.9922 -0.0194681 15.4648 6.31209e-05 9.98047C0.0195944 4.48829 4.5274 -0.00780233 10.0079 1.0166e-05ZM4.4649 10.1602C5.90631 11.6016 7.35943 13.0586 8.82037 14.5195C11.2227 12.3359 13.6368 10.1406 16.0625 7.9336C15.5313 7.34766 15.0118 6.77735 14.4844 6.20313C12.6055 7.91406 10.7383 9.60938 8.85162 11.3203C7.91021 10.3789 6.98443 9.45703 6.07428 8.54688C5.53131 9.09375 4.98443 9.64063 4.4649 10.1602Z" fill="#1FA956"/>
</g>
<defs>
<clipPath id="clip0_2873_12073">
<rect width="20" height="20" fill="white"/>
</clipPath>
</defs>
</svg>
