<svg width="12" height="79" viewBox="0 0 12 79" fill="none" xmlns="http://www.w3.org/2000/svg">
<path d="M11.0962 0.578125H0.765625V77.5496H11.0962V0.578125Z" fill="white"/>
<mask id="mask0_2739_18339" style="mask-type:luminance" maskUnits="userSpaceOnUse" x="0" y="0" width="12" height="78">
<path d="M11.0962 0.578125H0.765625V77.5496H11.0962V0.578125Z" fill="white"/>
</mask>
<g mask="url(#mask0_2739_18339)">
<path opacity="0.3584" d="M9.19099 1.84766H0.765625V3.75289H9.19099V1.84766Z" fill="white"/>
<path d="M9.19099 1.84766H0.765625V3.75289H9.19099V1.84766Z" stroke="black" stroke-miterlimit="10" stroke-linejoin="round"/>
</g>
<mask id="mask1_2739_18339" style="mask-type:luminance" maskUnits="userSpaceOnUse" x="0" y="0" width="12" height="78">
<path d="M11.0962 0.578125H0.765625V77.5496H11.0962V0.578125Z" fill="white"/>
</mask>
<g mask="url(#mask1_2739_18339)">
<path opacity="0.3584" d="M11.0972 70.4375H2.67188V72.3427H11.0972V70.4375Z" fill="white"/>
<path d="M11.0972 70.4375H2.67188V72.3427H11.0972V70.4375Z" stroke="black" stroke-miterlimit="10" stroke-linejoin="round"/>
</g>
<mask id="mask2_2739_18339" style="mask-type:luminance" maskUnits="userSpaceOnUse" x="0" y="0" width="12" height="78">
<path d="M11.0962 0.578125H0.765625V77.5496H11.0962V0.578125Z" fill="white"/>
</mask>
<g mask="url(#mask2_2739_18339)">
<path opacity="0.3584" d="M11.0972 5.6582H2.67188V7.56344H11.0972V5.6582Z" fill="white"/>
<path d="M11.0972 5.6582H2.67188V7.56344H11.0972V5.6582Z" stroke="black" stroke-miterlimit="10" stroke-linejoin="round"/>
</g>
<mask id="mask3_2739_18339" style="mask-type:luminance" maskUnits="userSpaceOnUse" x="0" y="0" width="12" height="78">
<path d="M11.0962 0.578125H0.765625V77.5496H11.0962V0.578125Z" fill="white"/>
</mask>
<g mask="url(#mask3_2739_18339)">
<path opacity="0.3584" d="M9.19099 74.248H0.765625V76.1533H9.19099V74.248Z" fill="white"/>
<path d="M9.19099 74.248H0.765625V76.1533H9.19099V74.248Z" stroke="black" stroke-miterlimit="10" stroke-linejoin="round"/>
</g>
<mask id="mask4_2739_18339" style="mask-type:luminance" maskUnits="userSpaceOnUse" x="0" y="0" width="12" height="78">
<path d="M11.0962 0.578125H0.765625V77.5496H11.0962V0.578125Z" fill="white"/>
</mask>
<g mask="url(#mask4_2739_18339)">
<path opacity="0.3584" d="M11.0962 9.46875H0.765625V68.531H11.0962V9.46875Z" fill="white"/>
<path d="M11.0962 9.46875H0.765625V68.531H11.0962V9.46875Z" stroke="black" stroke-miterlimit="10" stroke-linejoin="round"/>
</g>
<mask id="mask5_2739_18339" style="mask-type:luminance" maskUnits="userSpaceOnUse" x="0" y="0" width="12" height="78">
<path d="M11.0962 0.578125H0.765625V77.5496H11.0962V0.578125Z" fill="white"/>
</mask>
<g mask="url(#mask5_2739_18339)">
<path opacity="0.3584" fill-rule="evenodd" clip-rule="evenodd" d="M9.35934 30.2142H10.2908V47.7H9.18998L9.23233 55.5326H2.41581V47.7423H1.48438V30.2565L2.5005 30.1719L2.45816 22.2969H9.35934V30.2142Z" fill="white"/>
<path d="M9.35934 30.2142H10.2908V47.7H9.18998L9.23233 55.5326H2.41581V47.7423H1.48438V30.2565L2.5005 30.1719L2.45816 22.2969H9.35934V30.2142Z" stroke="black" stroke-miterlimit="10" stroke-linejoin="round"/>
</g>
<mask id="mask6_2739_18339" style="mask-type:luminance" maskUnits="userSpaceOnUse" x="0" y="0" width="12" height="78">
<path d="M11.0962 0.578125H0.765625V77.5496H11.0962V0.578125Z" fill="white"/>
</mask>
<g mask="url(#mask6_2739_18339)">
<path opacity="0.3584" fill-rule="evenodd" clip-rule="evenodd" d="M6.05444 14.168C7.95967 14.168 9.48385 15.6922 9.48385 17.5974C9.48385 19.4603 7.91733 21.0268 6.05444 21.0268C4.19154 21.0268 2.625 19.5026 2.625 17.5974C2.625 15.6922 4.1492 14.168 6.05444 14.168Z" fill="white"/>
<path d="M6.05444 14.168C7.95967 14.168 9.48385 15.6922 9.48385 17.5974C9.48385 19.4603 7.91733 21.0268 6.05444 21.0268C4.19154 21.0268 2.625 19.5026 2.625 17.5974C2.625 15.6922 4.1492 14.168 6.05444 14.168Z" stroke="black" stroke-miterlimit="10" stroke-linejoin="round"/>
</g>
<mask id="mask7_2739_18339" style="mask-type:luminance" maskUnits="userSpaceOnUse" x="0" y="0" width="12" height="78">
<path d="M11.0962 0.578125H0.765625V77.5496H11.0962V0.578125Z" fill="white"/>
</mask>
<g mask="url(#mask7_2739_18339)">
<path opacity="0.3584" fill-rule="evenodd" clip-rule="evenodd" d="M5.93092 36.3125C7.32809 36.3125 8.47124 37.4556 8.47124 38.8528C8.47124 40.25 7.32809 41.3931 5.93092 41.3931C4.53375 41.3931 3.39062 40.25 3.39062 38.8528C3.39062 37.4133 4.53375 36.3125 5.93092 36.3125Z" fill="white"/>
<path d="M5.93092 36.3125C7.3281 36.3125 8.47124 37.4556 8.47124 38.8528C8.47124 40.25 7.3281 41.3931 5.93092 41.3931C4.53375 41.3931 3.39062 40.25 3.39062 38.8528C3.39062 37.4133 4.53375 36.3125 5.93092 36.3125Z" stroke="black" stroke-miterlimit="10" stroke-linejoin="round"/>
</g>
<mask id="mask8_2739_18339" style="mask-type:luminance" maskUnits="userSpaceOnUse" x="0" y="0" width="12" height="78">
<path d="M11.0962 0.578125H0.765625V77.5496H11.0962V0.578125Z" fill="white"/>
</mask>
<g mask="url(#mask8_2739_18339)">
<path opacity="0.3584" fill-rule="evenodd" clip-rule="evenodd" d="M5.93092 62.7734C7.32809 62.7734 8.47124 63.9166 8.47124 65.3137C8.47124 66.7109 7.32809 67.8541 5.93092 67.8541C4.53375 67.8541 3.39062 66.7109 3.39062 65.3137C3.39062 63.9166 4.53375 62.7734 5.93092 62.7734Z" fill="white"/>
<path d="M5.93092 62.7734C7.3281 62.7734 8.47124 63.9166 8.47124 65.3137C8.47124 66.7109 7.3281 67.8541 5.93092 67.8541C4.53375 67.8541 3.39062 66.7109 3.39062 65.3137C3.39062 63.9166 4.53375 62.7734 5.93092 62.7734Z" stroke="black" stroke-miterlimit="10" stroke-linejoin="round"/>
</g>
<mask id="mask9_2739_18339" style="mask-type:luminance" maskUnits="userSpaceOnUse" x="0" y="0" width="12" height="78">
<path d="M11.0962 0.578125H0.765625V77.5496H11.0962V0.578125Z" fill="white"/>
</mask>
<g mask="url(#mask9_2739_18339)">
<path opacity="0.3584" d="M8.51687 57.0156H3.35156V62.1386H8.51687V57.0156Z" fill="white"/>
</g>
<mask id="mask10_2739_18339" style="mask-type:luminance" maskUnits="userSpaceOnUse" x="0" y="0" width="12" height="78">
<path d="M11.0962 0.578125H0.765625V77.5496H11.0962V0.578125Z" fill="white"/>
</mask>
<g mask="url(#mask10_2739_18339)">
<path opacity="0.3584" d="M7.7505 57.4805H4.10938V61.672H7.7505V57.4805Z" fill="white"/>
<path d="M7.7505 57.4805H4.10938V61.672H7.7505V57.4805Z" stroke="black" stroke-miterlimit="10" stroke-linejoin="round"/>
</g>
<mask id="mask11_2739_18339" style="mask-type:luminance" maskUnits="userSpaceOnUse" x="0" y="0" width="12" height="78">
<path d="M11.0962 0.578125H0.765625V77.5496H11.0962V0.578125Z" fill="white"/>
</mask>
<g mask="url(#mask11_2739_18339)">
<path d="M8.51687 57.0156H3.35156V62.1386H8.51687V57.0156Z" stroke="black" stroke-miterlimit="10" stroke-linejoin="round"/>
</g>
<path d="M11.0962 0.578125H0.765625V77.5496H11.0962V0.578125Z" stroke="black" stroke-miterlimit="10" stroke-linejoin="round"/>
</svg>
