<svg width="9" height="79" viewBox="0 0 9 79" fill="none" xmlns="http://www.w3.org/2000/svg">
<rect x="1.60156" y="0.330078" width="6.60643" height="77.3896" fill="url(#paint0_linear_2726_18126)"/>
<mask id="mask0_2726_18126" style="mask-type:luminance" maskUnits="userSpaceOnUse" x="1" y="0" width="7" height="78">
<path d="M7.68091 0.560547H1.20312V77.532H7.68091V0.560547Z" fill="white"/>
</mask>
<g mask="url(#mask0_2726_18126)">
<path opacity="0.3584" d="M7.6832 1.83008H1.88281V3.73531H7.6832V1.83008Z" fill="white"/>
<path d="M7.6832 1.83008H1.88281V3.73531H7.6832V1.83008Z" stroke="black" stroke-miterlimit="10" stroke-linejoin="round"/>
</g>
<mask id="mask1_2726_18126" style="mask-type:luminance" maskUnits="userSpaceOnUse" x="1" y="0" width="7" height="78">
<path d="M7.68091 0.560547H1.20312V77.532H7.68091V0.560547Z" fill="white"/>
</mask>
<g mask="url(#mask1_2726_18126)">
<path opacity="0.3584" d="M7.6832 66.6094H1.88281V68.5146H7.6832V66.6094Z" fill="white"/>
<path d="M7.6832 66.6094H1.88281V68.5146H7.6832V66.6094Z" stroke="black" stroke-miterlimit="10" stroke-linejoin="round"/>
</g>
<mask id="mask2_2726_18126" style="mask-type:luminance" maskUnits="userSpaceOnUse" x="1" y="0" width="7" height="78">
<path d="M7.68091 0.560547H1.20312V77.532H7.68091V0.560547Z" fill="white"/>
</mask>
<g mask="url(#mask2_2726_18126)">
<path opacity="0.3584" d="M7.6832 5.64062H1.88281V7.54586H7.6832V5.64062Z" fill="white"/>
<path d="M7.6832 5.64062H1.88281V7.54586H7.6832V5.64062Z" stroke="black" stroke-miterlimit="10" stroke-linejoin="round"/>
</g>
<mask id="mask3_2726_18126" style="mask-type:luminance" maskUnits="userSpaceOnUse" x="1" y="0" width="7" height="78">
<path d="M7.68091 0.560547H1.20312V77.532H7.68091V0.560547Z" fill="white"/>
</mask>
<g mask="url(#mask3_2726_18126)">
<path opacity="0.3584" d="M7.6832 70.4199H1.88281V72.3252H7.6832V70.4199Z" fill="white"/>
<path d="M7.6832 70.4199H1.88281V72.3252H7.6832V70.4199Z" stroke="black" stroke-miterlimit="10" stroke-linejoin="round"/>
</g>
<mask id="mask4_2726_18126" style="mask-type:luminance" maskUnits="userSpaceOnUse" x="1" y="0" width="7" height="78">
<path d="M7.68091 0.560547H1.20312V77.532H7.68091V0.560547Z" fill="white"/>
</mask>
<g mask="url(#mask4_2726_18126)">
<path opacity="0.3584" d="M7.6832 9.45117H1.88281V11.3564H7.6832V9.45117Z" fill="white"/>
<path d="M7.6832 9.45117H1.88281V11.3564H7.6832V9.45117Z" stroke="black" stroke-miterlimit="10" stroke-linejoin="round"/>
</g>
<mask id="mask5_2726_18126" style="mask-type:luminance" maskUnits="userSpaceOnUse" x="1" y="0" width="7" height="78">
<path d="M7.68091 0.560547H1.20312V77.532H7.68091V0.560547Z" fill="white"/>
</mask>
<g mask="url(#mask5_2726_18126)">
<path opacity="0.3584" d="M7.6832 74.2305H1.88281V76.1357H7.6832V74.2305Z" fill="white"/>
<path d="M7.6832 74.2305H1.88281V76.1357H7.6832V74.2305Z" stroke="black" stroke-miterlimit="10" stroke-linejoin="round"/>
</g>
<mask id="mask6_2726_18126" style="mask-type:luminance" maskUnits="userSpaceOnUse" x="1" y="0" width="7" height="78">
<path d="M7.68091 0.560547H1.20312V77.532H7.68091V0.560547Z" fill="white"/>
</mask>
<g mask="url(#mask6_2726_18126)">
<path opacity="0.3584" d="M7.68091 13.8125H1.20312V64.4494H7.68091V13.8125Z" fill="white"/>
<path d="M7.68091 13.8125H1.20312V64.4494H7.68091V13.8125Z" stroke="black" stroke-miterlimit="10" stroke-linejoin="round"/>
</g>
<mask id="mask7_2726_18126" style="mask-type:luminance" maskUnits="userSpaceOnUse" x="1" y="0" width="7" height="78">
<path d="M7.68091 0.560547H1.20312V77.532H7.68091V0.560547Z" fill="white"/>
</mask>
<g mask="url(#mask7_2726_18126)">
<path opacity="0.3584" fill-rule="evenodd" clip-rule="evenodd" d="M2.13458 30.3242H1.20312V47.81H2.30392L2.26159 55.6426H6.74946L6.79182 47.8947L7.68091 47.8523V30.4089L6.70713 30.3242V22.4492H2.09222L2.13458 30.3242Z" fill="white"/>
<path d="M2.13458 30.3242H1.20312V47.81H2.30392L2.26159 55.6426H6.74946L6.79182 47.8947L7.68091 47.8523V30.4089L6.70713 30.3242V22.4492H2.09222L2.13458 30.3242Z" stroke="black" stroke-miterlimit="10" stroke-linejoin="round"/>
</g>
<mask id="mask8_2726_18126" style="mask-type:luminance" maskUnits="userSpaceOnUse" x="1" y="0" width="7" height="78">
<path d="M7.68091 0.560547H1.20312V77.532H7.68091V0.560547Z" fill="white"/>
</mask>
<g mask="url(#mask8_2726_18126)">
<path opacity="0.3584" d="M4.42211 40.783C5.42758 40.783 6.24269 39.9869 6.24269 39.0048C6.24269 38.0227 5.42758 37.2266 4.42211 37.2266C3.41665 37.2266 2.60156 38.0227 2.60156 39.0048C2.60156 39.9869 3.41665 40.783 4.42211 40.783Z" fill="white"/>
<path d="M4.42211 40.783C5.42758 40.783 6.24269 39.9869 6.24269 39.0048C6.24269 38.0227 5.42758 37.2266 4.42211 37.2266C3.41665 37.2266 2.60156 38.0227 2.60156 39.0048C2.60156 39.9869 3.41665 40.783 4.42211 40.783Z" stroke="black" stroke-miterlimit="10" stroke-linejoin="round"/>
</g>
<mask id="mask9_2726_18126" style="mask-type:luminance" maskUnits="userSpaceOnUse" x="1" y="0" width="7" height="78">
<path d="M7.68091 0.560547H1.20312V77.532H7.68091V0.560547Z" fill="white"/>
</mask>
<g mask="url(#mask9_2726_18126)">
<path opacity="0.3506" d="M7.00124 31.2988H1.83594V46.7101H7.00124V31.2988Z" fill="#EBEBEB"/>
<path d="M7.00124 31.2988H1.83594V46.7101H7.00124V31.2988Z" stroke="black" stroke-miterlimit="10" stroke-linecap="round" stroke-linejoin="round"/>
</g>
<mask id="mask10_2726_18126" style="mask-type:luminance" maskUnits="userSpaceOnUse" x="1" y="0" width="7" height="78">
<path d="M7.68091 0.560547H1.20312V77.532H7.68091V0.560547Z" fill="white"/>
</mask>
<g mask="url(#mask10_2726_18126)">
<path opacity="0.3506" fill-rule="evenodd" clip-rule="evenodd" d="M4.41858 15.4219C2.97907 15.4219 1.83594 16.565 1.83594 17.9622C1.83594 19.3594 2.97907 20.5025 4.41858 20.5025C5.85809 20.5025 7.00124 19.3594 7.00124 17.9622C7.00124 16.565 5.85809 15.4219 4.41858 15.4219Z" fill="#EBEBEB"/>
<path d="M4.41858 15.4219C2.97907 15.4219 1.83594 16.565 1.83594 17.9622C1.83594 19.3594 2.97907 20.5025 4.41858 20.5025C5.85809 20.5025 7.00124 19.3594 7.00124 17.9622C7.00124 16.565 5.85809 15.4219 4.41858 15.4219Z" stroke="black" stroke-miterlimit="10" stroke-linecap="round" stroke-linejoin="round"/>
</g>
<mask id="mask11_2726_18126" style="mask-type:luminance" maskUnits="userSpaceOnUse" x="1" y="0" width="7" height="78">
<path d="M7.68091 0.560547H1.20312V77.532H7.68091V0.560547Z" fill="white"/>
</mask>
<g mask="url(#mask11_2726_18126)">
<path opacity="0.3506" fill-rule="evenodd" clip-rule="evenodd" d="M4.41858 57.6758C2.97907 57.6758 1.83594 58.8189 1.83594 60.2161C1.83594 61.6133 2.97907 62.7564 4.41858 62.7564C5.85809 62.7564 7.00124 61.6133 7.00124 60.2161C7.00124 58.8189 5.85809 57.6758 4.41858 57.6758Z" fill="#EBEBEB"/>
<path d="M4.41858 57.6758C2.97907 57.6758 1.83594 58.8189 1.83594 60.2161C1.83594 61.6133 2.97907 62.7564 4.41858 62.7564C5.85809 62.7564 7.00124 61.6133 7.00124 60.2161C7.00124 58.8189 5.85809 57.6758 4.41858 57.6758Z" stroke="black" stroke-miterlimit="10" stroke-linecap="round" stroke-linejoin="round"/>
</g>
<path d="M7.68091 0.560547H1.20312V77.532H7.68091V0.560547Z" stroke="black" stroke-miterlimit="10" stroke-linejoin="round"/>
<defs>
<linearGradient id="paint0_linear_2726_18126" x1="2.07345" y1="44.2156" x2="7.26421" y2="44.2156" gradientUnits="userSpaceOnUse">
<stop stop-color="#59B600"/>
<stop offset="1" stop-color="#FFFC00"/>
</linearGradient>
</defs>
</svg>
