<svg width="62" height="19" viewBox="0 0 62 19" fill="none" xmlns="http://www.w3.org/2000/svg">
<path d="M61.139 5.39258H1.16406V14.1088H61.139V5.39258Z" fill="white"/>
<path d="M61.139 5.39258H1.16406V14.1088H61.139V5.39258Z" stroke="black" stroke-width="0.75" stroke-miterlimit="10" stroke-linejoin="round"/>
<path d="M13.5236 2.52051H6.00781V17.0307H13.5236V2.52051Z" fill="white"/>
<mask id="mask0_2778_13553" style="mask-type:luminance" maskUnits="userSpaceOnUse" x="6" y="2" width="8" height="16">
<path d="M13.5236 2.52051H6.00781V17.0307H13.5236V2.52051Z" fill="white"/>
</mask>
<g mask="url(#mask0_2778_13553)">
<path d="M13.5236 2.52051H6.00781V9.77562H13.5236V2.52051Z" fill="white"/>
</g>
<mask id="mask1_2778_13553" style="mask-type:luminance" maskUnits="userSpaceOnUse" x="6" y="2" width="8" height="16">
<path d="M13.5236 2.52051H6.00781V17.0307H13.5236V2.52051Z" fill="white"/>
</mask>
<g mask="url(#mask1_2778_13553)">
<path d="M13.5236 2.52051H6.00781V9.77562H13.5236V2.52051Z" stroke="black" stroke-width="0.75" stroke-miterlimit="10" stroke-linejoin="round"/>
</g>
<path d="M13.5236 2.52051H6.00781V17.0307H13.5236V2.52051Z" stroke="black" stroke-width="0.75" stroke-miterlimit="10" stroke-linejoin="round"/>
<path d="M26.5392 2.52051H19.0234V17.0307H26.5392V2.52051Z" fill="white"/>
<mask id="mask2_2778_13553" style="mask-type:luminance" maskUnits="userSpaceOnUse" x="19" y="2" width="8" height="16">
<path d="M26.5392 2.52051H19.0234V17.0307H26.5392V2.52051Z" fill="white"/>
</mask>
<g mask="url(#mask2_2778_13553)">
<path d="M26.5392 2.52051H19.0234V9.77562H26.5392V2.52051Z" fill="white"/>
</g>
<mask id="mask3_2778_13553" style="mask-type:luminance" maskUnits="userSpaceOnUse" x="19" y="2" width="8" height="16">
<path d="M26.5392 2.52051H19.0234V17.0307H26.5392V2.52051Z" fill="white"/>
</mask>
<g mask="url(#mask3_2778_13553)">
<path d="M26.5392 2.52051H19.0234V9.77562H26.5392V2.52051Z" stroke="black" stroke-width="0.75" stroke-miterlimit="10" stroke-linejoin="round"/>
</g>
<path d="M26.5392 2.52051H19.0234V17.0307H26.5392V2.52051Z" stroke="black" stroke-width="0.75" stroke-miterlimit="10" stroke-linejoin="round"/>
<path d="M56.5002 2.52051H48.9844V17.0307H56.5002V2.52051Z" fill="white"/>
<mask id="mask4_2778_13553" style="mask-type:luminance" maskUnits="userSpaceOnUse" x="48" y="2" width="9" height="16">
<path d="M56.5002 2.52051H48.9844V17.0307H56.5002V2.52051Z" fill="white"/>
</mask>
<g mask="url(#mask4_2778_13553)">
<path d="M56.5002 2.52051H48.9844V9.77562H56.5002V2.52051Z" fill="white"/>
</g>
<mask id="mask5_2778_13553" style="mask-type:luminance" maskUnits="userSpaceOnUse" x="48" y="2" width="9" height="16">
<path d="M56.5002 2.52051H48.9844V17.0307H56.5002V2.52051Z" fill="white"/>
</mask>
<g mask="url(#mask5_2778_13553)">
<path d="M56.5002 2.52051H48.9844V9.77562H56.5002V2.52051Z" stroke="black" stroke-width="0.75" stroke-miterlimit="10" stroke-linejoin="round"/>
</g>
<path d="M56.5002 2.52051H48.9844V17.0307H56.5002V2.52051Z" stroke="black" stroke-width="0.75" stroke-miterlimit="10" stroke-linejoin="round"/>
<path d="M45.1017 2.52051H37.5859V17.0307H45.1017V2.52051Z" fill="white"/>
<mask id="mask6_2778_13553" style="mask-type:luminance" maskUnits="userSpaceOnUse" x="37" y="2" width="9" height="16">
<path d="M45.1017 2.52051H37.5859V17.0307H45.1017V2.52051Z" fill="white"/>
</mask>
<g mask="url(#mask6_2778_13553)">
<path d="M45.1017 2.52051H37.5859V9.77562H45.1017V2.52051Z" fill="white"/>
</g>
<mask id="mask7_2778_13553" style="mask-type:luminance" maskUnits="userSpaceOnUse" x="37" y="2" width="9" height="16">
<path d="M45.1017 2.52051H37.5859V17.0307H45.1017V2.52051Z" fill="white"/>
</mask>
<g mask="url(#mask7_2778_13553)">
<path d="M45.1017 2.52051H37.5859V9.77562H45.1017V2.52051Z" stroke="black" stroke-width="0.75" stroke-miterlimit="10" stroke-linejoin="round"/>
</g>
<path d="M45.1017 2.52051H37.5859V17.0307H45.1017V2.52051Z" stroke="black" stroke-width="0.75" stroke-miterlimit="10" stroke-linejoin="round"/>
<path fill-rule="evenodd" clip-rule="evenodd" d="M31.1265 0.807617V18.4415H29.2097L28.5036 14.1086L28.4531 5.39244L29.2097 0.807617H31.1265Z" fill="white"/>
<mask id="mask8_2778_13553" style="mask-type:luminance" maskUnits="userSpaceOnUse" x="28" y="0" width="4" height="19">
<path d="M31.1265 0.807617V18.4415H29.2097L28.5036 14.1086L28.4531 5.39244L29.2097 0.807617H31.1265Z" fill="white"/>
</mask>
<g mask="url(#mask8_2778_13553)">
<path d="M31.1277 0.807617H29.2109V18.4415H31.1277V0.807617Z" fill="white"/>
</g>
<mask id="mask9_2778_13553" style="mask-type:luminance" maskUnits="userSpaceOnUse" x="28" y="0" width="4" height="19">
<path d="M31.1265 0.807617V18.4415H29.2097L28.5036 14.1086L28.4531 5.39244L29.2097 0.807617H31.1265Z" fill="white"/>
</mask>
<g mask="url(#mask9_2778_13553)">
<path d="M31.1277 0.807617H29.2109V18.4415H31.1277V0.807617Z" stroke="black" stroke-width="0.75" stroke-miterlimit="10" stroke-linejoin="round"/>
</g>
<path d="M31.1265 0.807617V18.4415H29.2097L28.5036 14.1086L28.4531 5.39244L29.2097 0.807617H31.1265Z" stroke="black" stroke-width="0.75" stroke-miterlimit="10" stroke-linejoin="round"/>
<path fill-rule="evenodd" clip-rule="evenodd" d="M18.1605 2.41992V16.6782H16.4959L15.8906 13.1514V6.09785L16.4959 2.41992H18.1605Z" fill="white"/>
<mask id="mask10_2778_13553" style="mask-type:luminance" maskUnits="userSpaceOnUse" x="15" y="2" width="4" height="15">
<path d="M18.1605 2.41992V16.6782H16.4959L15.8906 13.1514V6.09785L16.4959 2.41992H18.1605Z" fill="white"/>
</mask>
<g mask="url(#mask10_2778_13553)">
<path d="M18.1063 2.41992H16.4922V16.6782H18.1063V2.41992Z" fill="white"/>
</g>
<mask id="mask11_2778_13553" style="mask-type:luminance" maskUnits="userSpaceOnUse" x="15" y="2" width="4" height="15">
<path d="M18.1605 2.41992V16.6782H16.4959L15.8906 13.1514V6.09785L16.4959 2.41992H18.1605Z" fill="white"/>
</mask>
<g mask="url(#mask11_2778_13553)">
<path d="M18.1063 2.41992H16.4922V16.6782H18.1063V2.41992Z" stroke="black" stroke-width="0.75" stroke-miterlimit="10" stroke-linejoin="round"/>
</g>
<path d="M18.1605 2.41992V16.6782H16.4959L15.8906 13.1514V6.09785L16.4959 2.41992H18.1605Z" stroke="black" stroke-width="0.75" stroke-miterlimit="10" stroke-linejoin="round"/>
<path fill-rule="evenodd" clip-rule="evenodd" d="M45.6562 2.52051V16.7788H47.3208L47.9261 13.252V6.19845L47.3208 2.52051H45.6562Z" fill="white"/>
<mask id="mask12_2778_13553" style="mask-type:luminance" maskUnits="userSpaceOnUse" x="45" y="2" width="3" height="15">
<path d="M45.6562 2.52051V16.7788H47.3208L47.9261 13.252V6.19845L47.3208 2.52051H45.6562Z" fill="white"/>
</mask>
<g mask="url(#mask12_2778_13553)">
<path d="M47.2704 2.52051H45.6562V16.7788H47.2704V2.52051Z" fill="white"/>
</g>
<mask id="mask13_2778_13553" style="mask-type:luminance" maskUnits="userSpaceOnUse" x="45" y="2" width="3" height="15">
<path d="M45.6562 2.52051V16.7788H47.3208L47.9261 13.252V6.19845L47.3208 2.52051H45.6562Z" fill="white"/>
</mask>
<g mask="url(#mask13_2778_13553)">
<path d="M47.2704 2.52051H45.6562V16.7788H47.2704V2.52051Z" stroke="black" stroke-width="0.75" stroke-miterlimit="10" stroke-linejoin="round"/>
</g>
</svg>
