<svg width="108" height="93" viewBox="0 0 108 93" fill="none" xmlns="http://www.w3.org/2000/svg">
<g clip-path="url(#clip0_2873_12042)">
<path d="M5.89499 78.2331C10.81 78.3767 15.7251 78.6639 20.6401 78.6023C29.5117 78.4793 38.2201 77.187 46.7042 74.4999C66.4459 68.2437 81.3338 55.8339 91.9797 38.1524C98.5671 27.2195 102.809 15.384 104.808 2.72799C104.889 2.19468 104.971 1.64085 105.032 1.10753C105.114 0.369097 105.562 -0.0411452 106.256 -0.00012096C107.01 0.0409033 107.439 0.553707 107.337 1.33317C107.072 3.26131 106.827 5.18945 106.439 7.09707C103.339 22.3376 97.2618 36.2653 87.7377 48.5521C75.2359 64.6746 58.9408 74.7461 39.0563 78.9305C28.8999 81.0638 18.6619 81.433 8.34231 80.592C7.40417 80.51 6.44564 80.4484 5.24237 80.3459C5.65026 80.7151 5.91538 80.9612 6.18051 81.1869C9.72913 84.1201 13.2778 87.0328 16.8264 89.9456C16.9487 90.0481 17.0915 90.1712 17.2139 90.2737C17.8665 90.7865 18.1112 91.4429 17.5606 92.1198C16.9895 92.7967 16.3165 92.6121 15.6843 92.0788C10.6877 87.9559 5.69104 83.8535 0.71481 79.7305C-0.243724 78.9305 -0.14175 78.0075 0.959546 77.4742C6.79234 74.6435 12.6455 71.8333 18.4783 69.0027C19.2125 68.654 19.8855 68.6335 20.2934 69.4745C20.7013 70.3154 20.2118 70.8283 19.498 71.177C15.2764 73.2077 11.0548 75.2589 6.83313 77.2896C6.50682 77.4537 6.2009 77.6178 5.87459 77.8024C5.83381 77.9665 5.87459 78.11 5.89499 78.2331Z" fill="white"/>
</g>
<defs>
<clipPath id="clip0_2873_12042">
<rect width="92.5917" height="107.336" fill="white" transform="translate(107.336) rotate(90)"/>
</clipPath>
</defs>
</svg>
