<svg width="20" height="20" viewBox="0 0 20 20" fill="none" xmlns="http://www.w3.org/2000/svg">
<g clip-path="url(#clip0_2873_12049)">
<path d="M2.11901e-05 10.0093C0.0112718 4.46649 4.47026 -0.00374784 9.98305 2.35788e-06C15.5333 0.00375256 19.9998 4.46649 19.9923 10.0168C19.9886 15.5633 15.4621 20.0336 9.90805 19.9998C4.45901 19.9623 -0.0112294 15.4771 2.11901e-05 10.0093ZM9.0005 7.97292C9.0005 8.06668 9.0005 8.16043 9.0005 8.25419C9.0005 9.16549 8.993 10.0768 9.00425 10.9918C9.0155 11.7756 9.80679 12.2444 10.4781 11.8731C10.8306 11.6781 10.9919 11.3631 10.9919 10.9581C10.9919 8.98548 10.9919 7.00912 10.9919 5.03652C10.9919 4.99152 10.9881 4.95026 10.9844 4.90526C10.9431 4.41024 10.5231 4.01271 10.0243 4.00146C9.44677 3.98646 9.00425 4.42524 9.0005 5.03277C8.99675 6.01157 9.0005 6.99037 9.0005 7.97292ZM9.99055 16.9922C10.8231 16.9922 11.4944 16.3284 11.4944 15.4996C11.4981 14.6745 10.8193 13.9995 9.99055 13.9995C9.17301 13.9995 8.49797 14.6745 8.49422 15.4883C8.49422 16.3209 9.16176 16.9922 9.99055 16.9922Z" fill="#E23030"/>
</g>
<defs>
<clipPath id="clip0_2873_12049">
<rect width="20" height="20" fill="white"/>
</clipPath>
</defs>
</svg>
