<svg width="456" height="456" viewBox="0 0 456 456" fill="none" xmlns="http://www.w3.org/2000/svg">
<mask id="mask0_2853_10971" style="mask-type:luminance" maskUnits="userSpaceOnUse" x="1" y="1" width="454" height="454">
<path fill-rule="evenodd" clip-rule="evenodd" d="M454.627 23.6773V431.783C454.627 444.299 444.465 454.46 431.949 454.46H23.676C11.1613 454.46 1 444.299 1 431.783V23.6773C1 11.1613 11.1613 0.999986 23.676 0.999986H431.949C444.465 0.999986 454.627 11.1613 454.627 23.6773ZM17.0267 422.585C12.6013 427.009 12.6013 434.195 17.0267 438.62C21.452 443.045 28.6373 443.045 33.0613 438.62C33.0667 438.616 48.2947 423.388 48.2987 423.383C52.7107 418.957 52.7053 411.781 48.2853 407.361C43.8693 402.945 36.7053 402.936 32.2773 407.333C32.268 407.343 17.036 422.576 17.0267 422.585ZM336.853 431.237L353.808 414.271C356.063 412.917 357.507 409.964 358.008 405.155L357.973 380.961C359.224 367.02 366.715 359.067 381.376 357.996L404.727 358.105C408.7 357.943 412.092 356.487 414.932 353.8L432.313 336.595C434.745 333.571 435.915 330.097 436.272 326.336L436.288 127.555C436.115 124.576 434.865 121.825 432.72 119.263L413.968 100.556C411.939 98.8973 409.229 97.7893 405.543 97.4747L383.999 97.42C366.625 96.4907 358.279 87.368 357.867 71.0426L358.125 50.564C358.072 47.5014 356.932 44.7187 354.92 42.1614L335.923 23.2773C334.145 21.5493 331.596 20.3133 327.537 20.0373L126.473 20.048C123.629 20.076 121.349 21.5307 119.309 23.5867L100.943 41.9534C99.0387 43.992 97.7907 46.632 97.4853 50.1347L97.6107 74.4373C96.3453 88.764 88.0267 96.0307 73.9213 97.5054L50.3307 97.4306C47.3053 97.2453 44.2267 98.44 41.0987 100.959L23.1227 118.76C20.828 121.851 19.4187 125.175 19.2653 128.829L19.2427 323.273C19.06 329.373 20.5133 333.927 23.6867 336.855L41.2907 354.481C44.5413 356.895 47.9253 357.899 51.4027 357.933L74.116 358.104C88.856 359.167 96.784 366.549 97.5013 380.624L97.3973 404.945C97.784 408.567 99.0693 411.296 100.941 413.443L119.656 432.276C123.172 434.585 127.137 435.813 131.787 435.404L326.788 435.436C330.841 435.207 334.129 433.692 336.853 431.237ZM33.0613 17.6374C28.6373 13.212 21.452 13.212 17.0267 17.6374C12.6013 22.0614 12.6013 29.2467 17.0267 33.672C17.0307 33.676 32.2587 48.904 32.264 48.9093C36.6893 53.32 43.8653 53.316 48.2853 48.896C52.7013 44.48 52.7107 37.3147 48.312 32.888C48.304 32.8787 33.0707 17.6454 33.0613 17.6374ZM422.787 407.361C418.361 402.936 411.176 402.936 406.751 407.361C402.325 411.787 402.325 418.971 406.751 423.396C406.756 423.401 421.984 438.629 421.988 438.633C426.415 443.045 433.589 443.04 438.009 438.62C442.425 434.204 442.435 427.04 438.037 422.612C438.028 422.603 422.795 407.371 422.787 407.361ZM406.751 32.86C402.325 37.2853 402.325 44.4706 406.751 48.896C411.176 53.32 418.361 53.32 422.787 48.896C422.791 48.8906 438.019 33.6627 438.023 33.6587C442.435 29.232 442.431 22.0574 438.009 17.6374C433.593 13.2214 426.429 13.212 422.001 17.6094C421.993 17.6187 406.76 32.8507 406.751 32.86Z" fill="white"/>
</mask>
<g mask="url(#mask0_2853_10971)">
<path d="M341.838 437.12L360.162 418.144C363.59 414.62 365.456 409.913 365.978 404.185L365.778 380.821C366.15 371.156 371.64 365.901 382.147 364.969L405.327 365.133C410.559 365.448 415.563 363.26 420.366 358.872L437.69 341.524C441.615 338.125 443.692 333.157 443.979 326.672L443.914 127.151C443.324 122.253 441.183 117.928 437.828 114.049L419.216 95.4695C415.85 91.8015 411.183 89.6948 404.906 89.5215L380.928 90.0081C371.888 88.8055 366.875 83.7948 365.918 74.9508L365.871 50.0561C366.067 45.8415 364.387 41.3521 360.507 36.5428L341.682 17.5695C337.063 13.9215 332.356 12.4935 327.594 12.4735L127.228 12.3828C121.984 12.3881 117.364 14.1001 113.448 17.7335L95.0991 36.9535C92.1911 40.4295 90.6124 44.9695 90.0671 50.3348L90.0804 74.9508C89.3751 84.4841 84.0084 88.9548 75.4537 89.9641L49.2297 89.9828C44.6671 90.4695 40.2564 92.4895 35.9977 96.0241L18.3777 113.641C13.6524 118.58 11.0751 123.857 11.7897 129.651L11.9537 326.825C12.1697 332.867 14.1431 337.713 18.0351 341.256L35.9257 359.181C40.4351 362.977 45.5671 365.047 51.3991 365.173L73.8644 364.945C83.9711 366.543 89.3391 371.792 90.0031 380.668L90.0551 405.024C90.8871 411.4 93.0644 415.729 96.1151 418.725L113.026 436.416C117.332 440.265 122.418 442.617 128.486 443.081L327.98 443.347C332.158 443.435 336.76 441.443 341.838 437.12Z" stroke="black" stroke-width="1.33333" stroke-miterlimit="10" stroke-linecap="round" stroke-linejoin="round"/>
<path d="M341.1 435.733L359.289 416.883C362.693 413.383 364.546 408.707 365.064 403.016L364.865 379.805C365.234 370.204 370.685 364.984 381.116 364.057L404.126 364.22C409.321 364.533 414.289 362.359 419.056 358L436.254 340.767C440.152 337.389 442.213 332.455 442.498 326.012L442.433 127.803C441.848 122.937 439.722 118.639 436.392 114.787L417.916 96.3281C414.573 92.6854 409.94 90.5921 403.708 90.4201L379.906 90.9028C370.932 89.7081 365.954 84.7307 365.004 75.9454L364.957 51.2147C365.152 47.0267 363.484 42.5681 359.633 37.7894L340.944 18.9401C336.36 15.3161 331.688 13.8974 326.96 13.8788L128.052 13.7881C122.846 13.7934 118.26 15.4934 114.372 19.1028L96.1569 38.1974C93.2689 41.6494 91.7022 46.1601 91.1609 51.4907L91.1729 75.9454C90.4742 85.4147 85.1462 89.8574 76.6542 90.8601L50.6209 90.8774C46.0902 91.3614 41.7129 93.3681 37.4849 96.8801L19.9929 114.381C15.3022 119.288 12.7436 124.529 13.4529 130.285L13.6156 326.165C13.8302 332.165 15.7889 336.98 19.6529 340.5L37.4142 358.308C41.8902 362.079 46.9849 364.135 52.7742 364.26L75.0756 364.033C85.1102 365.621 90.4382 370.836 91.0969 379.653L91.1489 403.848C91.9756 410.183 94.1356 414.484 97.1649 417.46L113.953 435.035C118.228 438.859 123.276 441.196 129.3 441.657L327.344 441.92C331.49 442.008 336.058 440.028 341.1 435.733Z" stroke="black" stroke-width="1.33333" stroke-miterlimit="10" stroke-linecap="round" stroke-linejoin="round"/>
<path d="M345.335 449.303L449.667 344.845C451.94 342.733 452.769 339.984 452.941 336.939L452.713 118.017C452.585 115.036 451.887 112.537 449.444 110.105L345.429 6.19587C343.451 4.04387 341.195 3.01185 337.552 2.87185L118.365 2.86119C115.384 3.08519 112.724 4.18519 110.441 6.14252L6.18939 110.017C4.00673 112.265 3.0827 114.937 2.91337 117.925L2.60938 336.481C2.66138 339.1 3.57071 341.948 5.75871 344.371L109.999 449.163C112.104 451.105 114.684 452.192 117.923 452.466L337.331 452.562C340.449 452.335 343.177 451.357 345.335 449.303Z" stroke="black" stroke-width="1.33333" stroke-miterlimit="10" stroke-linecap="round" stroke-linejoin="round"/>
<mask id="mask1_2853_10971" style="mask-type:luminance" maskUnits="userSpaceOnUse" x="371" y="65" width="20" height="20">
<path fill-rule="evenodd" clip-rule="evenodd" d="M380.927 65.5628C386.108 65.5628 390.315 69.7695 390.315 74.9508C390.315 80.1322 386.108 84.3389 380.927 84.3389C375.746 84.3389 371.539 80.1322 371.539 74.9508C371.539 69.7695 375.746 65.5628 380.927 65.5628Z" fill="white"/>
</mask>
<g mask="url(#mask1_2853_10971)">
<path d="M381.013 68.0718C384.764 68.0718 387.808 71.1158 387.808 74.8665C387.808 78.6171 384.764 81.6611 381.013 81.6611C377.264 81.6611 374.219 78.6171 374.219 74.8665C374.219 71.1158 377.264 68.0718 381.013 68.0718Z" stroke="black" stroke-width="1.33333" stroke-miterlimit="2" stroke-linecap="round"/>
</g>
<path d="M380.927 65.5629C386.108 65.5629 390.315 69.7695 390.315 74.9509C390.315 80.1322 386.108 84.3389 380.927 84.3389C375.746 84.3389 371.539 80.1322 371.539 74.9509C371.539 69.7695 375.746 65.5629 380.927 65.5629Z" stroke="black" stroke-width="1.33333" stroke-miterlimit="2" stroke-linecap="round"/>
<mask id="mask2_2853_10971" style="mask-type:luminance" maskUnits="userSpaceOnUse" x="371" y="370" width="20" height="19">
<path fill-rule="evenodd" clip-rule="evenodd" d="M380.927 370.109C386.108 370.109 390.315 374.315 390.315 379.497C390.315 384.678 386.108 388.885 380.927 388.885C375.746 388.885 371.539 384.678 371.539 379.497C371.539 374.315 375.746 370.109 380.927 370.109Z" fill="white"/>
</mask>
<g mask="url(#mask2_2853_10971)">
<path d="M381.013 372.618C384.764 372.618 387.808 375.662 387.808 379.412C387.808 383.162 384.764 386.207 381.013 386.207C377.264 386.207 374.219 383.162 374.219 379.412C374.219 375.662 377.264 372.618 381.013 372.618Z" stroke="black" stroke-width="1.33333" stroke-miterlimit="2" stroke-linecap="round"/>
</g>
<path d="M380.927 370.109C386.108 370.109 390.315 374.315 390.315 379.497C390.315 384.678 386.108 388.885 380.927 388.885C375.746 388.885 371.539 384.678 371.539 379.497C371.539 374.315 375.746 370.109 380.927 370.109Z" stroke="black" stroke-width="1.33333" stroke-miterlimit="2" stroke-linecap="round"/>
<mask id="mask3_2853_10971" style="mask-type:luminance" maskUnits="userSpaceOnUse" x="65" y="65" width="19" height="20">
<path fill-rule="evenodd" clip-rule="evenodd" d="M74.4362 65.8135C79.6175 65.8135 83.8242 70.0201 83.8242 75.2028C83.8242 80.3841 79.6175 84.5908 74.4362 84.5908C69.2535 84.5908 65.0469 80.3841 65.0469 75.2028C65.0469 70.0201 69.2535 65.8135 74.4362 65.8135Z" fill="white"/>
</mask>
<g mask="url(#mask3_2853_10971)">
<path d="M74.5212 68.3224C78.2706 68.3224 81.3159 71.3678 81.3159 75.1171C81.3159 78.8678 78.2706 81.9131 74.5212 81.9131C70.7706 81.9131 67.7266 78.8678 67.7266 75.1171C67.7266 71.3678 70.7706 68.3224 74.5212 68.3224Z" stroke="black" stroke-width="1.33333" stroke-miterlimit="2" stroke-linecap="round"/>
</g>
<path d="M74.4362 65.8135C79.6175 65.8135 83.8242 70.0202 83.8242 75.2028C83.8242 80.3842 79.6175 84.5908 74.4362 84.5908C69.2535 84.5908 65.0469 80.3842 65.0469 75.2028C65.0469 70.0202 69.2535 65.8135 74.4362 65.8135Z" stroke="black" stroke-width="1.33333" stroke-miterlimit="2" stroke-linecap="round"/>
<mask id="mask4_2853_10971" style="mask-type:luminance" maskUnits="userSpaceOnUse" x="65" y="370" width="19" height="20">
<path fill-rule="evenodd" clip-rule="evenodd" d="M74.4362 370.36C79.6175 370.36 83.8242 374.566 83.8242 379.748C83.8242 384.929 79.6175 389.136 74.4362 389.136C69.2535 389.136 65.0469 384.929 65.0469 379.748C65.0469 374.566 69.2535 370.36 74.4362 370.36Z" fill="white"/>
</mask>
<g mask="url(#mask4_2853_10971)">
<path d="M74.5212 372.869C78.2706 372.869 81.3159 375.913 81.3159 379.663C81.3159 383.414 78.2706 386.458 74.5212 386.458C70.7706 386.458 67.7266 383.414 67.7266 379.663C67.7266 375.913 70.7706 372.869 74.5212 372.869Z" stroke="black" stroke-width="1.33333" stroke-miterlimit="2" stroke-linecap="round"/>
</g>
<path d="M74.4362 370.36C79.6175 370.36 83.8242 374.566 83.8242 379.748C83.8242 384.929 79.6175 389.136 74.4362 389.136C69.2535 389.136 65.0469 384.929 65.0469 379.748C65.0469 374.566 69.2535 370.36 74.4362 370.36Z" stroke="black" stroke-width="1.33333" stroke-miterlimit="2" stroke-linecap="round"/>
</g>
<path d="M454.627 23.6773V431.783C454.627 444.299 444.465 454.46 431.949 454.46H23.676C11.1613 454.46 1 444.299 1 431.783V23.6773C1 11.1613 11.1613 0.999986 23.676 0.999986H431.949C444.465 0.999986 454.627 11.1613 454.627 23.6773ZM17.0267 422.585C12.6013 427.009 12.6013 434.195 17.0267 438.62C21.452 443.045 28.6373 443.045 33.0613 438.62C33.0667 438.616 48.2947 423.388 48.2987 423.383C52.7107 418.957 52.7053 411.781 48.2853 407.361C43.8693 402.945 36.7053 402.936 32.2773 407.333C32.268 407.343 17.036 422.576 17.0267 422.585ZM336.853 431.237L353.808 414.271C356.063 412.917 357.507 409.964 358.008 405.155L357.973 380.961C359.224 367.02 366.715 359.067 381.376 357.996L404.727 358.105C408.7 357.943 412.092 356.487 414.932 353.8L432.313 336.595C434.745 333.571 435.915 330.097 436.272 326.336L436.288 127.555C436.115 124.576 434.865 121.825 432.72 119.263L413.968 100.556C411.939 98.8973 409.229 97.7893 405.543 97.4746L383.999 97.42C366.625 96.4907 358.279 87.368 357.867 71.0426L358.125 50.564C358.072 47.5013 356.932 44.7187 354.92 42.1613L335.923 23.2773C334.145 21.5493 331.596 20.3133 327.537 20.0373L126.473 20.048C123.629 20.076 121.349 21.5307 119.309 23.5867L100.943 41.9533C99.0387 43.992 97.7907 46.632 97.4853 50.1346L97.6107 74.4373C96.3453 88.764 88.0267 96.0306 73.9213 97.5053L50.3307 97.4306C47.3054 97.2453 44.2267 98.44 41.0987 100.959L23.1227 118.76C20.828 121.851 19.4187 125.175 19.2653 128.829L19.2427 323.273C19.06 329.373 20.5134 333.927 23.6867 336.855L41.2906 354.481C44.5413 356.895 47.9253 357.899 51.4027 357.933L74.116 358.104C88.856 359.167 96.784 366.549 97.5013 380.624L97.3973 404.945C97.784 408.567 99.0693 411.296 100.941 413.443L119.656 432.276C123.172 434.585 127.137 435.813 131.787 435.404L326.788 435.436C330.841 435.207 334.129 433.692 336.853 431.237ZM33.0613 17.6373C28.6373 13.212 21.452 13.212 17.0267 17.6373C12.6013 22.0613 12.6013 29.2466 17.0267 33.672C17.0307 33.676 32.2587 48.904 32.264 48.9093C36.6893 53.32 43.8653 53.316 48.2853 48.896C52.7013 44.48 52.7107 37.3146 48.312 32.888C48.304 32.8786 33.0707 17.6453 33.0613 17.6373ZM422.787 407.361C418.361 402.936 411.176 402.936 406.751 407.361C402.325 411.787 402.325 418.971 406.751 423.396C406.756 423.401 421.984 438.629 421.988 438.633C426.415 443.045 433.589 443.04 438.009 438.62C442.425 434.204 442.435 427.04 438.037 422.612C438.028 422.603 422.795 407.371 422.787 407.361ZM406.751 32.86C402.325 37.2853 402.325 44.4706 406.751 48.896C411.176 53.32 418.361 53.32 422.787 48.896C422.791 48.8906 438.019 33.6626 438.023 33.6586C442.435 29.232 442.431 22.0573 438.009 17.6373C433.593 13.2213 426.429 13.212 422.001 17.6093C421.993 17.6187 406.76 32.8506 406.751 32.86Z" stroke="black" stroke-width="2" stroke-miterlimit="10" stroke-linecap="round" stroke-linejoin="round"/>
<mask id="mask5_2853_10971" style="mask-type:luminance" maskUnits="userSpaceOnUse" x="19" y="20" width="418" height="416">
<path fill-rule="evenodd" clip-rule="evenodd" d="M336.852 431.237L353.807 414.27C356.062 412.917 357.506 409.964 358.007 405.154L357.972 380.961C359.223 367.02 366.714 359.066 381.375 357.996L404.726 358.105C408.699 357.942 412.091 356.486 414.931 353.8L432.312 336.594C434.744 333.57 435.914 330.097 436.271 326.336L436.287 127.554C436.114 124.576 434.864 121.825 432.719 119.262L413.967 100.556C411.938 98.8969 409.228 97.7889 405.542 97.4743L383.998 97.4196C366.624 96.4902 358.278 87.3676 357.866 71.0422L358.124 50.5636C358.071 47.501 356.931 44.7183 354.919 42.161L335.922 23.2769C334.144 21.5489 331.595 20.3129 327.536 20.0369L126.472 20.0476C123.628 20.0756 121.348 21.5302 119.308 23.5862L100.942 41.9529C99.0378 43.9916 97.7898 46.6316 97.4845 50.1343L97.6098 74.4369C96.3445 88.7636 88.0258 96.0303 73.9205 97.5049L50.3298 97.4302C47.3045 97.2449 44.2258 98.4396 41.0978 100.958L23.1218 118.76C20.8272 121.85 19.4178 125.174 19.2645 128.829L19.2418 323.273C19.0592 329.373 20.5125 333.926 23.6858 336.854L41.2898 354.481C44.5405 356.894 47.9245 357.898 51.4018 357.933L74.1152 358.104C88.8552 359.166 96.7832 366.549 97.5005 380.624L97.3965 404.945C97.7832 408.566 99.0685 411.296 100.94 413.442L119.655 432.276C123.171 434.585 127.136 435.813 131.786 435.404L326.787 435.436C330.84 435.206 334.128 433.692 336.852 431.237Z" fill="white"/>
</mask>
<g mask="url(#mask5_2853_10971)">
<mask id="mask6_2853_10971" style="mask-type:luminance" maskUnits="userSpaceOnUse" x="387" y="216" width="27" height="24">
<path fill-rule="evenodd" clip-rule="evenodd" d="M413.378 227.729L406.87 239.002H393.852L387.344 227.729L393.852 216.455H406.87L413.378 227.729Z" fill="white"/>
</mask>
<g mask="url(#mask6_2853_10971)">
<path d="M406.523 227.762C406.523 231.159 403.766 233.918 400.367 233.918C396.97 233.918 394.211 231.159 394.211 227.762C394.211 224.363 396.97 221.605 400.367 221.605C403.766 221.605 406.523 224.363 406.523 227.762Z" stroke="black" stroke-width="1.33333" stroke-miterlimit="2" stroke-linecap="round"/>
<path d="M408.574 227.762C408.574 232.293 404.895 235.972 400.364 235.972C395.834 235.972 392.156 232.293 392.156 227.762C392.156 223.232 395.834 219.554 400.364 219.554C404.895 219.554 408.574 223.232 408.574 227.762Z" stroke="black" stroke-width="1.33333" stroke-miterlimit="2" stroke-linecap="round"/>
</g>
<path d="M413.378 227.729L406.87 239.002H393.852L387.344 227.729L393.852 216.455H406.87L413.378 227.729Z" stroke="black" stroke-width="1.33333" stroke-miterlimit="2" stroke-linecap="round"/>
<mask id="mask7_2853_10971" style="mask-type:luminance" maskUnits="userSpaceOnUse" x="40" y="216" width="27" height="24">
<path fill-rule="evenodd" clip-rule="evenodd" d="M66.1766 227.762L59.6673 239.035H46.65L40.1406 227.762L46.65 216.488H59.6673L66.1766 227.762Z" fill="white"/>
</mask>
<g mask="url(#mask7_2853_10971)">
<path d="M59.3211 227.795C59.3211 231.193 56.5625 233.951 53.1651 233.951C49.7665 233.951 47.0078 231.193 47.0078 227.795C47.0078 224.397 49.7665 221.638 53.1651 221.638C56.5625 221.638 59.3211 224.397 59.3211 227.795Z" stroke="black" stroke-width="1.33333" stroke-miterlimit="2" stroke-linecap="round"/>
<path d="M61.3705 227.796C61.3705 232.326 57.6931 236.005 53.1625 236.005C48.6318 236.005 44.9531 232.326 44.9531 227.796C44.9531 223.265 48.6318 219.588 53.1625 219.588C57.6931 219.588 61.3705 223.265 61.3705 227.796Z" stroke="black" stroke-width="1.33333" stroke-miterlimit="2" stroke-linecap="round"/>
</g>
<path d="M66.1766 227.762L59.6673 239.035H46.65L40.1406 227.762L46.65 216.488H59.6673L66.1766 227.762Z" stroke="black" stroke-width="1.33333" stroke-miterlimit="2" stroke-linecap="round"/>
<path d="M358.042 65.627C356.723 88.5337 366.95 99.3964 389.654 97.2417L366.06 120.994C362.379 124.718 355.386 127.554 350.148 127.554C337.31 127.554 327.812 118.115 327.812 105.276C327.812 100.027 330.654 93.011 334.366 89.299L358.042 65.627ZM358.172 70.175C358.498 88.4057 366.808 98.071 384.93 97.2164L363.542 118.516C360.126 121.971 355.386 124.112 350.148 124.112C339.753 124.112 331.312 115.672 331.312 105.276C331.312 100.027 333.465 95.2764 336.934 91.859L358.172 70.175Z" stroke="black" stroke-width="1.33333" stroke-miterlimit="2" stroke-linecap="round"/>
<path d="M97.7917 389.191C99.109 366.283 88.8837 355.421 66.1797 357.575L89.7717 333.823C93.4544 330.099 100.448 327.265 105.685 327.265C118.522 327.265 128.021 336.703 128.021 349.541C128.021 354.791 125.18 361.807 121.468 365.519L97.7917 389.191ZM97.6597 384.643C97.3344 366.413 89.0237 356.746 70.9024 357.602L92.2917 336.301C95.7077 332.846 100.448 330.705 105.685 330.705C116.08 330.705 124.521 339.145 124.521 349.541C124.521 354.791 122.368 359.542 118.898 362.959L97.6597 384.643Z" stroke="black" stroke-width="1.33333" stroke-miterlimit="2" stroke-linecap="round"/>
<mask id="mask8_2853_10971" style="mask-type:luminance" maskUnits="userSpaceOnUse" x="337" y="93" width="26" height="26">
<path fill-rule="evenodd" clip-rule="evenodd" d="M359.091 96.6217L362.464 109.212L353.247 118.43L340.655 115.056L337.281 102.464L346.499 93.247L359.091 96.6217Z" fill="white"/>
</mask>
<g mask="url(#mask8_2853_10971)">
<path d="M354.258 101.503C356.663 103.908 356.663 107.815 354.258 110.221C351.851 112.627 347.945 112.627 345.539 110.221C343.133 107.815 343.133 103.908 345.539 101.503C347.945 99.0961 351.851 99.0961 354.258 101.503Z" stroke="black" stroke-width="1.33333" stroke-miterlimit="2" stroke-linecap="round"/>
<path d="M355.711 100.05C358.919 103.258 358.919 108.467 355.711 111.675C352.503 114.883 347.294 114.883 344.086 111.675C340.878 108.467 340.878 103.258 344.086 100.05C347.294 96.8417 352.503 96.8417 355.711 100.05Z" stroke="black" stroke-width="1.33333" stroke-miterlimit="2" stroke-linecap="round"/>
</g>
<path d="M359.091 96.6217L362.464 109.212L353.247 118.43L340.655 115.056L337.281 102.464L346.499 93.247L359.091 96.6217Z" stroke="black" stroke-width="1.33333" stroke-miterlimit="2" stroke-linecap="round"/>
<mask id="mask9_2853_10971" style="mask-type:luminance" maskUnits="userSpaceOnUse" x="93" y="337" width="26" height="26">
<path fill-rule="evenodd" clip-rule="evenodd" d="M115.246 340.465L118.62 353.057L109.402 362.274L96.8109 358.9L93.4375 346.309L102.655 337.092L115.246 340.465Z" fill="white"/>
</mask>
<g mask="url(#mask9_2853_10971)">
<path d="M110.413 345.346C112.819 347.753 112.819 351.66 110.413 354.065C108.008 356.472 104.101 356.472 101.695 354.065C99.2893 351.66 99.2893 347.753 101.695 345.346C104.101 342.941 108.008 342.941 110.413 345.346Z" stroke="black" stroke-width="1.33333" stroke-miterlimit="2" stroke-linecap="round"/>
<path d="M111.866 343.895C115.074 347.103 115.074 352.311 111.866 355.519C108.658 358.727 103.449 358.727 100.241 355.519C97.0343 352.311 97.0343 347.103 100.241 343.895C103.449 340.687 108.658 340.687 111.866 343.895Z" stroke="black" stroke-width="1.33333" stroke-miterlimit="2" stroke-linecap="round"/>
</g>
<path d="M115.245 340.465L118.62 353.057L109.402 362.274L96.8108 358.9L93.4375 346.309L102.655 337.092L115.245 340.465Z" stroke="black" stroke-width="1.33333" stroke-miterlimit="2" stroke-linecap="round"/>
<path d="M436.145 208.707L400.165 208.643C389.529 208.643 380.894 217.278 380.894 227.915C380.894 238.551 389.529 247.186 400.165 247.186L436.145 247.28V254.984C436.113 252.166 434.957 250.611 432.398 250.636H400.299C388.013 250.636 377.578 240.202 377.578 227.915C377.578 215.352 387.738 205.192 400.299 205.192H432.23C434.885 205.24 436.138 203.887 436.145 201.287V208.707Z" stroke="black" stroke-width="1.33333" stroke-miterlimit="2" stroke-linecap="round"/>
<path d="M19.2266 208.707L55.2052 208.643C65.8412 208.643 74.4772 217.278 74.4772 227.915C74.4772 238.551 65.8412 247.186 55.2052 247.186L19.2266 247.28V254.984C19.2586 252.166 20.4146 250.611 22.9719 250.636H55.0706C67.3572 250.636 77.7932 240.202 77.7932 227.915C77.7932 215.352 67.6332 205.192 55.0706 205.192H23.1412C20.4852 205.24 19.2332 203.887 19.2266 201.287V208.707Z" stroke="black" stroke-width="1.33333" stroke-miterlimit="2" stroke-linecap="round"/>
</g>
<path d="M336.852 431.237L353.807 414.27C356.062 412.917 357.506 409.964 358.007 405.154L357.972 380.961C359.223 367.02 366.714 359.066 381.375 357.996L404.726 358.105C408.699 357.942 412.091 356.486 414.931 353.8L432.312 336.594C434.744 333.57 435.914 330.097 436.271 326.336L436.287 127.554C436.114 124.576 434.864 121.825 432.719 119.262L413.967 100.556C411.938 98.8969 409.228 97.7889 405.542 97.4742L383.998 97.4196C366.624 96.4902 358.278 87.3676 357.866 71.0423L358.124 50.5636C358.071 47.5009 356.931 44.7182 354.919 42.1609L335.922 23.2769C334.144 21.5489 331.595 20.3129 327.536 20.0369L126.472 20.0476C123.628 20.0756 121.348 21.5302 119.308 23.5862L100.942 41.9529C99.0378 43.9916 97.7898 46.6316 97.4845 50.1343L97.6098 74.4369C96.3445 88.7636 88.0258 96.0303 73.9205 97.5049L50.3298 97.4303C47.3045 97.2449 44.2258 98.4396 41.0978 100.958L23.1218 118.76C20.8272 121.85 19.4178 125.174 19.2645 128.829L19.2418 323.273C19.0592 329.373 20.5125 333.926 23.6858 336.854L41.2898 354.481C44.5405 356.894 47.9245 357.898 51.4018 357.933L74.1152 358.104C88.8552 359.166 96.7832 366.549 97.5005 380.624L97.3965 404.945C97.7832 408.566 99.0685 411.296 100.94 413.442L119.655 432.276C123.171 434.585 127.136 435.813 131.786 435.404L326.787 435.436C330.84 435.206 334.128 433.692 336.852 431.237Z" stroke="black" stroke-width="1.33333" stroke-miterlimit="10" stroke-linecap="round" stroke-linejoin="round"/>
</svg>
