<svg width="570" height="579" viewBox="0 0 570 579" fill="none" xmlns="http://www.w3.org/2000/svg">
<path d="M568.354 49.4597V529.348C568.305 561.968 553.898 577.722 525.417 576.946L45.3438 576.912C15.0296 576.748 1.32911 559.906 1.32031 529.318L1.34364 49.1477C1.3443 18.625 14.7352 1.88505 44.0598 1.54638L526.329 1.62768C555.32 1.93835 569.096 18.125 568.354 49.4597ZM36.9544 127.72C25.3131 129.961 21.7064 138.377 22.8158 150.417L22.7931 429.128C22.1384 441.814 26.5104 449.512 36.9478 451.192C58.4384 453.82 71.1304 465.329 73.0251 487.738L72.8198 537.156C72.5011 548.344 76.6798 555.528 88.3078 556.076L480.63 555.756C490.936 555.824 496.408 550.816 497.11 540.797L497.005 486.868C499.689 465.505 511.705 453.472 533.246 450.964C544.873 450.36 547.345 441.957 547.494 428.944L547.333 148.372C548.004 136.498 543.208 129.734 532.8 128.213C511.684 125.744 498.42 115.054 497.089 91.8743L497.045 38.3996C496.576 30.2023 492.753 25.0343 484.713 23.677L90.0278 23.4997C79.5371 23.4997 73.5584 28.1344 72.9598 38.2997V91.713C71.3384 112.952 60.0198 125.561 36.9544 127.72Z" stroke="black" stroke-width="2.6384" stroke-miterlimit="10"/>
<mask id="mask0_2853_11101" style="mask-type:luminance" maskUnits="userSpaceOnUse" x="1" y="1" width="568" height="576">
<path fill-rule="evenodd" clip-rule="evenodd" d="M568.354 49.4597V529.348C568.305 561.968 553.898 577.722 525.417 576.946L45.3438 576.912C15.0296 576.748 1.32911 559.906 1.32031 529.318L1.34364 49.1477C1.3443 18.625 14.7352 1.88505 44.0598 1.54638L526.329 1.62768C555.32 1.93835 569.096 18.125 568.354 49.4597ZM36.9544 127.72C25.3131 129.961 21.7064 138.377 22.8158 150.417L22.7931 429.128C22.1384 441.814 26.5104 449.512 36.9478 451.192C58.4384 453.82 71.1304 465.329 73.0251 487.738L72.8198 537.156C72.5011 548.344 76.6798 555.528 88.3078 556.076L480.63 555.756C490.936 555.824 496.408 550.816 497.11 540.797L497.005 486.868C499.689 465.505 511.705 453.472 533.246 450.964C544.873 450.36 547.345 441.957 547.494 428.944L547.333 148.372C548.004 136.498 543.208 129.734 532.8 128.213C511.684 125.744 498.42 115.054 497.089 91.8743L497.045 38.3996C496.576 30.2023 492.753 25.0343 484.713 23.677L90.0278 23.4997C79.5371 23.4997 73.5584 28.1344 72.9598 38.2997V91.713C71.3384 112.952 60.0198 125.561 36.9544 127.72Z" fill="white"/>
</mask>
<g mask="url(#mask0_2853_11101)">
<path d="M37.0687 117.162C19.6427 118.165 11.1409 129.778 12.2716 152.846L12.2493 426.673C11.3033 449.863 19.8801 461.267 36.9221 462.193C52.8474 464.114 60.9727 472.582 61.6154 487.335L61.4021 540.937C62.5461 557.085 70.5061 566.019 86.5048 566.447L482.899 566.118C498.814 565.581 507.047 556.882 508.431 540.903L508.382 486.941C508.858 473.287 516.406 464.437 533.183 461.853C548.977 460.787 557.582 451.967 557.985 434.297L557.817 142.649C555.991 127.121 547.858 118.471 533.11 117.039C516.819 115.065 509.334 106.046 508.326 91.8473L508.431 38.0633C506.607 23.3793 499.609 14.5926 486.271 13.03L93.0847 12.8527C71.7807 12.59 61.9101 22.3873 61.5554 40.554V90.8113C61.6327 106.415 53.2541 115.019 37.0687 117.162Z" stroke="black" stroke-width="1.33333" stroke-miterlimit="10"/>
<path d="M40.4357 119.022C23.2503 120.012 14.8661 131.5 15.9811 154.316L15.9591 425.16C15.0262 448.099 23.485 459.378 40.2903 460.294C55.9957 462.194 64.009 470.57 64.6436 485.162L64.433 538.179C65.5623 554.151 73.4116 562.988 89.189 563.411L480.11 563.086C495.804 562.555 503.925 553.951 505.289 538.147L505.241 484.771C505.71 471.267 513.154 462.512 529.7 459.956C545.274 458.903 553.761 450.179 554.157 432.702L553.993 144.231C552.192 128.871 544.172 120.316 529.628 118.9C513.561 116.947 506.18 108.027 505.186 93.9831L505.289 40.7844C503.49 26.2604 496.588 17.5698 483.434 16.0231L95.6783 15.8485C74.6676 15.5885 64.9343 25.2791 64.585 43.2484V92.9577C64.661 108.392 56.397 116.902 40.4357 119.022Z" stroke="black" stroke-width="1.33333" stroke-miterlimit="10"/>
<path fill-rule="evenodd" clip-rule="evenodd" d="M36.998 70.8582C48.7673 70.8582 58.3233 80.4128 58.3233 92.1834C58.3233 103.954 48.7673 113.509 36.998 113.509C25.2273 113.509 15.6719 103.954 15.6719 92.1834C15.6719 80.4128 25.2273 70.8582 36.998 70.8582Z" fill="white"/>
<mask id="mask1_2853_11101" style="mask-type:luminance" maskUnits="userSpaceOnUse" x="15" y="70" width="44" height="44">
<path fill-rule="evenodd" clip-rule="evenodd" d="M36.998 70.8582C48.7673 70.8582 58.3233 80.4128 58.3233 92.1834C58.3233 103.954 48.7673 113.509 36.998 113.509C25.2273 113.509 15.6719 103.954 15.6719 92.1834C15.6719 80.4128 25.2273 70.8582 36.998 70.8582Z" fill="white"/>
</mask>
<g mask="url(#mask1_2853_11101)">
<path fill-rule="evenodd" clip-rule="evenodd" d="M36.9871 80.6136C43.4605 80.6136 48.7165 85.8696 48.7165 92.3429C48.7165 98.8163 43.4605 104.072 36.9871 104.072C30.5138 104.072 25.2578 98.8163 25.2578 92.3429C25.2578 85.8696 30.5138 80.6136 36.9871 80.6136Z" fill="white" stroke="black" stroke-width="0.666667" stroke-miterlimit="10"/>
</g>
<path d="M36.998 70.8582C48.7673 70.8582 58.3233 80.4128 58.3233 92.1834C58.3233 103.954 48.7673 113.509 36.998 113.509C25.2273 113.509 15.6719 103.954 15.6719 92.1834C15.6719 80.4128 25.2273 70.8582 36.998 70.8582Z" stroke="black" stroke-width="0.666667" stroke-miterlimit="10"/>
<path fill-rule="evenodd" clip-rule="evenodd" d="M533.116 70.8582C544.885 70.8582 554.441 80.4128 554.441 92.1834C554.441 103.954 544.885 113.509 533.116 113.509C521.345 113.509 511.789 103.954 511.789 92.1834C511.789 80.4128 521.345 70.8582 533.116 70.8582Z" fill="white"/>
<mask id="mask2_2853_11101" style="mask-type:luminance" maskUnits="userSpaceOnUse" x="511" y="70" width="44" height="44">
<path fill-rule="evenodd" clip-rule="evenodd" d="M533.116 70.8582C544.885 70.8582 554.441 80.4128 554.441 92.1834C554.441 103.954 544.885 113.509 533.116 113.509C521.345 113.509 511.789 103.954 511.789 92.1834C511.789 80.4128 521.345 70.8582 533.116 70.8582Z" fill="white"/>
</mask>
<g mask="url(#mask2_2853_11101)">
<path fill-rule="evenodd" clip-rule="evenodd" d="M533.104 80.6136C539.578 80.6136 544.834 85.8696 544.834 92.3429C544.834 98.8163 539.578 104.072 533.104 104.072C526.631 104.072 521.375 98.8163 521.375 92.3429C521.375 85.8696 526.631 80.6136 533.104 80.6136Z" fill="white" stroke="black" stroke-width="0.666667" stroke-miterlimit="10"/>
</g>
<path d="M533.116 70.8582C544.885 70.8582 554.441 80.4128 554.441 92.1834C554.441 103.954 544.885 113.509 533.116 113.509C521.345 113.509 511.789 103.954 511.789 92.1834C511.789 80.4128 521.345 70.8582 533.116 70.8582Z" stroke="black" stroke-width="0.666667" stroke-miterlimit="10"/>
<path fill-rule="evenodd" clip-rule="evenodd" d="M36.998 465.838C48.7673 465.838 58.3233 475.394 58.3233 487.165C58.3233 498.934 48.7673 508.49 36.998 508.49C25.2273 508.49 15.6719 498.934 15.6719 487.165C15.6719 475.394 25.2273 465.838 36.998 465.838Z" fill="white"/>
<mask id="mask3_2853_11101" style="mask-type:luminance" maskUnits="userSpaceOnUse" x="15" y="465" width="44" height="44">
<path fill-rule="evenodd" clip-rule="evenodd" d="M36.998 465.838C48.7673 465.838 58.3233 475.394 58.3233 487.165C58.3233 498.934 48.7673 508.49 36.998 508.49C25.2273 508.49 15.6719 498.934 15.6719 487.165C15.6719 475.394 25.2273 465.838 36.998 465.838Z" fill="white"/>
</mask>
<g mask="url(#mask3_2853_11101)">
<path fill-rule="evenodd" clip-rule="evenodd" d="M36.9871 475.596C43.4605 475.596 48.7165 480.851 48.7165 487.325C48.7165 493.799 43.4605 499.055 36.9871 499.055C30.5138 499.055 25.2578 493.799 25.2578 487.325C25.2578 480.851 30.5138 475.596 36.9871 475.596Z" fill="white" stroke="black" stroke-width="0.666667" stroke-miterlimit="10"/>
</g>
<path d="M36.998 465.838C48.7673 465.838 58.3233 475.394 58.3233 487.165C58.3233 498.934 48.7673 508.49 36.998 508.49C25.2273 508.49 15.6719 498.934 15.6719 487.165C15.6719 475.394 25.2273 465.838 36.998 465.838Z" stroke="black" stroke-width="0.666667" stroke-miterlimit="10"/>
<path fill-rule="evenodd" clip-rule="evenodd" d="M533.116 465.838C544.885 465.838 554.441 475.394 554.441 487.165C554.441 498.934 544.885 508.49 533.116 508.49C521.345 508.49 511.789 498.934 511.789 487.165C511.789 475.394 521.345 465.838 533.116 465.838Z" fill="white"/>
<mask id="mask4_2853_11101" style="mask-type:luminance" maskUnits="userSpaceOnUse" x="511" y="465" width="44" height="44">
<path fill-rule="evenodd" clip-rule="evenodd" d="M533.116 465.838C544.885 465.838 554.441 475.394 554.441 487.165C554.441 498.934 544.885 508.49 533.116 508.49C521.345 508.49 511.789 498.934 511.789 487.165C511.789 475.394 521.345 465.838 533.116 465.838Z" fill="white"/>
</mask>
<g mask="url(#mask4_2853_11101)">
<path fill-rule="evenodd" clip-rule="evenodd" d="M533.104 475.596C539.578 475.596 544.834 480.851 544.834 487.325C544.834 493.799 539.578 499.055 533.104 499.055C526.631 499.055 521.375 493.799 521.375 487.325C521.375 480.851 526.631 475.596 533.104 475.596Z" fill="white" stroke="black" stroke-width="0.666667" stroke-miterlimit="10"/>
</g>
<path d="M533.116 465.838C544.885 465.838 554.441 475.394 554.441 487.165C554.441 498.934 544.885 508.49 533.116 508.49C521.345 508.49 511.789 498.934 511.789 487.165C511.789 475.394 521.345 465.838 533.116 465.838Z" stroke="black" stroke-width="0.666667" stroke-miterlimit="10"/>
<path fill-rule="evenodd" clip-rule="evenodd" d="M37.0027 529.86C43.2601 529.86 48.3414 534.941 48.3414 541.198C48.3414 547.457 43.2601 552.537 37.0027 552.537C30.7441 552.537 25.6641 547.457 25.6641 541.198C25.6641 534.941 30.7441 529.86 37.0027 529.86Z" fill="white"/>
<mask id="mask5_2853_11101" style="mask-type:luminance" maskUnits="userSpaceOnUse" x="25" y="529" width="24" height="24">
<path fill-rule="evenodd" clip-rule="evenodd" d="M37.0027 529.86C43.2601 529.86 48.3414 534.941 48.3414 541.198C48.3414 547.457 43.2601 552.537 37.0027 552.537C30.7441 552.537 25.6641 547.457 25.6641 541.198C25.6641 534.941 30.7441 529.86 37.0027 529.86Z" fill="white"/>
</mask>
<g mask="url(#mask5_2853_11101)">
<path fill-rule="evenodd" clip-rule="evenodd" d="M36.84 531.75C42.0546 531.75 46.288 535.983 46.288 541.198C46.288 546.413 42.0546 550.647 36.84 550.647C31.624 550.647 27.3906 546.413 27.3906 541.198C27.3906 535.983 31.624 531.75 36.84 531.75Z" fill="white" stroke="black" stroke-width="0.666667" stroke-miterlimit="10"/>
</g>
<path d="M37.0027 529.86C43.2601 529.86 48.3414 534.941 48.3414 541.198C48.3414 547.457 43.2601 552.537 37.0027 552.537C30.7441 552.537 25.6641 547.457 25.6641 541.198C25.6641 534.941 30.7441 529.86 37.0027 529.86Z" stroke="black" stroke-width="0.666667" stroke-miterlimit="10"/>
<path fill-rule="evenodd" clip-rule="evenodd" d="M37.0027 26.8113C43.2601 26.8113 48.3414 31.8913 48.3414 38.1486C48.3414 44.4073 43.2601 49.4873 37.0027 49.4873C30.7441 49.4873 25.6641 44.4073 25.6641 38.1486C25.6641 31.8913 30.7441 26.8113 37.0027 26.8113Z" fill="white"/>
<mask id="mask6_2853_11101" style="mask-type:luminance" maskUnits="userSpaceOnUse" x="25" y="26" width="24" height="24">
<path fill-rule="evenodd" clip-rule="evenodd" d="M37.0027 26.8113C43.2601 26.8113 48.3414 31.8913 48.3414 38.1486C48.3414 44.4073 43.2601 49.4873 37.0027 49.4873C30.7441 49.4873 25.6641 44.4073 25.6641 38.1486C25.6641 31.8913 30.7441 26.8113 37.0027 26.8113Z" fill="white"/>
</mask>
<g mask="url(#mask6_2853_11101)">
<path fill-rule="evenodd" clip-rule="evenodd" d="M36.84 28.7003C42.0546 28.7003 46.288 32.9336 46.288 38.1483C46.288 43.3643 42.0546 47.5977 36.84 47.5977C31.624 47.5977 27.3906 43.3643 27.3906 38.1483C27.3906 32.9336 31.624 28.7003 36.84 28.7003Z" fill="white" stroke="black" stroke-width="0.666667" stroke-miterlimit="10"/>
</g>
<path d="M37.0027 26.8113C43.2601 26.8113 48.3414 31.8913 48.3414 38.1486C48.3414 44.4073 43.2601 49.4873 37.0027 49.4873C30.7441 49.4873 25.6641 44.4073 25.6641 38.1486C25.6641 31.8913 30.7441 26.8113 37.0027 26.8113Z" stroke="black" stroke-width="0.666667" stroke-miterlimit="10"/>
<path fill-rule="evenodd" clip-rule="evenodd" d="M533.12 26.8113C539.377 26.8113 544.459 31.8913 544.459 38.1486C544.459 44.4073 539.377 49.4873 533.12 49.4873C526.861 49.4873 521.781 44.4073 521.781 38.1486C521.781 31.8913 526.861 26.8113 533.12 26.8113Z" fill="white"/>
<mask id="mask7_2853_11101" style="mask-type:luminance" maskUnits="userSpaceOnUse" x="521" y="26" width="24" height="24">
<path fill-rule="evenodd" clip-rule="evenodd" d="M533.12 26.8113C539.377 26.8113 544.459 31.8913 544.459 38.1486C544.459 44.4073 539.377 49.4873 533.12 49.4873C526.861 49.4873 521.781 44.4073 521.781 38.1486C521.781 31.8913 526.861 26.8113 533.12 26.8113Z" fill="white"/>
</mask>
<g mask="url(#mask7_2853_11101)">
<path fill-rule="evenodd" clip-rule="evenodd" d="M532.956 28.7003C538.172 28.7003 542.405 32.9336 542.405 38.1483C542.405 43.3643 538.172 47.5977 532.956 47.5977C527.741 47.5977 523.508 43.3643 523.508 38.1483C523.508 32.9336 527.741 28.7003 532.956 28.7003Z" fill="white" stroke="black" stroke-width="0.666667" stroke-miterlimit="10"/>
</g>
<path d="M533.12 26.8113C539.377 26.8113 544.459 31.8913 544.459 38.1486C544.459 44.4073 539.377 49.4873 533.12 49.4873C526.861 49.4873 521.781 44.4073 521.781 38.1486C521.781 31.8913 526.861 26.8113 533.12 26.8113Z" stroke="black" stroke-width="0.666667" stroke-miterlimit="10"/>
<path fill-rule="evenodd" clip-rule="evenodd" d="M533.12 529.86C539.377 529.86 544.459 534.941 544.459 541.198C544.459 547.457 539.377 552.537 533.12 552.537C526.861 552.537 521.781 547.457 521.781 541.198C521.781 534.941 526.861 529.86 533.12 529.86Z" fill="white"/>
<mask id="mask8_2853_11101" style="mask-type:luminance" maskUnits="userSpaceOnUse" x="521" y="529" width="24" height="24">
<path fill-rule="evenodd" clip-rule="evenodd" d="M533.12 529.86C539.377 529.86 544.459 534.941 544.459 541.198C544.459 547.457 539.377 552.537 533.12 552.537C526.861 552.537 521.781 547.457 521.781 541.198C521.781 534.941 526.861 529.86 533.12 529.86Z" fill="white"/>
</mask>
<g mask="url(#mask8_2853_11101)">
<path fill-rule="evenodd" clip-rule="evenodd" d="M532.956 531.75C538.172 531.75 542.405 535.983 542.405 541.198C542.405 546.413 538.172 550.647 532.956 550.647C527.741 550.647 523.508 546.413 523.508 541.198C523.508 535.983 527.741 531.75 532.956 531.75Z" fill="white" stroke="black" stroke-width="0.666667" stroke-miterlimit="10"/>
</g>
<path d="M533.12 529.86C539.377 529.86 544.459 534.941 544.459 541.198C544.459 547.457 539.377 552.537 533.12 552.537C526.861 552.537 521.781 547.457 521.781 541.198C521.781 534.941 526.861 529.86 533.12 529.86Z" stroke="black" stroke-width="0.666667" stroke-miterlimit="10"/>
</g>
<mask id="mask9_2853_11101" style="mask-type:luminance" maskUnits="userSpaceOnUse" x="22" y="22" width="526" height="534">
<path fill-rule="evenodd" clip-rule="evenodd" d="M36.907 127.192C25.267 129.433 21.6603 137.849 22.7683 149.889L22.7457 428.6C22.091 441.287 26.4643 448.984 36.9017 450.664C58.391 453.292 71.0843 464.801 72.9777 487.211L72.7723 536.628C72.4537 547.816 76.6324 555 88.2617 555.548L480.583 555.228C490.888 555.296 496.362 550.288 497.064 540.269L496.958 486.34C499.642 464.977 511.658 452.944 533.2 450.436C544.827 449.832 547.298 441.429 547.447 428.416L547.287 147.844C547.956 135.971 543.16 129.207 532.752 127.685C511.638 125.216 498.372 114.527 497.042 91.3465L496.999 37.8719C496.528 29.6745 492.707 24.5065 484.666 23.1492L89.9817 22.9719C79.491 22.9705 73.511 27.6066 72.9123 37.7719V91.1852C71.2923 112.424 59.9723 125.033 36.907 127.192Z" fill="white"/>
</mask>
<g mask="url(#mask9_2853_11101)">
<path d="M72.9146 37.7719L72.7746 536.628C72.456 547.816 76.6346 555 88.264 555.548L480.585 555.228C490.891 555.296 496.364 550.288 497.067 540.269L497.001 37.8719C496.531 29.6745 492.709 24.5065 484.668 23.1492L89.9839 22.9719C79.4933 22.9705 73.5133 27.6066 72.9146 37.7719Z" stroke="black" stroke-width="1.33333" stroke-miterlimit="10"/>
<path fill-rule="evenodd" clip-rule="evenodd" d="M518.831 414.414C525.088 414.414 530.17 419.496 530.17 425.753C530.17 432.012 525.088 437.092 518.831 437.092C512.572 437.092 507.492 432.012 507.492 425.753C507.492 419.496 512.572 414.414 518.831 414.414Z" fill="white"/>
<mask id="mask10_2853_11101" style="mask-type:luminance" maskUnits="userSpaceOnUse" x="507" y="414" width="24" height="24">
<path fill-rule="evenodd" clip-rule="evenodd" d="M518.831 414.414C525.088 414.414 530.17 419.496 530.17 425.753C530.17 432.012 525.088 437.092 518.831 437.092C512.572 437.092 507.492 432.012 507.492 425.753C507.492 419.496 512.572 414.414 518.831 414.414Z" fill="white"/>
</mask>
<g mask="url(#mask10_2853_11101)">
<path fill-rule="evenodd" clip-rule="evenodd" d="M518.667 416.305C523.883 416.305 528.116 420.538 528.116 425.753C528.116 430.967 523.883 435.202 518.667 435.202C513.452 435.202 509.219 430.967 509.219 425.753C509.219 420.538 513.452 416.305 518.667 416.305Z" fill="white" stroke="black" stroke-width="0.666667" stroke-miterlimit="10"/>
</g>
<path d="M518.831 414.414C525.088 414.414 530.17 419.496 530.17 425.753C530.17 432.012 525.088 437.092 518.831 437.092C512.572 437.092 507.492 432.012 507.492 425.753C507.492 419.496 512.572 414.414 518.831 414.414Z" stroke="black" stroke-width="0.666667" stroke-miterlimit="10"/>
<path fill-rule="evenodd" clip-rule="evenodd" d="M518.831 141.201C525.088 141.201 530.17 146.281 530.17 152.538C530.17 158.797 525.088 163.877 518.831 163.877C512.572 163.877 507.492 158.797 507.492 152.538C507.492 146.281 512.572 141.201 518.831 141.201Z" fill="white"/>
<mask id="mask11_2853_11101" style="mask-type:luminance" maskUnits="userSpaceOnUse" x="507" y="141" width="24" height="23">
<path fill-rule="evenodd" clip-rule="evenodd" d="M518.831 141.201C525.088 141.201 530.17 146.281 530.17 152.538C530.17 158.797 525.088 163.877 518.831 163.877C512.572 163.877 507.492 158.797 507.492 152.538C507.492 146.281 512.572 141.201 518.831 141.201Z" fill="white"/>
</mask>
<g mask="url(#mask11_2853_11101)">
<path fill-rule="evenodd" clip-rule="evenodd" d="M518.667 143.09C523.883 143.09 528.116 147.323 528.116 152.538C528.116 157.754 523.883 161.987 518.667 161.987C513.452 161.987 509.219 157.754 509.219 152.538C509.219 147.323 513.452 143.09 518.667 143.09Z" fill="white" stroke="black" stroke-width="0.666667" stroke-miterlimit="10"/>
</g>
<path d="M518.831 141.201C525.088 141.201 530.17 146.281 530.17 152.538C530.17 158.797 525.088 163.877 518.831 163.877C512.572 163.877 507.492 158.797 507.492 152.538C507.492 146.281 512.572 141.201 518.831 141.201Z" stroke="black" stroke-width="0.666667" stroke-miterlimit="10"/>
<path fill-rule="evenodd" clip-rule="evenodd" d="M51.1889 141.201C57.4476 141.201 62.5276 146.281 62.5276 152.538C62.5276 158.797 57.4476 163.877 51.1889 163.877C44.9316 163.877 39.8516 158.797 39.8516 152.538C39.8516 146.281 44.9316 141.201 51.1889 141.201Z" fill="white"/>
<mask id="mask12_2853_11101" style="mask-type:luminance" maskUnits="userSpaceOnUse" x="39" y="141" width="24" height="23">
<path fill-rule="evenodd" clip-rule="evenodd" d="M51.1889 141.201C57.4476 141.201 62.5276 146.281 62.5276 152.538C62.5276 158.797 57.4476 163.877 51.1889 163.877C44.9316 163.877 39.8516 158.797 39.8516 152.538C39.8516 146.281 44.9316 141.201 51.1889 141.201Z" fill="white"/>
</mask>
<g mask="url(#mask12_2853_11101)">
<path fill-rule="evenodd" clip-rule="evenodd" d="M51.0261 143.09C56.2408 143.09 60.4755 147.323 60.4755 152.538C60.4755 157.754 56.2408 161.987 51.0261 161.987C45.8115 161.987 41.5781 157.754 41.5781 152.538C41.5781 147.323 45.8115 143.09 51.0261 143.09Z" fill="white" stroke="black" stroke-width="0.666667" stroke-miterlimit="10"/>
</g>
<path d="M51.1889 141.201C57.4476 141.201 62.5276 146.281 62.5276 152.538C62.5276 158.797 57.4476 163.877 51.1889 163.877C44.9316 163.877 39.8516 158.797 39.8516 152.538C39.8516 146.281 44.9316 141.201 51.1889 141.201Z" stroke="black" stroke-width="0.666667" stroke-miterlimit="10"/>
<path fill-rule="evenodd" clip-rule="evenodd" d="M51.1889 414.414C57.4476 414.414 62.5276 419.496 62.5276 425.753C62.5276 432.012 57.4476 437.092 51.1889 437.092C44.9316 437.092 39.8516 432.012 39.8516 425.753C39.8516 419.496 44.9316 414.414 51.1889 414.414Z" fill="white"/>
<mask id="mask13_2853_11101" style="mask-type:luminance" maskUnits="userSpaceOnUse" x="39" y="414" width="24" height="24">
<path fill-rule="evenodd" clip-rule="evenodd" d="M51.1889 414.414C57.4476 414.414 62.5276 419.496 62.5276 425.753C62.5276 432.012 57.4476 437.092 51.1889 437.092C44.9316 437.092 39.8516 432.012 39.8516 425.753C39.8516 419.496 44.9316 414.414 51.1889 414.414Z" fill="white"/>
</mask>
<g mask="url(#mask13_2853_11101)">
<path fill-rule="evenodd" clip-rule="evenodd" d="M51.0261 416.305C56.2408 416.305 60.4755 420.538 60.4755 425.753C60.4755 430.967 56.2408 435.202 51.0261 435.202C45.8115 435.202 41.5781 430.967 41.5781 425.753C41.5781 420.538 45.8115 416.305 51.0261 416.305Z" fill="white" stroke="black" stroke-width="0.666667" stroke-miterlimit="10"/>
</g>
<path d="M51.1889 414.414C57.4476 414.414 62.5276 419.496 62.5276 425.753C62.5276 432.012 57.4476 437.092 51.1889 437.092C44.9316 437.092 39.8516 432.012 39.8516 425.753C39.8516 419.496 44.9316 414.414 51.1889 414.414Z" stroke="black" stroke-width="0.666667" stroke-miterlimit="10"/>
</g>
<path d="M36.907 127.192C25.267 129.433 21.6603 137.849 22.7683 149.889L22.7457 428.6C22.091 441.287 26.4643 448.984 36.9017 450.664C58.391 453.292 71.0843 464.801 72.9777 487.211L72.7723 536.628C72.4537 547.816 76.6324 555 88.2617 555.548L480.583 555.228C490.888 555.296 496.362 550.288 497.064 540.269L496.958 486.34C499.642 464.977 511.658 452.944 533.2 450.436C544.827 449.832 547.298 441.429 547.447 428.416L547.287 147.844C547.956 135.971 543.16 129.207 532.752 127.685C511.638 125.216 498.372 114.527 497.042 91.3465L496.999 37.8719C496.528 29.6745 492.707 24.5065 484.666 23.1492L89.9817 22.9719C79.491 22.9705 73.511 27.6066 72.9123 37.7719V91.1852C71.2923 112.424 59.9723 125.033 36.907 127.192Z" stroke="black" stroke-width="1.33333" stroke-miterlimit="10"/>
</svg>
