<svg width="101" height="189" viewBox="0 0 101 189" fill="none" xmlns="http://www.w3.org/2000/svg">
<g clip-path="url(#clip0_2692_19441)">
<path d="M100.513 94.357C100.513 66.3112 100.513 38.2387 100.513 10.1929C100.513 9.10093 100.434 7.98229 100.222 6.89029C99.9844 5.66512 99.5082 4.62638 97.7096 4.81282C96.6251 4.91936 95.5142 4.81282 94.4032 4.83946C93.7155 4.86609 93.2394 4.67965 92.9484 3.98716C92.5781 3.0816 92.0756 2.25594 91.6788 1.35038C91.3085 0.524717 90.7001 0.0985696 89.8008 0.125204C87.0763 0.178472 84.3254 0.258374 81.601 0.285009C80.7281 0.285009 80.2784 0.844326 80.0404 1.51018C79.4849 3.18814 78.2946 3.34794 76.7605 3.34794C54.0656 3.32131 31.3443 3.34794 8.64944 3.37457C6.32176 3.37457 3.96763 3.42784 1.63996 3.45447C0.0264507 3.48111 -1.47907e-07 3.50774 -2.23581e-07 5.23896C-5.05322e-07 11.6844 0.0264501 18.1033 0.0264498 24.5488C0.0264498 25.6141 0.0264497 26.6795 0.0264497 27.7449C0.0264497 28.4906 -0.0529031 29.2097 0.687722 29.7691C0.952231 29.9555 0.952231 30.5681 0.952231 30.9942C0.978681 50.3573 0.97868 69.6937 1.00513 89.0568C1.00513 111.829 1.03158 134.601 1.03158 157.373C1.03158 158.093 1.21673 158.892 0.264502 159.291C0.0793457 159.371 -6.98536e-06 159.93 -6.99933e-06 160.25C-7.33928e-06 168.027 -7.67807e-06 175.778 0.0264429 183.555C0.0264428 185.233 0.132246 185.233 1.7193 185.233C11.2945 185.233 20.8433 185.259 30.4185 185.259C41.6601 185.286 52.9018 185.286 64.1434 185.313C68.7723 185.313 73.4012 185.339 78.0301 185.313C78.8236 185.313 79.432 185.499 79.6436 186.351C80.1197 188.136 81.3365 188.535 83.0558 188.429C85.1983 188.269 87.3673 188.376 89.5363 188.429C90.5943 188.456 91.282 188.056 91.7317 187.071C92.102 186.272 92.5781 185.499 92.9484 184.727C93.2658 184.088 93.7155 183.821 94.4297 183.821C95.5671 183.848 96.7309 183.848 97.8683 183.848C99.1908 183.821 100.011 183.155 100.222 181.824C100.381 180.812 100.46 179.799 100.46 178.787C100.46 150.635 100.46 122.509 100.46 94.357C100.487 94.357 100.487 94.357 100.513 94.357ZM91.2291 3.0017C91.2027 2.86853 91.1762 2.76199 91.1498 2.62882C91.1762 2.78862 91.2027 2.89516 91.2291 3.0017C91.3878 3.10823 91.6788 3.1615 91.7581 3.32131C92.4459 4.41331 93.1336 5.45204 93.0542 6.86365C92.9749 8.67478 93.0542 10.5125 93.0542 12.3237C93.0542 63.5945 93.0542 114.865 93.0542 166.136C93.0542 171.41 93.0278 176.71 93.0278 181.983C93.0278 183.581 92.3136 184.833 91.0704 186.058C91.1233 185.206 91.1762 184.594 91.1762 183.981C91.1762 172.875 91.1762 161.795 91.1762 150.688C91.1762 109.352 91.1762 68.0424 91.1762 26.7061C91.2027 18.8224 91.2291 10.9121 91.2291 3.0017ZM79.6701 3.10823C79.8817 3.0816 80.0933 3.0816 80.2784 3.05496C80.3314 3.61428 80.4372 4.20023 80.4372 4.75955C80.3578 12.5101 80.1462 20.2873 80.1462 28.0378C80.1197 59.2531 80.1462 90.4417 80.1991 121.657C80.2255 136.865 80.3578 152.1 80.4107 167.308C80.4371 172.821 80.4371 178.308 80.4371 183.821C80.4371 184.407 80.3313 184.993 80.2784 185.552C80.1462 185.552 79.9875 185.552 79.8552 185.579C79.7494 185.073 79.5643 184.54 79.5643 184.034C79.5378 180.625 79.5643 177.189 79.5643 173.78C79.5643 171.516 79.5114 169.252 79.5643 166.988C79.5907 166.03 79.194 165.71 78.3211 165.763C77.5276 165.79 76.734 165.763 75.9405 165.763C53.2721 165.763 30.6301 165.79 7.96171 165.816C6.74497 165.816 5.52823 165.816 4.17923 165.816C4.12633 164.858 4.07343 164.059 4.07343 163.286C4.09988 156.228 4.15278 149.17 4.15278 142.112C4.17924 103.279 4.17924 64.4468 4.17924 25.5875C4.17924 23.1105 4.02053 23.2703 6.48047 23.2703C30.3392 23.2703 54.1714 23.2703 78.0301 23.2703C78.4798 23.2703 78.9559 23.2703 79.6436 23.2703C79.6701 16.4253 79.6701 9.76678 79.6701 3.10823ZM3.41216 166.296C4.02053 166.296 4.44374 166.296 4.86696 166.296C28.9902 166.296 53.0869 166.269 77.2101 166.269C78.7178 166.269 78.7443 166.269 78.7443 167.814C78.7443 172.954 78.7443 178.121 78.7443 183.262C78.7443 183.688 78.6649 184.114 78.6385 184.487C75.8082 184.487 73.1103 184.487 70.4387 184.487C53.563 184.487 36.6609 184.487 19.7853 184.46C14.5744 184.46 9.39006 184.46 4.17923 184.434C1.93091 184.434 1.85155 184.301 1.8251 182.117C1.79865 177.402 1.74575 172.715 1.74575 168C1.7722 159.957 1.85156 151.94 1.85156 143.897C1.85156 98.0325 1.82511 52.195 1.79866 6.33097C1.79866 4.51984 2.06317 4.22686 3.86183 4.22686C8.41138 4.20023 12.9345 4.1736 17.484 4.1736C37.6396 4.1736 57.7687 4.20023 77.9243 4.22687C78.1624 4.22687 78.4269 4.28014 78.6914 4.30677C78.6914 10.406 78.6914 16.3987 78.6914 22.6045C53.5366 22.6045 28.4876 22.6045 3.43861 22.6045C3.41216 70.5726 3.41216 118.354 3.41216 166.296ZM84.299 187.736C84.299 125.306 84.299 63.195 84.299 1.00413C86.3622 1.00413 88.2666 1.00413 90.2504 1.00413C90.2769 1.43028 90.3298 1.77652 90.3298 2.12277C90.3562 6.25107 90.3562 10.3794 90.3562 14.5077C90.3562 66.0448 90.3827 117.582 90.3827 169.119C90.3827 174.845 90.3827 180.572 90.3562 186.298C90.3562 187.763 90.3298 187.763 88.8485 187.763C87.3937 187.736 85.886 187.736 84.299 187.736ZM93.7155 183.022C93.7155 181.424 93.7155 180.013 93.7155 178.601C93.7155 128.369 93.7155 78.1367 93.7155 27.9047C93.7155 20.9265 93.7155 13.975 93.7155 6.99682C93.7155 5.69175 93.742 5.66512 95.0645 5.66512C95.9374 5.66512 96.8367 5.66512 97.7096 5.66512C99.1908 5.69175 99.4025 5.82492 99.5083 7.31644C99.6405 9.60698 99.7199 11.9242 99.7199 14.2413C99.7463 65.1393 99.7463 116.037 99.7463 166.935C99.7463 171.117 99.7463 175.272 99.7198 179.453C99.7198 180.199 99.6669 180.971 99.5611 181.69C99.4289 182.516 98.9792 183.049 98.0534 183.022C96.6515 182.996 95.2761 183.022 93.7155 183.022ZM83.5055 0.977498C83.5055 1.56345 83.5055 2.09613 83.5055 2.62882C83.5055 10.7522 83.5319 18.8757 83.5319 26.9991C83.5319 73.2361 83.5319 119.473 83.5055 165.737C83.5055 172.608 83.5055 179.506 83.5055 186.378C83.5055 187.63 83.4261 187.63 82.2887 187.736C81.1778 187.843 81.2042 187.124 81.1778 186.405C81.1778 186.218 81.1778 186.058 81.1778 185.872C81.1778 175.298 81.2042 164.751 81.2042 154.177C81.2042 104.025 81.2042 53.873 81.2042 3.72082C81.2042 3.13487 81.2307 2.57555 81.2307 1.9896C81.2307 1.35038 81.5216 1.00413 82.2094 1.00413C82.5797 0.977497 82.95 0.977498 83.5055 0.977498ZM1.32254 184.567C1.24318 184.54 1.16383 184.54 1.05803 184.514C1.13738 184.167 1.19028 183.821 1.26963 183.475C1.32254 183.475 1.40189 183.502 1.45479 183.502C1.40189 183.874 1.37544 184.221 1.32254 184.567ZM1.4548 23.9894C1.42835 23.9894 1.4019 23.9628 1.4019 23.9628C1.4019 23.6432 1.4019 23.3236 1.4019 22.9773C1.42835 22.9773 1.4548 22.9773 1.4548 22.9773C1.4548 23.3236 1.4548 23.6432 1.4548 23.9894ZM1.19029 4.43994C1.19029 4.36004 1.19029 4.30677 1.16384 4.22686C1.19029 4.2535 1.21674 4.30677 1.21674 4.3334C1.24319 4.36004 1.21674 4.38667 1.19029 4.43994Z" fill="black"/>
</g>
<defs>
<clipPath id="clip0_2692_19441">
<rect width="188.33" height="100.513" fill="white" transform="matrix(-4.37114e-08 1 1 4.37114e-08 0 0.125)"/>
</clipPath>
</defs>
</svg>
