<svg width="24" height="24" viewBox="0 0 24 24" fill="none" xmlns="http://www.w3.org/2000/svg">
<g clip-path="url(#clip0_2692_21020)">
<g clip-path="url(#clip1_2692_21020)">
<path d="M7 10.6986C7.11232 10.2446 7.20593 9.83744 7.31357 9.43495C7.33229 9.37411 7.39782 9.3039 7.46334 9.2805C8.53042 8.87333 9.58814 8.41935 10.7207 8.2181C11.83 8.02153 12.9298 8.04493 13.9688 8.55039C15.078 9.08861 15.6583 10.2399 15.6069 11.4661C15.5413 13.1042 14.9704 14.6159 14.5679 16.1744C14.3058 17.1994 14.0203 18.2197 13.7769 19.2493C13.6552 19.7548 13.585 20.2789 13.6927 20.8031C13.8144 21.4022 14.0998 21.6643 14.7036 21.7672C15.5086 21.9076 16.2668 21.7392 17.0203 21.4817C17.0905 21.4583 17.1607 21.4303 17.2683 21.3928C17.1607 21.8421 17.0577 22.2633 16.9501 22.6846C16.936 22.7314 16.8705 22.7782 16.819 22.8016C15.9345 23.1292 15.0686 23.5176 14.1607 23.7563C12.8549 24.1027 11.5304 24.1354 10.2761 23.5176C9.18097 22.9794 8.60998 22.0668 8.59594 20.8406C8.58658 19.7688 8.83931 18.7438 9.12481 17.7189C9.5741 16.1136 10.0094 14.5083 10.4306 12.8983C10.571 12.3554 10.6178 11.7938 10.5148 11.2275C10.4259 10.7454 10.1544 10.4505 9.67239 10.3476C9.01248 10.2072 8.37129 10.268 7.73479 10.4646C7.50546 10.5301 7.28081 10.6097 7 10.6986Z" fill="white"/>
<path d="M14.6266 5.59768C13.3349 5.5462 12.3661 5.0033 11.8326 3.84729C11.2241 2.5228 11.8606 0.992376 13.2366 0.313749C14.4909 -0.304035 16.0307 0.00953718 16.9433 1.06258C18.1929 2.50408 17.5658 4.71781 15.7171 5.39643C15.558 5.4526 15.3895 5.4994 15.221 5.53216C15.0151 5.56492 14.8045 5.57896 14.6266 5.59768Z" fill="white"/>
</g>
</g>
<defs>
<clipPath id="clip0_2692_21020">
<rect width="24" height="23.9893" fill="white"/>
</clipPath>
<clipPath id="clip1_2692_21020">
<rect width="10.5913" height="24" fill="white" transform="translate(7)"/>
</clipPath>
</defs>
</svg>
