<svg width="181" height="48" viewBox="0 0 181 48" fill="none" xmlns="http://www.w3.org/2000/svg">
<g clip-path="url(#clip0_2741_18550)">
<path d="M180.447 1.01367H0.804688V46.9933H180.447V1.01367Z" fill="white"/>
<mask id="mask0_2741_18550" style="mask-type:luminance" maskUnits="userSpaceOnUse" x="0" y="1" width="181" height="46">
<path d="M180.447 1.01562H0.804688V46.9953H180.447V1.01562Z" fill="white"/>
</mask>
<g mask="url(#mask0_2741_18550)">
<path d="M180.659 3.13281H0.804688V44.9633H180.659V3.13281Z" fill="white"/>
</g>
<mask id="mask1_2741_18550" style="mask-type:luminance" maskUnits="userSpaceOnUse" x="0" y="1" width="181" height="46">
<path d="M180.447 1.01562H0.804688V46.9953H180.447V1.01562Z" fill="white"/>
</mask>
<g mask="url(#mask1_2741_18550)">
<path d="M180.659 3.13281H0.804688V44.9633H180.659V3.13281Z" stroke="black" stroke-miterlimit="10" stroke-linejoin="round"/>
</g>
<mask id="mask2_2741_18550" style="mask-type:luminance" maskUnits="userSpaceOnUse" x="0" y="1" width="181" height="46">
<path d="M180.447 1.01562H0.804688V46.9953H180.447V1.01562Z" fill="white"/>
</mask>
<g mask="url(#mask2_2741_18550)">
<path d="M9.77895 31.0344C13.7774 31.0344 17.0188 27.793 17.0188 23.7946C17.0188 19.7961 13.7774 16.5547 9.77895 16.5547C5.78047 16.5547 2.53906 19.7961 2.53906 23.7946C2.53906 27.793 5.78047 31.0344 9.77895 31.0344Z" fill="white"/>
</g>
<mask id="mask3_2741_18550" style="mask-type:luminance" maskUnits="userSpaceOnUse" x="2" y="16" width="16" height="16">
<path d="M9.77895 31.0325C13.7774 31.0325 17.0188 27.7911 17.0188 23.7926C17.0188 19.7941 13.7774 16.5527 9.77895 16.5527C5.78047 16.5527 2.53906 19.7941 2.53906 23.7926C2.53906 27.7911 5.78047 31.0325 9.77895 31.0325Z" fill="white"/>
</mask>
<g mask="url(#mask3_2741_18550)">
<mask id="mask4_2741_18550" style="mask-type:luminance" maskUnits="userSpaceOnUse" x="0" y="1" width="181" height="46">
<path d="M180.447 1.01367H0.804688V46.9933H180.447V1.01367Z" fill="white"/>
</mask>
<g mask="url(#mask4_2741_18550)">
<path fill-rule="evenodd" clip-rule="evenodd" d="M9.77896 17.8652C13.039 17.8652 15.7064 20.5326 15.7064 23.7926C15.7064 27.0527 13.039 29.72 9.77896 29.72C6.51889 29.72 3.85156 27.0527 3.85156 23.7926C3.85156 20.5326 6.47655 17.8652 9.77896 17.8652Z" fill="white"/>
</g>
<mask id="mask5_2741_18550" style="mask-type:luminance" maskUnits="userSpaceOnUse" x="0" y="1" width="181" height="46">
<path d="M180.447 1.01367H0.804688V46.9933H180.447V1.01367Z" fill="white"/>
</mask>
<g mask="url(#mask5_2741_18550)">
<path d="M9.77896 17.8652C13.039 17.8652 15.7064 20.5326 15.7064 23.7926C15.7064 27.0527 13.039 29.72 9.77896 29.72C6.51889 29.72 3.85156 27.0527 3.85156 23.7926C3.85156 20.5326 6.47655 17.8652 9.77896 17.8652Z" stroke="black" stroke-miterlimit="10" stroke-linecap="round" stroke-linejoin="round"/>
</g>
<mask id="mask6_2741_18550" style="mask-type:luminance" maskUnits="userSpaceOnUse" x="0" y="1" width="181" height="46">
<path d="M180.447 1.01367H0.804688V46.9933H180.447V1.01367Z" fill="white"/>
</mask>
<g mask="url(#mask6_2741_18550)">
<path opacity="0.3584" fill-rule="evenodd" clip-rule="evenodd" d="M6.47656 23.7911L8.12776 20.9121H11.3878L13.039 23.7911L11.3878 26.6278H8.12776L6.47656 23.7911Z" fill="white"/>
<path d="M6.47656 23.7911L8.12776 20.9121H11.3878L13.039 23.7911L11.3878 26.6278H8.12776L6.47656 23.7911Z" stroke="black" stroke-miterlimit="10" stroke-linejoin="round"/>
</g>
</g>
<mask id="mask7_2741_18550" style="mask-type:luminance" maskUnits="userSpaceOnUse" x="0" y="1" width="181" height="46">
<path d="M180.447 1.01562H0.804688V46.9953H180.447V1.01562Z" fill="white"/>
</mask>
<g mask="url(#mask7_2741_18550)">
<path d="M9.77895 31.0344C13.7774 31.0344 17.0188 27.793 17.0188 23.7946C17.0188 19.7961 13.7774 16.5547 9.77895 16.5547C5.78047 16.5547 2.53906 19.7961 2.53906 23.7946C2.53906 27.793 5.78047 31.0344 9.77895 31.0344Z" stroke="black" stroke-miterlimit="10" stroke-linecap="round" stroke-linejoin="round"/>
</g>
<mask id="mask8_2741_18550" style="mask-type:luminance" maskUnits="userSpaceOnUse" x="84" y="6" width="113" height="185">
<path d="M153.559 6.77029L84.7969 172.736L127.279 190.329L196.041 24.3633L153.559 6.77029Z" fill="white"/>
</mask>
<g mask="url(#mask8_2741_18550)">
<path d="M178.016 26.7997C179.546 23.1055 177.792 18.8703 174.098 17.3401C170.403 15.8099 166.168 17.5641 164.638 21.2583C163.108 24.9525 164.862 29.1877 168.556 30.718C172.25 32.2482 176.486 30.4939 178.016 26.7997Z" fill="white"/>
</g>
<mask id="mask9_2741_18550" style="mask-type:luminance" maskUnits="userSpaceOnUse" x="164" y="16" width="15" height="16">
<path d="M178.015 26.7978C179.546 23.1037 177.791 18.8686 174.097 17.3384C170.403 15.8082 166.168 17.5624 164.638 21.2565C163.108 24.9506 164.862 29.1858 168.556 30.7159C172.25 32.2461 176.485 30.4919 178.015 26.7978Z" fill="white"/>
</mask>
<g mask="url(#mask9_2741_18550)">
<mask id="mask10_2741_18550" style="mask-type:luminance" maskUnits="userSpaceOnUse" x="0" y="1" width="181" height="46">
<path d="M180.447 1.01562H0.804688V46.9953H180.447V1.01562Z" fill="white"/>
</mask>
<g mask="url(#mask10_2741_18550)">
<path fill-rule="evenodd" clip-rule="evenodd" d="M171.302 18.0781C174.562 18.0781 177.23 20.7455 177.23 24.0055C177.23 27.2656 174.562 29.9329 171.302 29.9329C168.042 29.9329 165.375 27.2656 165.375 24.0055C165.375 20.7455 168.042 18.0781 171.302 18.0781Z" fill="white"/>
</g>
<mask id="mask11_2741_18550" style="mask-type:luminance" maskUnits="userSpaceOnUse" x="0" y="1" width="181" height="46">
<path d="M180.447 1.01562H0.804688V46.9953H180.447V1.01562Z" fill="white"/>
</mask>
<g mask="url(#mask11_2741_18550)">
<path d="M171.302 18.0781C174.562 18.0781 177.23 20.7455 177.23 24.0055C177.23 27.2656 174.562 29.9329 171.302 29.9329C168.042 29.9329 165.375 27.2656 165.375 24.0055C165.375 20.7455 168.042 18.0781 171.302 18.0781Z" stroke="black" stroke-miterlimit="10" stroke-linecap="round" stroke-linejoin="round"/>
</g>
<mask id="mask12_2741_18550" style="mask-type:luminance" maskUnits="userSpaceOnUse" x="0" y="1" width="181" height="46">
<path d="M180.447 1.01562H0.804688V46.9953H180.447V1.01562Z" fill="white"/>
</mask>
<g mask="url(#mask12_2741_18550)">
<path opacity="0.3584" fill-rule="evenodd" clip-rule="evenodd" d="M168 24.0047L169.651 21.168H172.954L174.562 24.0047L172.954 26.8413H169.651L168 24.0047Z" fill="white"/>
<path d="M168 24.0047L169.651 21.168H172.954L174.562 24.0047L172.954 26.8413H169.651L168 24.0047Z" stroke="black" stroke-miterlimit="10" stroke-linejoin="round"/>
</g>
</g>
<mask id="mask13_2741_18550" style="mask-type:luminance" maskUnits="userSpaceOnUse" x="84" y="6" width="113" height="185">
<path d="M153.559 6.76834L84.7969 172.734L127.279 190.327L196.041 24.3613L153.559 6.76834Z" fill="white"/>
</mask>
<g mask="url(#mask13_2741_18550)">
<path d="M178.016 26.7978C179.546 23.1036 177.792 18.8684 174.098 17.3381C170.403 15.8079 166.168 17.5622 164.638 21.2564C163.108 24.9506 164.862 29.1858 168.556 30.716C172.25 32.2462 176.486 30.492 178.016 26.7978Z" stroke="black" stroke-miterlimit="10" stroke-linecap="round" stroke-linejoin="round"/>
</g>
<path d="M180.447 1.01367H0.804688V46.9933H180.447V1.01367Z" stroke="black" stroke-miterlimit="10" stroke-linejoin="round"/>
</g>
<defs>
<clipPath id="clip0_2741_18550">
<rect width="181" height="48" fill="white"/>
</clipPath>
</defs>
</svg>
