<svg width="8" height="79" viewBox="0 0 8 79" fill="none" xmlns="http://www.w3.org/2000/svg">
<path d="M7.47779 1H1V77.9715H7.47779V1Z" fill="#0086C7"/>
<mask id="mask0_2726_18125" style="mask-type:luminance" maskUnits="userSpaceOnUse" x="1" y="1" width="7" height="77">
<path d="M7.47779 1H1V77.9715H7.47779V1Z" fill="white"/>
</mask>
<g mask="url(#mask0_2726_18125)">
<path opacity="0.3584" d="M7.48007 2.3125H1.67969V4.21773H7.48007V2.3125Z" fill="white"/>
<path d="M7.48007 2.3125H1.67969V4.21773H7.48007V2.3125Z" stroke="black" stroke-miterlimit="10" stroke-linejoin="round"/>
</g>
<mask id="mask1_2726_18125" style="mask-type:luminance" maskUnits="userSpaceOnUse" x="1" y="1" width="7" height="77">
<path d="M7.47779 1H1V77.9715H7.47779V1Z" fill="white"/>
</mask>
<g mask="url(#mask1_2726_18125)">
<path opacity="0.3584" d="M7.48007 67.0488H1.67969V68.9541H7.48007V67.0488Z" fill="white"/>
<path d="M7.48007 67.0488H1.67969V68.9541H7.48007V67.0488Z" stroke="black" stroke-miterlimit="10" stroke-linejoin="round"/>
</g>
<mask id="mask2_2726_18125" style="mask-type:luminance" maskUnits="userSpaceOnUse" x="1" y="1" width="7" height="77">
<path d="M7.47779 1H1V77.9715H7.47779V1Z" fill="white"/>
</mask>
<g mask="url(#mask2_2726_18125)">
<path opacity="0.3584" d="M7.48007 6.12305H1.67969V8.02828H7.48007V6.12305Z" fill="white"/>
<path d="M7.48007 6.12305H1.67969V8.02828H7.48007V6.12305Z" stroke="black" stroke-miterlimit="10" stroke-linejoin="round"/>
</g>
<mask id="mask3_2726_18125" style="mask-type:luminance" maskUnits="userSpaceOnUse" x="1" y="1" width="7" height="77">
<path d="M7.47779 1H1V77.9715H7.47779V1Z" fill="white"/>
</mask>
<g mask="url(#mask3_2726_18125)">
<path opacity="0.3584" d="M7.48007 70.8594H1.67969V72.7646H7.48007V70.8594Z" fill="white"/>
<path d="M7.48007 70.8594H1.67969V72.7646H7.48007V70.8594Z" stroke="black" stroke-miterlimit="10" stroke-linejoin="round"/>
</g>
<mask id="mask4_2726_18125" style="mask-type:luminance" maskUnits="userSpaceOnUse" x="1" y="1" width="7" height="77">
<path d="M7.47779 1H1V77.9715H7.47779V1Z" fill="white"/>
</mask>
<g mask="url(#mask4_2726_18125)">
<path opacity="0.3584" d="M7.48007 9.93359H1.67969V11.8388H7.48007V9.93359Z" fill="white"/>
<path d="M7.48007 9.93359H1.67969V11.8388H7.48007V9.93359Z" stroke="black" stroke-miterlimit="10" stroke-linejoin="round"/>
</g>
<mask id="mask5_2726_18125" style="mask-type:luminance" maskUnits="userSpaceOnUse" x="1" y="1" width="7" height="77">
<path d="M7.47779 1H1V77.9715H7.47779V1Z" fill="white"/>
</mask>
<g mask="url(#mask5_2726_18125)">
<path opacity="0.3584" d="M7.48007 74.6699H1.67969V76.5752H7.48007V74.6699Z" fill="white"/>
<path d="M7.48007 74.6699H1.67969V76.5752H7.48007V74.6699Z" stroke="black" stroke-miterlimit="10" stroke-linejoin="round"/>
</g>
<mask id="mask6_2726_18125" style="mask-type:luminance" maskUnits="userSpaceOnUse" x="1" y="1" width="7" height="77">
<path d="M7.47779 1H1V77.9715H7.47779V1Z" fill="white"/>
</mask>
<g mask="url(#mask6_2726_18125)">
<path opacity="0.3584" d="M7.47779 14.2949H1V64.9318H7.47779V14.2949Z" fill="white"/>
<path d="M7.47779 14.2949H1V64.9318H7.47779V14.2949Z" stroke="black" stroke-miterlimit="10" stroke-linejoin="round"/>
</g>
<mask id="mask7_2726_18125" style="mask-type:luminance" maskUnits="userSpaceOnUse" x="1" y="1" width="7" height="77">
<path d="M7.47779 1H1V77.9715H7.47779V1Z" fill="white"/>
</mask>
<g mask="url(#mask7_2726_18125)">
<path opacity="0.3584" fill-rule="evenodd" clip-rule="evenodd" d="M1.93145 30.806H1V48.2918L2.10079 48.2495L2.05846 56.1244H6.58869V48.3341L7.47779 48.2918V30.8483L6.50401 30.7637L6.54634 22.8887H1.93145V30.806Z" fill="white"/>
<path d="M1.93145 30.806H1V48.2918L2.10079 48.2495L2.05846 56.1244H6.58869V48.3341L7.47779 48.2918V30.8483L6.50401 30.7637L6.54634 22.8887H1.93145V30.806Z" stroke="black" stroke-miterlimit="10" stroke-linejoin="round"/>
</g>
<mask id="mask8_2726_18125" style="mask-type:luminance" maskUnits="userSpaceOnUse" x="1" y="1" width="7" height="77">
<path d="M7.47779 1H1V77.9715H7.47779V1Z" fill="white"/>
</mask>
<g mask="url(#mask8_2726_18125)">
<path opacity="0.3584" fill-rule="evenodd" clip-rule="evenodd" d="M4.25805 37.666C3.24193 37.666 2.4375 38.4705 2.4375 39.4442C2.4375 40.418 3.24193 41.2224 4.25805 41.2224C5.27418 41.2224 6.0786 40.418 6.0786 39.4442C6.03626 38.4705 5.23184 37.666 4.25805 37.666Z" fill="white"/>
<path d="M4.25805 37.666C3.24193 37.666 2.4375 38.4705 2.4375 39.4442C2.4375 40.418 3.24193 41.2224 4.25805 41.2224C5.27418 41.2224 6.0786 40.418 6.0786 39.4442C6.03626 38.4705 5.23184 37.666 4.25805 37.666Z" stroke="black" stroke-miterlimit="10" stroke-linejoin="round"/>
</g>
<mask id="mask9_2726_18125" style="mask-type:luminance" maskUnits="userSpaceOnUse" x="1" y="1" width="7" height="77">
<path d="M7.47779 1H1V77.9715H7.47779V1Z" fill="white"/>
</mask>
<g mask="url(#mask9_2726_18125)">
<path opacity="0.3506" d="M6.84499 31.7793H1.67969V47.1905H6.84499V31.7793Z" fill="#EBEBEB"/>
<path d="M6.84499 31.7793H1.67969V47.1905H6.84499V31.7793Z" stroke="black" stroke-miterlimit="10" stroke-linecap="round" stroke-linejoin="round"/>
</g>
<mask id="mask10_2726_18125" style="mask-type:luminance" maskUnits="userSpaceOnUse" x="1" y="1" width="7" height="77">
<path d="M7.47779 1H1V77.9715H7.47779V1Z" fill="white"/>
</mask>
<g mask="url(#mask10_2726_18125)">
<path opacity="0.3506" fill-rule="evenodd" clip-rule="evenodd" d="M4.26235 15.9023C2.82284 15.9023 1.67969 17.0455 1.67969 18.4427C1.67969 19.8398 2.82284 20.983 4.26235 20.983C5.70186 20.983 6.84499 19.8398 6.84499 18.4427C6.84499 17.0455 5.65953 15.9023 4.26235 15.9023Z" fill="#EBEBEB"/>
<path d="M4.26235 15.9023C2.82284 15.9023 1.67969 17.0455 1.67969 18.4427C1.67969 19.8398 2.82284 20.983 4.26235 20.983C5.70186 20.983 6.84499 19.8398 6.84499 18.4427C6.84499 17.0455 5.65953 15.9023 4.26235 15.9023Z" stroke="black" stroke-miterlimit="10" stroke-linecap="round" stroke-linejoin="round"/>
</g>
<mask id="mask11_2726_18125" style="mask-type:luminance" maskUnits="userSpaceOnUse" x="1" y="1" width="7" height="77">
<path d="M7.47779 1H1V77.9715H7.47779V1Z" fill="white"/>
</mask>
<g mask="url(#mask11_2726_18125)">
<path opacity="0.3506" fill-rule="evenodd" clip-rule="evenodd" d="M4.26235 58.1152C2.82284 58.1152 1.67969 59.2584 1.67969 60.6555C1.67969 62.0527 2.82284 63.1959 4.26235 63.1959C5.70186 63.1959 6.84499 62.0527 6.84499 60.6555C6.84499 59.2584 5.65953 58.1152 4.26235 58.1152Z" fill="#EBEBEB"/>
<path d="M4.26235 58.1152C2.82284 58.1152 1.67969 59.2584 1.67969 60.6555C1.67969 62.0527 2.82284 63.1959 4.26235 63.1959C5.70186 63.1959 6.84499 62.0527 6.84499 60.6555C6.84499 59.2584 5.65953 58.1152 4.26235 58.1152Z" stroke="black" stroke-miterlimit="10" stroke-linecap="round" stroke-linejoin="round"/>
</g>
<path d="M7.47779 1H1V77.9715H7.47779V1Z" stroke="black" stroke-miterlimit="10" stroke-linejoin="round"/>
</svg>
