<svg width="20" height="20" viewBox="0 0 20 20" fill="none" xmlns="http://www.w3.org/2000/svg">
<g clip-path="url(#clip0_2873_12061)">
<path d="M9.99164 19.7023C7.66352 19.7023 5.33539 19.7054 3.00727 19.7023C1.65102 19.7023 0.544769 18.9054 0.144769 17.6523C-0.105231 16.8679 -0.0302314 16.1054 0.360394 15.3867C2.70102 11.0679 5.04789 6.75229 7.39477 2.43354C8.30727 0.752288 10.4166 0.314788 11.876 1.50854C12.1791 1.75541 12.4135 2.05854 12.601 2.39916C14.0291 5.03041 15.4573 7.65854 16.8854 10.2867C17.801 11.971 18.7073 13.6554 19.6291 15.3335C20.6135 17.1242 19.5666 19.3085 17.551 19.6492C17.3416 19.6835 17.126 19.6992 16.9135 19.6992C14.6041 19.7023 12.2979 19.7023 9.99164 19.7023ZM11.176 9.15229C11.176 8.36479 11.1823 7.58041 11.1729 6.79291C11.1635 6.03041 10.4854 5.49291 9.75102 5.65229C9.21352 5.76791 8.83852 6.23354 8.83227 6.80229C8.82602 7.63979 8.82914 8.48041 8.82914 9.31791C8.82914 10.0429 8.82602 10.7648 8.83227 11.4898C8.83539 12.021 9.17914 12.471 9.66977 12.6085C10.4291 12.8242 11.1635 12.2867 11.1729 11.4929C11.1854 10.7148 11.176 9.93354 11.176 9.15229ZM9.98852 17.3523C10.9385 17.371 11.7448 16.5929 11.7635 15.6398C11.7823 14.6554 11.0198 13.8617 10.0323 13.8367C9.08539 13.8148 8.26977 14.596 8.25102 15.5429C8.23227 16.5398 8.99477 17.3335 9.98852 17.3523Z" fill="#F46717"/>
</g>
<defs>
<clipPath id="clip0_2873_12061">
<rect width="20" height="20" fill="white"/>
</clipPath>
</defs>
</svg>
